<svg width="90" height="16" viewBox="0 0 90 16" fill="none" xmlns="http://www.w3.org/2000/svg">
<path d="M10.5873 7.15391C10.5873 7.15391 13.0699 6.97665 13.0699 4.17659C13.0699 1.37634 11.0388 0.00976562 8.46603 0.00976562H0V15.658H8.46603C8.46603 15.658 13.6342 15.815 13.6342 11.0393C13.6342 11.0394 13.8596 7.15391 10.5873 7.15391V7.15391ZM7.85665 2.79106H8.46603C8.46603 2.79106 9.61681 2.79106 9.61681 4.41919C9.61681 6.04712 8.94003 6.28314 8.17238 6.28314H3.73024V2.79106H7.85665V2.79106ZM8.22679 12.8768H3.73024V8.69499H8.46603C8.46603 8.69499 10.1812 8.67336 10.1812 10.844C10.1812 12.6743 8.90014 12.863 8.22679 12.8768V12.8768ZM20.5269 3.99113C14.2703 3.99113 14.2758 10.0036 14.2758 10.0036C14.2758 10.0036 13.8465 15.9853 20.5269 15.9853C20.5269 15.9853 26.0939 16.2912 26.0939 11.8242H23.2309C23.2309 11.8242 23.3264 13.5064 20.6224 13.5064C20.6224 13.5064 17.7589 13.691 17.7589 10.784H26.1893C26.1893 10.7839 27.1118 3.99113 20.5269 3.99113ZM17.7275 8.69499C17.7275 8.69499 18.0771 6.28309 20.5905 6.28309C23.1034 6.28309 23.072 8.69499 23.072 8.69499H17.7275ZM23.7389 2.85861H17.0266V0.931646H23.7389V2.85861Z" fill="white"/>
<path d="M31.1024 0V5.87855H31.1607C31.5757 5.20052 32.1 4.74618 32.748 4.46658C33.396 4.18698 33.9858 4.01223 34.6338 4.01223C35.5148 4.01223 36.2211 4.12407 36.7526 4.35474C37.2842 4.57842 37.7575 4.92093 38.0487 5.31935C38.3399 5.71778 38.5802 6.22106 38.6967 6.78724C38.8132 7.35343 38.8715 7.97554 38.8715 8.70948V15.6645H35.6313V9.27567C35.6313 8.31105 35.4566 7.63303 35.1581 7.18567C34.8595 6.73831 34.3426 6.50066 33.578 6.50066C32.697 6.50066 32.049 6.78025 31.6922 7.2346C31.2772 7.74487 31.1024 8.59065 31.1024 9.72302V15.6645H27.8623V0H31.1024ZM41.2379 5.99738C41.5946 5.48711 42.0024 5.15159 42.5339 4.80909C43.0654 4.52949 43.6552 4.29882 44.3033 4.18698C44.9513 4.07514 45.5993 4.01922 46.2473 4.01922C46.8371 4.01922 47.4269 4.07514 48.0749 4.13106C48.6647 4.18698 49.2545 4.35474 49.7277 4.58541C50.2593 4.80909 50.6088 5.15159 50.9656 5.55002C51.2568 5.94845 51.4388 6.51464 51.4388 7.19266V13.1341C51.4388 13.6444 51.4971 14.1547 51.5553 14.602C51.6136 15.0564 51.7883 15.4478 51.9704 15.6785H48.672C48.5555 15.5666 48.4972 15.336 48.439 15.1682C48.3807 15.0004 48.3807 14.7698 48.3807 14.602C47.8492 15.1123 47.2594 15.4478 46.5531 15.6785C45.8469 15.9021 45.1406 15.9581 44.4343 15.9581C43.8445 15.9581 43.3713 15.9021 42.847 15.7344C42.3737 15.6225 41.966 15.3919 41.551 15.1123C41.1942 14.8327 40.9029 14.4902 40.6699 14.0358C40.4952 13.5815 40.3787 13.1341 40.3787 12.512C40.3787 11.8899 40.4952 11.3237 40.7355 10.9253C40.9685 10.5269 41.267 10.1914 41.6165 9.90476C41.9733 9.68108 42.4393 9.45042 42.9125 9.33858C43.3858 9.22674 43.8518 9.1149 44.3833 9.05898C44.8566 9.00306 45.3226 8.94714 45.7959 8.89122C46.2692 8.8353 46.6769 8.77938 47.0337 8.72346C47.3905 8.61162 47.6817 8.49978 47.9147 8.32503C48.1477 8.15727 48.206 7.92661 48.206 7.59109C48.206 7.24858 48.1477 6.96898 48.0312 6.80122C47.9147 6.63346 47.74 6.45872 47.5579 6.34688C47.3832 6.23504 47.1429 6.17912 46.9099 6.1232C46.6769 6.06728 46.3784 6.06728 46.0871 6.06728C45.4391 6.06728 44.9658 6.17912 44.6163 6.46571C44.2596 6.7453 44.0266 7.19965 43.9683 7.76584H40.7282C40.7063 7.06684 40.9393 6.44474 41.2379 5.99738ZM47.6599 10.408C47.4851 10.464 47.2449 10.5199 47.0119 10.5758C46.7789 10.6317 46.5386 10.6317 46.2473 10.6876C46.0143 10.7436 45.7158 10.7436 45.4828 10.7995C45.2498 10.8554 45.0095 10.9113 44.7765 10.9672C44.5435 11.0232 44.3033 11.135 44.1868 11.2468C44.012 11.3587 43.8955 11.5264 43.7717 11.7012C43.597 11.9249 43.597 12.1555 43.597 12.4351C43.597 12.7147 43.6552 12.9454 43.7717 13.1132C43.8882 13.2809 44.0047 13.4557 44.1868 13.5675C44.3615 13.6793 44.6018 13.7353 44.8348 13.7912C45.0678 13.8471 45.3081 13.8471 45.5993 13.8471C46.2473 13.8471 46.7206 13.7353 47.0701 13.5675C47.4269 13.3438 47.6599 13.1132 47.8346 12.8336C48.0094 12.554 48.1259 12.2674 48.1259 11.9878C48.1841 11.7082 48.1841 11.4775 48.1841 11.3097V10.1215C48.0094 10.2333 47.8346 10.3521 47.6599 10.408ZM56.3172 4.29882V5.88554H56.3755C56.7905 5.20751 57.3148 4.75317 57.9628 4.47357C58.6108 4.19397 59.3171 4.01922 59.9651 4.01922C60.8461 4.01922 61.5524 4.13106 62.0839 4.36173C62.6737 4.58541 63.0887 4.92792 63.38 5.32634C63.6712 5.72477 63.9115 6.22805 64.0863 6.79423C64.2028 7.36042 64.261 7.98253 64.261 8.71647V15.6715H61.0209V9.28266C61.0209 8.31804 60.8461 7.64002 60.5476 7.19266C60.2564 6.73831 59.7248 6.45872 58.8948 6.45872C58.0138 6.45872 57.3657 6.80122 56.9507 7.3045C56.5357 7.81477 56.3609 8.66055 56.3609 9.79292V15.7344H53.1208V4.29882H56.3172ZM71.5204 6.3329C70.9888 6.3329 70.5811 6.44474 70.2243 6.6754C69.8675 6.89908 69.5763 7.18567 69.3433 7.57711C69.1103 7.91962 68.9865 8.31105 68.87 8.7654C68.7535 9.21975 68.7535 9.61118 68.7535 10.0655C68.7535 10.464 68.8118 10.9113 68.87 11.3097C68.9865 11.7641 69.103 12.0996 69.3433 12.4421C69.5763 12.7846 69.8166 13.0642 70.1661 13.2879C70.5229 13.5116 70.9306 13.6304 71.4621 13.6304C72.2267 13.6304 72.8164 13.4067 73.2897 13.0083C73.7047 12.6099 73.996 12.0437 74.0542 11.3097H77.1779C76.9449 12.8336 76.3551 13.9659 75.3503 14.7628C74.3455 15.5526 73.0494 15.9511 71.4621 15.9511C70.5811 15.9511 69.751 15.7833 69.0448 15.4967C68.2802 15.2171 67.6905 14.8187 67.1589 14.3084C66.6274 13.7982 66.2197 13.1761 65.9211 12.498C65.6299 11.7641 65.5061 11.0301 65.5061 10.1774C65.5061 9.27567 65.6226 8.47881 65.9211 7.74487C66.2124 7.01092 66.5692 6.3329 67.1007 5.76671C67.6322 5.20052 68.2802 4.8021 68.9865 4.46658C69.751 4.18698 70.5738 4.01223 71.5204 4.01223C72.2267 4.01223 72.8747 4.12407 73.5227 4.29183C74.1707 4.45959 74.7605 4.74618 75.2338 5.0817C75.7653 5.4242 76.1731 5.87156 76.4716 6.43775C76.7628 6.94801 76.9449 7.62604 77.0031 8.35998H73.8212C73.6975 7.01092 72.9329 6.3329 71.5204 6.3329ZM82.0636 12.9524C82.5368 13.4067 83.3014 13.6304 84.1824 13.6304C84.8304 13.6304 85.4202 13.4626 85.8935 13.1761C86.3667 12.8336 86.658 12.498 86.7745 12.1555H89.5996C89.1263 13.5116 88.42 14.4762 87.4808 15.0983C86.5415 15.6645 85.4202 16 84.0659 16C83.1266 16 82.2966 15.8322 81.532 15.5457C80.7675 15.2661 80.1777 14.8676 79.6462 14.3014C79.1147 13.7912 78.7069 13.1691 78.4666 12.4351C78.1754 11.7012 78.0516 10.9113 78.0516 10.0026C78.0516 9.15684 78.1681 8.35998 78.4666 7.62604C78.7579 6.89209 79.1729 6.26999 79.7044 5.7038C80.236 5.19353 80.884 4.73919 81.5903 4.45959C82.3548 4.17999 83.1776 4.00524 84.0659 4.00524C85.0707 4.00524 85.9517 4.173 86.658 4.57143C87.4225 4.96986 88.0123 5.41721 88.4856 6.09524C88.9589 6.71734 89.3084 7.45129 89.5486 8.24115C89.7816 9.03102 89.8399 9.88379 89.7816 10.7855H81.2408C81.2408 11.6523 81.5903 12.498 82.0636 12.9524ZM85.8352 7.01092C85.4202 6.6125 84.7722 6.38882 84.0076 6.38882C83.4761 6.38882 83.0684 6.50066 82.7116 6.66841C82.3548 6.83617 82.0636 7.06684 81.8888 7.29052C81.7141 7.5142 81.532 7.80079 81.4738 8.08039C81.4155 8.35998 81.3573 8.59065 81.3573 8.81433H86.658C86.4832 7.97554 86.1847 7.40935 85.8352 7.01092Z" fill="white"/>
</svg>
