<svg width="47" height="52" viewBox="0 0 47 52" fill="none" xmlns="http://www.w3.org/2000/svg">
<path fill-rule="evenodd" clip-rule="evenodd" d="M30.3359 11.519C27.2682 10.7085 24.0201 10.8503 21.0399 11.9231C18.0605 12.9956 15.5059 14.9415 13.7149 17.4793C11.9248 20.0158 10.981 23.0237 11.0003 26.0923C11.0196 29.1609 12.0012 32.1575 13.8235 34.6726C15.6468 37.1889 18.2261 39.104 21.2193 40.1403C24.2132 41.1768 27.4629 41.2789 30.5198 40.4312C32.9203 39.7654 35.1016 38.5421 36.8887 36.8848C37.6986 36.1337 38.9514 36.0027 39.8027 36.7066L45.1973 41.1673C46.0486 41.8712 46.1733 43.138 45.4063 43.9329C42.1457 47.3123 38.0195 49.7665 33.4594 51.0311C28.254 52.4747 22.7239 52.3018 17.6204 50.5349C12.5161 48.7677 8.07559 45.4874 4.91598 41.1267C1.75545 36.7648 0.0343401 31.5382 0.000508471 26.1615C-0.0333231 20.7848 1.62191 15.5372 4.72772 11.1365C7.83262 6.73713 12.2321 3.40265 17.3142 1.57323C22.3955 -0.255887 27.923 -0.495946 33.1458 0.884003C37.7212 2.0929 41.8776 4.49646 45.1801 7.83552C45.9568 8.62086 45.8478 9.88906 45.0054 10.6035L39.6665 15.1308C38.8241 15.8452 37.5698 15.7298 36.7507 14.9888C34.9423 13.3527 32.7451 12.1556 30.3359 11.519Z" fill="white"/>
<circle cx="27" cy="26" r="8.5" fill="white"/>
</svg>
