<svg width="127" height="126" viewBox="0 0 127 126" fill="none" xmlns="http://www.w3.org/2000/svg">
<path d="M65.1368 0L126.113 60.9761L126.045 125.226L0.887695 0.0672828L65.1368 0Z" fill="url(#paint0_linear_1042_5800)"/>
<path d="M43.7166 19.4316C42.6051 18.3201 42.0323 17.2467 41.9984 16.2115C41.9729 15.1678 42.4566 14.0817 43.4494 12.9531L45.0785 14.5823C44.51 15.2357 44.23 15.8211 44.2385 16.3387C44.2639 16.8563 44.5694 17.4079 45.1549 17.9934C45.7658 18.6043 46.3259 18.9352 46.835 18.9861C47.3526 19.0455 47.7768 18.9098 48.1078 18.5789C48.4387 18.2479 48.5702 17.8703 48.5023 17.4461C48.4345 17.0218 48.269 16.5678 48.0059 16.0842C47.7514 15.592 47.4586 15.0787 47.1277 14.5441C46.8053 14.001 46.5507 13.4495 46.364 12.8895C46.1774 12.3294 46.1222 11.7652 46.1986 11.1967C46.275 10.6281 46.5847 10.0724 47.1277 9.5293C47.4841 9.17292 47.8787 8.91412 48.3114 8.7529C48.7527 8.58319 49.2151 8.51955 49.6988 8.56198C50.1994 8.60441 50.7128 8.76987 51.2388 9.05837C51.7734 9.33838 52.3122 9.74992 52.8553 10.293C53.9414 11.3791 54.4972 12.4101 54.5226 13.3859C54.5651 14.3617 54.1408 15.3629 53.2499 16.3897L51.6207 14.7605C52.0874 14.2089 52.308 13.6998 52.2825 13.2331C52.2656 12.7749 51.9771 12.2658 51.417 11.7058C50.84 11.1288 50.3182 10.8191 49.8515 10.7766C49.3933 10.7257 49.0157 10.8488 48.7187 11.1457C48.4048 11.4597 48.286 11.8246 48.3623 12.2403C48.4472 12.6476 48.6211 13.0931 48.8842 13.5768C49.1472 14.0604 49.44 14.5738 49.7624 15.1169C50.0933 15.6514 50.3479 16.203 50.5261 16.7715C50.7128 17.3315 50.7594 17.9043 50.6661 18.4898C50.5812 19.0668 50.2546 19.6395 49.686 20.208C49.3042 20.5899 48.8842 20.8741 48.426 21.0608C47.9763 21.239 47.4968 21.3026 46.9877 21.2517C46.4871 21.2093 45.961 21.0396 45.4095 20.7426C44.8579 20.4456 44.2936 20.0086 43.7166 19.4316Z" fill="white"/>
<path d="M57.4545 15.1213L58.931 16.5978L55.8381 19.6907C56.7036 19.6737 57.5139 20.0428 58.2691 20.798C59.0498 21.5786 59.4231 22.4187 59.3892 23.3181C59.3722 24.2176 58.897 25.134 57.9637 26.0673L54.2726 29.7584L52.7961 28.282L56.4872 24.5909C56.9539 24.1242 57.1915 23.6575 57.2 23.1908C57.217 22.7326 57.0303 22.3084 56.64 21.918C56.1818 21.4598 55.6938 21.218 55.1762 21.1926C54.6671 21.1756 54.2004 21.3623 53.7762 21.7526L50.0214 25.5073L48.545 24.0309L57.4545 15.1213Z" fill="white"/>
<path d="M58.4244 34.1393C57.4655 33.1805 56.9861 32.158 56.9861 31.0719C56.9946 29.9943 57.4867 28.9676 58.4625 27.9917L58.8698 27.5845C59.3535 27.1008 59.8541 26.7359 60.3717 26.4899C60.8978 26.2523 61.4239 26.1335 61.95 26.1335C62.493 26.1335 63.0191 26.2523 63.5282 26.4899C64.0458 26.719 64.5422 27.0711 65.0174 27.5463C65.9763 28.5051 66.4514 29.5233 66.4429 30.601C66.4429 31.6871 65.955 32.7181 64.9792 33.6939L64.5719 34.1012C64.0883 34.5848 63.5834 34.9454 63.0573 35.183C62.5397 35.4291 62.0094 35.5521 61.4663 35.5521C60.9402 35.5521 60.4142 35.4333 59.8881 35.1958C59.3789 34.9582 58.891 34.606 58.4244 34.1393ZM59.799 32.7647C60.2826 33.2484 60.7917 33.4775 61.3263 33.452C61.8694 33.4351 62.4336 33.1338 63.0191 32.5483L63.4264 32.1411C64.0034 31.5641 64.2962 30.9998 64.3047 30.4482C64.3301 29.8967 64.1095 29.3876 63.6428 28.9209C63.1591 28.4372 62.6458 28.2039 62.1027 28.2209C61.5681 28.2463 61.0081 28.5518 60.4226 29.1373L60.0153 29.5446C59.4383 30.1216 59.1371 30.6858 59.1117 31.2374C59.1032 31.7889 59.3323 32.298 59.799 32.7647Z" fill="white"/>
<path d="M66.0841 41.7991C65.2865 41.0014 64.9173 40.1317 64.9767 39.1898L61.7948 42.3718L60.3183 40.8954L69.2279 31.9858L70.3861 33.1441L69.6606 34.1496C70.2122 34.0393 70.7382 34.0732 71.2389 34.2514C71.748 34.4381 72.2274 34.7563 72.6771 35.206C73.042 35.5709 73.3093 35.9739 73.479 36.4151C73.6657 36.8564 73.7378 37.3188 73.6954 37.8025C73.6614 38.2777 73.5129 38.7741 73.2499 39.2917C72.9953 39.8008 72.6135 40.3099 72.1044 40.819L71.6971 41.2263C71.188 41.7354 70.6789 42.1173 70.1697 42.3718C69.6606 42.6264 69.16 42.7706 68.6678 42.8046C68.1842 42.847 67.7217 42.7833 67.2805 42.6136C66.8477 42.4355 66.4489 42.1639 66.0841 41.7991ZM67.0132 39.979C67.4629 40.4287 67.9466 40.6408 68.4642 40.6154C68.9818 40.5899 69.5418 40.276 70.1443 39.6735L70.5516 39.2662C71.1371 38.6807 71.4425 38.1207 71.468 37.5861C71.4934 37.0515 71.2898 36.5679 70.857 36.1351C70.4498 35.7278 69.9746 35.5327 69.4315 35.5496C68.8969 35.5751 68.3539 35.8466 67.8023 36.3642L67.3187 36.8479C66.7587 37.4079 66.4617 37.968 66.4277 38.528C66.4108 39.088 66.6059 39.5717 67.0132 39.979Z" fill="white"/>
<path d="M76.4137 39.1716L77.8901 40.6481L71.5262 47.012L70.0497 45.5356L76.4137 39.1716ZM77.9156 39.1462C77.644 38.8747 77.504 38.5565 77.4956 38.1916C77.504 37.8267 77.644 37.5085 77.9156 37.237C78.1871 36.9655 78.5011 36.8297 78.8574 36.8297C79.2308 36.8297 79.5532 36.9655 79.8248 37.237C80.0878 37.5 80.2193 37.8182 80.2193 38.1916C80.2278 38.5565 80.0963 38.8746 79.8248 39.1462C79.5532 39.4177 79.2308 39.5535 78.8574 39.5535C78.4926 39.545 78.1786 39.4092 77.9156 39.1462Z" fill="white"/>
<path d="M78.9066 41.6645L80.0521 42.81L80.4975 42.3646C81.1764 41.6857 81.8722 41.3463 82.5849 41.3463C83.3062 41.3378 83.9977 41.6645 84.6596 42.3264L85.7796 43.4464L84.4814 44.7447L83.5904 43.8537C83.0474 43.3107 82.4746 43.3404 81.8722 43.9428L81.5285 44.2865L82.9795 45.7375L81.6812 47.0357L80.2303 45.5847L75.1646 50.6504L73.6881 49.174L78.7538 44.1083L77.6083 42.9628L78.9066 41.6645Z" fill="white"/>
<path d="M79.6859 55.1718L83.4916 46.2496L85.0953 47.8533L82.2697 54.1409L88.4555 51.2134L89.9828 52.7408L77.7004 58.2774L76.173 56.7501L79.6859 55.1718Z" fill="white"/>
<path d="M96.659 54.3258L99.7137 57.3805C100.91 58.5769 101.525 59.7012 101.559 60.7534C101.61 61.8056 101.16 62.8069 100.21 63.7572C99.3192 64.6482 98.3179 65.0724 97.2063 65.03C96.0948 64.9876 94.9705 64.3978 93.8334 63.2608L92.3061 61.7335L89.2768 64.7627L87.7495 63.2354L96.659 54.3258ZM96.8372 57.2023L93.6552 60.3843L95.1826 61.9117C95.7935 62.5226 96.396 62.8366 96.99 62.8535C97.5839 62.8705 98.1227 62.6371 98.6064 62.1535C99.1155 61.6444 99.3573 61.1056 99.3319 60.537C99.3234 59.9685 99.001 59.3661 98.3646 58.7297L96.8372 57.2023Z" fill="white"/>
<path d="M97.405 72.8909C96.7347 72.2205 96.3953 71.5248 96.3868 70.8035C96.3953 70.0823 96.7389 69.3822 97.4177 68.7034L104.227 61.894L105.704 63.3704L99.0469 70.0271C98.716 70.358 98.5463 70.672 98.5378 70.969C98.5293 71.266 98.6736 71.5629 98.9705 71.8599L99.2887 72.1781L97.9905 73.4764L97.405 72.8909Z" fill="white"/>
<path d="M101.187 76.9022C100.44 76.1555 100.08 75.3366 100.105 74.4457C100.139 73.5462 100.623 72.6298 101.556 71.6964L105.247 68.0054L106.724 69.4818L103.033 73.1729C102.566 73.6396 102.324 74.102 102.307 74.5602C102.29 75.0184 102.46 75.4257 102.816 75.7821C103.249 76.2149 103.716 76.4355 104.216 76.444C104.726 76.4609 105.192 76.2743 105.617 75.8839L109.371 72.1292L110.848 73.6056L104.484 79.9696L103.325 78.8114L103.911 77.9968C103.419 78.0307 102.939 77.9586 102.473 77.7804C102.014 77.5937 101.586 77.301 101.187 76.9022Z" fill="white"/>
<path d="M108.32 84.0353C107.446 83.1613 106.988 82.3212 106.946 81.5151C106.92 80.709 107.226 79.9199 107.862 79.1477L109.415 80.7006C109.118 81.1333 108.969 81.5024 108.969 81.8079C108.986 82.1134 109.177 82.4485 109.542 82.8134C109.975 83.2461 110.327 83.4795 110.599 83.5134C110.887 83.5474 111.133 83.4625 111.337 83.2589C111.566 83.0298 111.647 82.7625 111.579 82.457C111.519 82.16 111.388 81.8418 111.184 81.5024C110.989 81.1545 110.764 80.7939 110.509 80.4205C110.263 80.0387 110.068 79.6484 109.924 79.2496C109.788 78.8423 109.742 78.4307 109.784 78.015C109.843 77.5992 110.081 77.1834 110.497 76.7676C110.76 76.5046 111.057 76.3094 111.388 76.1821C111.719 76.0549 112.071 76.0167 112.444 76.0676C112.826 76.11 113.221 76.2415 113.628 76.4622C114.052 76.6828 114.481 77.0095 114.913 77.4422C115.728 78.2568 116.148 79.0587 116.173 79.8478C116.207 80.6284 115.919 81.3921 115.308 82.1388L113.755 80.586C114.035 80.1702 114.171 79.8223 114.162 79.5423C114.162 79.2708 114.005 78.978 113.691 78.6641C113.327 78.2992 113.008 78.0998 112.737 78.0659C112.474 78.0404 112.257 78.1125 112.088 78.2823C111.876 78.4944 111.808 78.7405 111.884 79.0205C111.977 79.3005 112.126 79.6102 112.33 79.9496C112.542 80.2805 112.771 80.6369 113.017 81.0188C113.271 81.3921 113.462 81.7867 113.59 82.2025C113.725 82.6098 113.755 83.0298 113.679 83.4625C113.611 83.9037 113.361 84.3407 112.928 84.7735C112.648 85.0535 112.334 85.2572 111.986 85.3844C111.647 85.5202 111.282 85.5626 110.891 85.5117C110.509 85.4693 110.098 85.3293 109.657 85.0917C109.232 84.8541 108.787 84.502 108.32 84.0353Z" fill="white"/>
<defs>
<linearGradient id="paint0_linear_1042_5800" x1="7.71817" y1="-4.84882e-05" x2="123.558" y2="8.7831" gradientUnits="userSpaceOnUse">
<stop stop-color="#98D528"/>
<stop offset="1" stop-color="#30AD37"/>
</linearGradient>
</defs>
</svg>
