<svg width="80" height="80" viewBox="0 0 80 80" fill="none" xmlns="http://www.w3.org/2000/svg">
<path fill-rule="evenodd" clip-rule="evenodd" d="M36.4364 26.5587C36.4364 32.0647 31.902 36.5992 26.396 36.5992C20.8899 36.5992 16.3555 32.0647 16.3555 26.5587C16.3555 21.0526 20.8899 16.5182 26.396 16.5182C32.064 16.5182 36.4364 21.0526 36.4364 26.5587" fill="white"/>
<path fill-rule="evenodd" clip-rule="evenodd" d="M63.6435 26.5587C63.6435 32.0647 59.1091 36.5992 53.603 36.5992C48.0969 36.5992 43.5625 32.0647 43.5625 26.5587C43.5625 21.0526 48.0969 16.5182 53.603 16.5182C59.1091 16.5182 63.6435 21.0526 63.6435 26.5587" fill="white"/>
<path fill-rule="evenodd" clip-rule="evenodd" d="M36.4364 53.4411C36.4364 58.9472 31.902 63.4816 26.396 63.4816C20.8899 63.4816 16.3555 58.9472 16.3555 53.4411C16.3555 47.935 20.8899 43.4006 26.396 43.4006C32.064 43.4006 36.4364 47.935 36.4364 53.4411" fill="white"/>
<path fill-rule="evenodd" clip-rule="evenodd" d="M63.6435 53.4411C63.6435 58.9472 59.1091 63.4816 53.603 63.4816C48.0969 63.4816 43.5625 58.9472 43.5625 53.4411C43.5625 47.935 48.0969 43.4006 53.603 43.4006C59.1091 43.4006 63.6435 47.935 63.6435 53.4411" fill="white"/>
<path fill-rule="evenodd" clip-rule="evenodd" d="M40 1.61934C18.9474 1.61934 1.61943 18.9473 1.61943 39.9999C1.61943 61.2145 18.7854 78.3805 40 78.3805C61.2146 78.3805 78.3806 61.2145 78.3806 39.9999C78.3806 18.9473 61.2146 1.61934 40 1.61934ZM40 80C17.9757 80 0 62.0243 0 40C0 17.9757 17.9757 0 40 0C62.0243 0 80 17.9757 80 40C80 62.0243 62.0243 80 40 80V80Z" fill="white"/>
<path fill-rule="evenodd" clip-rule="evenodd" d="M39.9992 2.75314C19.4324 2.75314 2.75224 19.4333 2.75224 40.0001C2.75224 60.5669 19.4324 77.2471 39.9992 77.2471C60.566 77.2471 77.2462 60.5669 77.2462 40.0001C77.2462 19.4333 60.566 2.75314 39.9992 2.75314ZM39.9992 78.8665C18.6227 78.8665 1.13281 61.3766 1.13281 40.0001C1.13281 18.6235 18.6227 1.13367 39.9992 1.13367C61.3757 1.13367 78.8656 18.6235 78.8656 40.0001C78.8656 61.5385 61.3757 78.8665 39.9992 78.8665V78.8665Z" fill="white"/>
</svg>
