<svg width="20" height="20" viewBox="0 0 20 20" fill="none" xmlns="http://www.w3.org/2000/svg">
<path d="M9.04894 1.42705C9.3483 0.505738 10.6517 0.50574 10.9511 1.42705L12.5819 6.4463C12.7158 6.85833 13.0997 7.13729 13.533 7.13729H18.8105C19.7792 7.13729 20.182 8.3769 19.3983 8.9463L15.1287 12.0484C14.7782 12.303 14.6315 12.7544 14.7654 13.1664L16.3963 18.1857C16.6956 19.107 15.6411 19.8731 14.8574 19.3037L10.5878 16.2016C10.2373 15.947 9.7627 15.947 9.41221 16.2016L5.14258 19.3037C4.35887 19.8731 3.30439 19.107 3.60374 18.1857L5.2346 13.1664C5.36847 12.7544 5.22181 12.303 4.87132 12.0484L0.60169 8.9463C-0.182023 8.3769 0.220754 7.13729 1.18948 7.13729H6.46703C6.90026 7.13729 7.28421 6.85833 7.41809 6.4463L9.04894 1.42705Z" fill="white"/>
</svg>
