<svg width="24" height="24" viewBox="0 0 24 24" fill="none" xmlns="http://www.w3.org/2000/svg">
<path d="M11.0489 2.42705C11.3483 1.50574 12.6517 1.50574 12.9511 2.42705L14.5819 7.4463C14.7158 7.85833 15.0997 8.13729 15.533 8.13729H20.8105C21.7792 8.13729 22.182 9.3769 21.3983 9.9463L17.1287 13.0484C16.7782 13.303 16.6315 13.7544 16.7654 14.1664L18.3963 19.1857C18.6956 20.107 17.6411 20.8731 16.8574 20.3037L12.5878 17.2016C12.2373 16.947 11.7627 16.947 11.4122 17.2016L7.14258 20.3037C6.35887 20.8731 5.30439 20.107 5.60374 19.1857L7.2346 14.1664C7.36847 13.7544 7.22181 13.303 6.87132 13.0484L2.60169 9.9463C1.81798 9.3769 2.22075 8.13729 3.18948 8.13729H8.46703C8.90026 8.13729 9.28421 7.85833 9.41809 7.4463L11.0489 2.42705Z" fill="#7D8488"/>
<mask id="mask0_731_4681" style="mask-type:alpha" maskUnits="userSpaceOnUse" x="2" y="1" width="20" height="20">
<path d="M11.0489 2.42705C11.3483 1.50574 12.6517 1.50574 12.9511 2.42705L14.5819 7.4463C14.7158 7.85833 15.0997 8.13729 15.533 8.13729H20.8105C21.7792 8.13729 22.182 9.3769 21.3983 9.9463L17.1287 13.0484C16.7782 13.303 16.6315 13.7544 16.7654 14.1664L18.3963 19.1857C18.6956 20.107 17.6411 20.8731 16.8574 20.3037L12.5878 17.2016C12.2373 16.947 11.7627 16.947 11.4122 17.2016L7.14258 20.3037C6.35887 20.8731 5.30439 20.107 5.60374 19.1857L7.2346 14.1664C7.36847 13.7544 7.22181 13.303 6.87132 13.0484L2.60169 9.9463C1.81798 9.3769 2.22075 8.13729 3.18948 8.13729H8.46703C8.90026 8.13729 9.28421 7.85833 9.41809 7.4463L11.0489 2.42705Z" fill="#67C22F"/>
</mask>
<g mask="url(#mask0_731_4681)">
<rect x="1.5" y="1.5" width="10.5" height="19" fill="#67C22F"/>
</g>
</svg>
