<svg width="230" height="230" viewBox="0 0 230 230" fill="none" xmlns="http://www.w3.org/2000/svg">
<path d="M123 127L103.3 123.5C103.2 123.5 103.1 123.4 103 123.3C103 123.2 102.9 123.1 102.9 123L106.4 103.3C106.4 103.2 106.5 103.1 106.6 103C106.7 103 106.8 102.9 106.9 102.9L126.6 106.4C126.8 106.4 127 106.7 126.9 106.9L123.4 126.6C123.4 126.7 123.3 126.8 123.2 126.9C123.2 127 123.1 127 123 127ZM103.7 123L122.9 126.4L126.3 107.2L107.1 103.8L103.7 123Z" fill="#343538"/>
<path d="M122.6 128.8H122.5L101.5 123.2C101.3 123.1 101.1 122.9 101.2 122.7L106.8 101.7C106.8 101.6 106.9 101.5 107 101.4C107.1 101.4 107.2 101.3 107.3 101.4L128.3 107C128.5 107.1 128.7 107.3 128.6 107.5L123 128.5C123 128.6 122.9 128.7 122.8 128.8C122.8 128.7 122.7 128.8 122.6 128.8ZM101.9 122.6L122.4 128.1L127.9 107.6L107.4 102.1L101.9 122.6Z" fill="#343538"/>
<path d="M122 130.6C121.9 130.6 121.9 130.6 121.9 130.6L99.7001 122.5C99.6001 122.5 99.5001 122.4 99.5001 122.3C99.5001 122.2 99.4001 122.1 99.5001 122L107.6 99.8C107.6 99.7 107.7 99.6 107.8 99.6C107.9 99.6 108 99.6 108.1 99.6L130.3 107.7C130.4 107.7 130.5 107.8 130.5 107.9C130.5 108 130.5 108.1 130.5 108.2L122.4 130.4C122.4 130.5 122.3 130.6 122.2 130.6C122.2 130.6 122.1 130.6 122 130.6ZM100.1 122L121.9 129.9L129.8 108.1L108 100.2L100.1 122Z" fill="#343538"/>
<path d="M121.2 132.5C121.1 132.5 121.1 132.5 121 132.5L97.7 121.6C97.5 121.5 97.4 121.2 97.5 121L108.4 97.7C108.4 97.6 108.6 97.5 108.6 97.5C108.7 97.5 108.8 97.5 108.9 97.5L132.2 108.4C132.3 108.4 132.4 108.6 132.4 108.6C132.4 108.7 132.4 108.8 132.4 108.9L121.5 132.2C121.5 132.3 121.3 132.4 121.3 132.4C121.3 132.5 121.2 132.5 121.2 132.5ZM98.2 121.1L121.1 131.8L131.8 108.9L108.9 98.2L98.2 121.1Z" fill="#343538"/>
<path d="M120.1 134.5C120 134.5 119.9 134.5 119.9 134.4L95.7 120.4C95.5 120.3 95.4 120 95.5 119.8L109.5 95.6C109.6 95.4 109.9 95.3 110.1 95.4L134.3 109.4C134.5 109.5 134.6 109.8 134.5 110L120.5 134.2C120.4 134.3 120.3 134.4 120.2 134.4C120.1 134.5 120.1 134.5 120.1 134.5ZM96.2 120.1L120 133.8L133.7 110L109.9 96.3L96.2 120.1Z" fill="#343538"/>
<path d="M118.7 136.6C118.6 136.6 118.5 136.6 118.4 136.5L93.5001 119.1C93.4001 119 93.3 118.9 93.3 118.8C93.3 118.7 93.3001 118.6 93.4001 118.5L110.8 93.6C110.9 93.4 111.2 93.3 111.4 93.5L136.3 110.9C136.5 111 136.6 111.3 136.4 111.5L119 136.4C119 136.5 118.9 136.6 118.7 136.6ZM94.1 118.7L118.6 135.9L135.8 111.4L111.3 94.2L94.1 118.7Z" fill="#343538"/>
<path d="M117 138.7C116.9 138.7 116.8 138.7 116.7 138.6L91.4001 117.4C91.3001 117.3 91.2001 117.2 91.2001 117.1C91.2001 117 91.2001 116.9 91.3001 116.8L112.5 91.5C112.6 91.4 112.7 91.3 112.8 91.3C112.9 91.3 113 91.3 113.1 91.4L138.4 112.6C138.5 112.7 138.6 112.8 138.6 112.9C138.6 113 138.6 113.1 138.5 113.2L117.3 138.5C117.3 138.7 117.1 138.7 117 138.7ZM92.0001 117.1L117 138L137.9 113L112.9 92.1L92.0001 117.1Z" fill="#343538"/>
<path d="M115 140.9C114.9 140.9 114.8 140.9 114.7 140.8L89.4001 115.5C89.3001 115.4 89.3 115.3 89.3 115.2C89.3 115.1 89.3001 115 89.4001 114.9L114.7 89.6C114.9 89.4 115.2 89.4 115.4 89.6L140.7 114.9C140.8 115 140.8 115.1 140.8 115.2C140.8 115.3 140.8 115.4 140.7 115.5L115.4 140.8C115.2 140.8 115.1 140.9 115 140.9ZM89.9001 115L115 140.1L140.1 115L115 89.9L89.9001 115Z" fill="#343538"/>
<path d="M112.6 143C112.5 143 112.5 143 112.6 143C112.4 143 112.3 142.9 112.2 142.8L87.2001 113C87.0001 112.8 87.1001 112.5 87.3001 112.3L117.1 87.3C117.2 87.2 117.3 87.2 117.5 87.2C117.6 87.2 117.7 87.3 117.8 87.4L142.8 117.2C143 117.4 142.9 117.7 142.7 117.9L112.9 142.9C112.8 142.9 112.7 143 112.6 143ZM87.8001 112.7L112.6 142.3L142.2 117.5L117.4 87.9L87.8001 112.7Z" fill="#343538"/>
<path d="M109.8 145C109.7 145 109.7 145 109.8 145C109.6 145 109.5 144.9 109.4 144.8L85.1 110.1C85 110 85.0001 109.9 85.0001 109.7C85.0001 109.6 85.1 109.5 85.2 109.4L119.9 85.1C120 85 120.1 85 120.3 85C120.4 85 120.5 85.1 120.6 85.2L144.9 119.9C145 120 145 120.1 145 120.3C145 120.4 144.9 120.5 144.8 120.6L110.1 144.9C110 145 109.9 145 109.8 145ZM85.7 109.9L109.8 144.3L144.2 120.2L120.1 85.8L85.7 109.9Z" fill="#343538"/>
<path d="M106.5 147H106.4C106.3 147 106.2 146.9 106.1 146.8L83.1 106.9C83 106.7 83 106.3 83.3 106.2L123.2 83.2C123.3 83.1 123.5 83.1 123.6 83.1C123.7 83.1 123.8 83.2 123.9 83.3L146.9 123.2C147 123.4 147 123.8 146.7 123.9L106.8 146.9C106.7 147 106.6 147 106.5 147ZM83.7 106.7L106.6 146.3L146.2 123.4L123.3 83.8L83.7 106.7Z" fill="#343538"/>
<path d="M102.9 148.8C102.8 148.8 102.8 148.8 102.7 148.8C102.6 148.8 102.5 148.7 102.4 148.5L81.2 103.2C81.1 102.9 81.2001 102.6 81.5001 102.5L126.8 81.4C126.9 81.3 127.1 81.3 127.2 81.4C127.3 81.4 127.4 81.5 127.5 81.7L148.6 127C148.7 127.3 148.6 127.6 148.3 127.7L103 148.8H102.9ZM81.9 103L102.9 148.1L148 127.1L127 82L81.9 103ZM126.9 81.8C126.9 81.8 126.9 81.9 126.9 81.8V81.8Z" fill="#343538"/>
<path d="M98.7002 150.4C98.6002 150.4 98.5002 150.4 98.5002 150.3C98.4002 150.2 98.3002 150.1 98.2002 150L79.6002 98.9C79.6002 98.8 79.6002 98.6 79.6002 98.5C79.7002 98.4 79.8002 98.3 79.9002 98.2L131 79.6C131.1 79.6 131.3 79.6 131.4 79.6C131.5 79.7 131.6 79.8 131.7 79.9L150.3 131C150.4 131.3 150.3 131.6 150 131.7L98.9002 150.3C98.8002 150.4 98.8002 150.4 98.7002 150.4ZM80.2002 98.9L98.7002 149.8L149.6 131.3L131.1 80.4L80.2002 98.9Z" fill="#343538"/>
<path d="M94.1 151.8C93.9 151.8 93.6 151.6 93.6 151.4L78.3001 94.3C78.2001 94 78.4001 93.7 78.7001 93.6L135.8 78.3C135.9 78.3 136.1 78.3 136.2 78.4C136.3 78.5 136.4 78.6 136.5 78.7L151.8 135.8C151.9 136.1 151.7 136.4 151.4 136.5L94.3001 151.8C94.2001 151.8 94.1 151.8 94.1 151.8ZM78.9001 94.2L94.2001 151.1L151.1 135.8L135.8 79L78.9001 94.2Z" fill="#343538"/>
<path d="M88.9001 152.8C88.6001 152.8 88.4001 152.6 88.3001 152.3L77.1001 89C77.0001 88.7 77.3001 88.4 77.6001 88.3L140.9 77.1C141.2 77 141.5 77.3 141.6 77.6L152.8 140.9C152.8 141.1 152.8 141.2 152.7 141.3C152.6 141.4 152.5 141.5 152.3 141.5L89.0001 152.7C89.0001 152.8 88.9001 152.8 88.9001 152.8ZM77.8001 89L88.9001 152.1L152 141L140.9 77.9L77.8001 89Z" fill="#343538"/>
<path d="M83.2 153.5C83.1 153.5 82.9 153.5 82.8 153.4C82.7 153.3 82.6 153.1 82.6 153L76.5 83.4C76.5 83.1 76.7 82.8 77.1 82.7L146.7 76.6C146.9 76.6 147 76.6 147.1 76.7C147.2 76.8 147.3 77 147.3 77.1L153.4 146.7C153.4 147 153.2 147.3 152.8 147.4L83.2 153.5C83.2 153.5 83.3 153.5 83.2 153.5ZM146.7 77.3L77.2 83.4L83.3 152.9L152.8 146.8L146.7 77.3Z" fill="#343538"/>
<path d="M152.9 153.6H77C76.7 153.6 76.4 153.3 76.4 153V77.1C76.4 76.8 76.7 76.5 77 76.5H152.9C153.2 76.5 153.5 76.8 153.5 77.1V153C153.6 153.3 153.3 153.6 152.9 153.6ZM77 77.1V153H152.9V77.1H77Z" fill="#343538"/>
<path d="M152.5 160.4C152.4 160.4 152.4 160.4 152.5 160.4L70.2002 153.2C69.8002 153.2 69.6002 152.8 69.6002 152.5L76.8002 70.3C76.8002 69.9 77.2002 69.7 77.5002 69.7L159.7 76.9C160.1 76.9 160.3 77.3 160.3 77.6L153.1 159.8C153.1 160.1 152.8 160.4 152.5 160.4ZM77.5002 70.3L70.3002 152.5L152.5 159.7L159.7 77.5L77.5002 70.3Z" fill="#343538"/>
<path d="M151.3 167.7H151.2L62.9 152.1C62.7 152.1 62.6 152 62.5 151.8C62.4 151.7 62.4 151.5 62.4 151.3L78 63C78.1 62.6 78.4 62.4 78.8 62.4L167.1 78C167.3 78 167.4 78.1 167.5 78.3C167.6 78.4 167.6 78.6 167.6 78.8L152 167.1C152 167.3 151.9 167.4 151.7 167.5C151.6 167.6 151.5 167.7 151.3 167.7ZM78.6 63.1L63 151.5L151.4 167.1L167 78.7L78.6 63.1Z" fill="#343538"/>
<path d="M149.4 175.5C149.3 175.5 149.3 175.5 149.2 175.5L55.1002 150.2C54.9002 150.2 54.8002 150 54.7002 149.9C54.6002 149.7 54.6002 149.5 54.6002 149.4L79.8002 55.2C79.8002 55 80.0002 54.9 80.1002 54.8C80.3002 54.7 80.5002 54.7 80.6002 54.7L174.8 79.9C175 79.9 175.1 80.1 175.2 80.2C175.3 80.4 175.3 80.6 175.3 80.7L150.1 174.9C150.1 175.1 149.9 175.2 149.8 175.3C149.7 175.4 149.6 175.5 149.4 175.5ZM80.5002 55.3C80.5002 55.3 80.4002 55.3 80.5002 55.3L55.2002 149.5V149.6L149.4 174.8H149.5L174.7 80.6V80.5L80.5002 55.3Z" fill="#343538"/>
<path d="M146.6 183.7C146.5 183.7 146.4 183.7 146.3 183.7L46.8 147.4C46.4 147.3 46.2 146.8 46.4 146.4L82.6 46.8C82.7 46.6 82.8 46.5 83 46.4C83.2 46.3 83.4 46.3 83.6 46.4L183.2 82.6C183.6 82.7 183.8 83.2 183.6 83.6L147.3 183.2C147.2 183.5 146.9 183.7 146.6 183.7ZM83.3 47C83.3 47 83.2 47.1 83.3 47L47 146.6C47 146.6 47 146.7 47.1 146.7L146.7 182.9C146.8 182.9 146.8 182.9 146.8 182.8L183 83.2C183 83.1 183 83.1 182.9 83.1L83.3 47Z" fill="#343538"/>
<path d="M142.8 192.4C142.7 192.4 142.6 192.4 142.5 192.3L38.1 143.6C37.7 143.4 37.5 142.9 37.7 142.6L86.4001 38.2C86.6001 37.8 87.1001 37.6 87.4001 37.8L191.8 86.5C192 86.6 192.1 86.7 192.2 86.9C192.3 87.1 192.3 87.3 192.2 87.5L143.5 191.9C143.4 192.2 143.1 192.4 142.8 192.4ZM87.1 38.4C87 38.4 87.0001 38.4 87.0001 38.5L38.3001 142.9C38.3001 143 38.3001 143 38.4001 143.1L142.8 191.7C142.9 191.7 142.9 191.7 143 191.6L191.6 87.2C191.6 87.1 191.6 87 191.5 87L87.1 38.4Z" fill="#343538"/>
<path d="M137.9 201.4C137.8 201.4 137.6 201.4 137.5 201.3L29.1001 138.7C28.7001 138.5 28.6001 138 28.8001 137.6L91.4001 29.2C91.5001 29 91.7001 28.9 91.9001 28.8C92.1001 28.7 92.3001 28.8 92.5001 28.9L200.9 91.5C201.1 91.6 201.2 91.8 201.3 92C201.4 92.2 201.3 92.4 201.2 92.6L138.6 201C138.5 201.2 138.3 201.3 138.1 201.4C138 201.4 137.9 201.4 137.9 201.4ZM92.1001 29.4C92.0001 29.4 92.0001 29.4 91.9001 29.5L29.3001 137.9C29.3001 138 29.3001 138.1 29.4001 138.1L137.8 200.7H137.9C137.9 200.7 138 200.7 138 200.6L200.6 92.2V92.1C200.6 92.1 200.6 92 200.5 92L92.1001 29.4Z" fill="#343538"/>
<path d="M131.7 210.7C131.5 210.7 131.4 210.6 131.2 210.5L19.7 132.4C19.5 132.3 19.4 132.1 19.3 131.8C19.3 131.6 19.3001 131.3 19.4001 131.1L97.5001 19.6C97.6001 19.4 97.8 19.3 98.1 19.2C98.3 19.2 98.6 19.2 98.8 19.3L210.3 97.4C210.5 97.5 210.6 97.7 210.7 98C210.7 98.2 210.7 98.5 210.6 98.7L132.5 210.2C132.4 210.4 132.2 210.5 131.9 210.6C131.8 210.7 131.7 210.7 131.7 210.7ZM98.3 20.1C98.2 20.1 98.2 20.1 98.3 20.1C98.2 20.1 98.2 20.1 98.1 20.2L20.0001 131.7C20.0001 131.7 20.0001 131.8 20.0001 131.9C20.0001 132 20 132 20.1 132L131.6 210.1C131.6 210.1 131.7 210.1 131.8 210.1C131.9 210.1 131.9 210.1 131.9 210L210 98.5C210 98.5 210 98.4 210 98.3C210 98.2 210 98.2 209.9 98.2L98.4001 20.1C98.3001 20.1 98.3 20.1 98.3 20.1Z" fill="#343538"/>
<path d="M124.1 220.2C123.9 220.2 123.7 220.1 123.5 220L10.2001 124.9C9.80008 124.6 9.80007 124 10.1001 123.6L105.2 10.3C105.5 9.89999 106.1 9.89999 106.5 10.2L219.8 105.2C220.2 105.5 220.2 106.1 219.9 106.5L124.8 219.8C124.6 220 124.4 220.1 124.1 220.2ZM105.8 10.6C105.7 10.6 105.6 10.6 105.6 10.7L10.5001 124C10.4001 124.1 10.4001 124.3 10.5001 124.4L123.8 219.5C123.9 219.5 123.9 219.6 124 219.6C124.1 219.6 124.1 219.6 124.2 219.5L219.3 106.2C219.4 106.1 219.4 105.9 219.3 105.8L106 10.7C106 10.6 105.9 10.6 105.8 10.6Z" fill="#343538"/>
<path d="M115 229.7C114.7 229.7 114.5 229.6 114.3 229.4L0.600049 115.7C0.200049 115.3 0.200049 114.7 0.600049 114.3L114.3 0.599988C114.7 0.199988 115.3 0.199988 115.7 0.599988L229.4 114.3C229.8 114.7 229.8 115.3 229.4 115.7L229.2 115.5L229.4 115.7L115.6 229.4C115.5 229.6 115.2 229.7 115 229.7ZM115 0.999982C114.9 0.999982 114.8 0.999988 114.8 1.09999L1.00007 114.8C0.900073 114.9 0.900067 114.9 0.900067 115C0.900067 115.1 0.900073 115.2 1.00007 115.2L114.7 228.9C114.8 229 115 229 115.1 228.9L228.8 115.2C228.9 115.1 228.9 115.1 228.9 115C228.9 114.9 228.9 114.8 228.8 114.8L115.2 1.09999C115.1 1.09999 115 0.999982 115 0.999982Z" fill="#343538"/>
</svg>
