<svg width="230" height="230" viewBox="0 0 230 230" fill="none" xmlns="http://www.w3.org/2000/svg">
<path d="M74.773 134.108C73.5647 134.791 72.3277 135.036 71.1987 134.877C69.1132 134.463 67.6464 132.558 67.2226 129.494L62.3955 96.6781C61.6987 92.1733 63.4545 86.1664 66.641 82.1981C68.4178 79.9392 70.4748 78.5471 72.3807 78.266L96.2717 75.4542C97.8683 75.2342 99.2994 75.9055 100.241 77.3093C102.513 80.5808 102.001 87.1369 99.1383 92.6312L79.988 128.308C78.5492 130.945 76.6718 133.033 74.773 134.108ZM70.4602 79.6947C69.3382 80.3298 68.2809 81.27 67.2523 82.6497C64.2383 86.5203 62.5545 92.2586 63.1506 96.5926L67.9778 129.408C68.4232 132.119 69.516 133.779 71.3283 134.12C73.91 134.596 77.0603 132.129 79.2905 127.905L98.4407 92.2284C101.584 86.2335 101.42 80.288 99.6874 77.7367C98.8965 76.5892 97.7891 76.0766 96.5017 76.2355L72.6107 79.0473C71.8052 79.0475 71.1507 79.304 70.4602 79.6947Z" fill="#343538"/>
<path d="M75.9922 137.736C74.8703 138.371 73.6838 138.701 72.5548 138.543C70.3472 138.311 68.7079 136.505 68.0109 133.367L60.4447 99.0291C58.6771 91.1434 63.9284 79.7408 70.0123 78.3482L95.944 72.5577C97.749 72.1057 99.2662 72.7281 100.431 74.1196C103.098 77.2809 103.025 84.3856 100.241 90.4043L81.8757 130.533C80.3075 133.927 78.236 136.467 75.9922 137.736ZM68.5379 79.7522C63.705 82.4875 59.7268 92.1442 61.2358 98.8093L68.802 133.148C69.384 135.894 70.786 137.493 72.634 137.7C75.4744 138.03 78.941 134.928 81.1782 130.13L99.5437 90.0016C102.644 83.348 102.005 76.988 99.8772 74.5469C98.9497 73.3629 97.6698 72.9481 96.174 73.339L70.2422 79.1294C69.6238 79.2516 69.0557 79.4592 68.5379 79.7522Z" fill="#343538"/>
<path d="M77.5709 141.388C76.5354 141.974 75.4352 142.255 74.407 142.267C72.027 142.133 70.2154 140.425 69.2956 137.3L58.473 101.733C55.9721 93.5793 60.914 80.8718 67.4361 78.6614L95.3793 69.4534C97.3064 68.8183 99.032 69.2087 100.47 70.6732C103.583 73.8097 103.97 81.109 101.33 87.9572L84.0725 132.696C82.5115 136.883 80.0734 139.972 77.5709 141.388ZM66.4939 79.992C61.0575 83.0689 57.0937 94.3115 59.2639 101.513L70.0865 137.08C70.8914 139.814 72.5161 141.401 74.4 141.474C77.0892 141.547 80.8933 138.824 83.3391 132.428L100.51 87.7376C103.344 80.4378 102.281 73.7489 99.7939 71.2837C98.6436 70.112 97.1912 69.7949 95.523 70.2834L67.5797 79.4914C67.3208 79.6379 66.9254 79.7478 66.4939 79.992Z" fill="#343538"/>
<path d="M79.6087 145.233C78.6595 145.77 77.6098 146.137 76.5816 146.149C74.0796 146.198 72.0955 144.587 70.8163 141.439L56.5798 104.96C53.2595 96.5874 57.7555 82.5385 64.7156 79.5105L94.6917 66.5316C96.7769 65.5793 98.8115 65.9085 100.422 67.2752C103.98 70.387 104.791 78.0151 102.453 85.3752L86.8504 134.87C85.16 139.813 82.5423 143.573 79.6087 145.233ZM64.2913 80.548C58.1651 84.0153 54.3163 97.0144 57.3203 104.654L71.5569 141.133C72.6349 143.941 74.3817 145.344 76.438 145.319C79.4721 145.197 83.506 141.888 85.8943 134.614L101.497 85.1191C104.015 77.0876 102.406 70.253 99.6955 67.8001C98.3224 66.6409 96.6473 66.336 94.821 67.1418L64.8449 80.1207C64.809 80.255 64.5501 80.4015 64.2913 80.548Z" fill="#343538"/>
<path d="M82.0421 148.967C81.1793 149.455 80.216 149.773 79.2382 149.87C76.6142 150.103 74.3715 148.639 72.8696 145.502L54.616 108.454C50.3904 99.9121 54.2175 84.5345 61.6516 80.5549L93.444 63.2446C95.7734 61.9262 97.9301 62.0723 99.8996 63.4633C103.853 66.4648 105.174 74.3728 103.189 82.33L89.6501 136.689C88.2904 142.583 85.4068 147.063 82.0421 148.967ZM61.9678 81.2871C55.152 85.1446 51.519 100.071 55.4428 108.1L73.6964 145.148C75.0834 147.894 77.0529 149.285 79.2312 149.077C83.2283 148.637 87.2334 143.523 88.9672 136.506L102.506 82.1471C104.621 73.4331 102.602 66.4894 99.4466 64.0614C97.8006 62.829 95.9171 62.7561 93.9327 63.8792L62.1403 81.1894C62.0541 81.2383 62.0541 81.2383 61.9678 81.2871Z" fill="#343538"/>
<path d="M85.0105 152.628C84.2342 153.067 83.4075 153.421 82.5665 153.555C79.871 154.056 77.3197 152.653 75.5592 149.664L52.9602 112.464C47.7937 103.887 50.9017 87.0963 58.6222 82.0434L92.1136 60.0134L92.3148 60.355L92.1136 60.0134C94.6009 58.378 97.1885 58.2799 99.2942 59.7072C103.729 62.5496 105.682 70.5537 104.099 79.193L93.1207 138.472C91.9048 145.195 88.7198 150.528 85.0105 152.628ZM92.9833 60.3183C92.8108 60.416 92.6383 60.5136 92.4657 60.6113L58.9743 82.6412C51.6851 87.45 48.5988 103.887 53.6 111.988L76.199 149.188C77.8085 151.921 79.9862 153.08 82.4229 152.726C86.8004 151.956 90.884 146.001 92.3876 138.204L103.366 78.9247C105.043 69.6631 102.428 62.4887 98.9276 60.2563C97.1093 59.1219 95.0536 59.1466 92.9833 60.3183Z" fill="#343538"/>
<path d="M88.3824 156.408C87.6924 156.799 87.0383 157.055 86.3339 157.226C83.4301 157.959 80.6704 156.788 78.601 153.86L51.2385 116.968C44.9583 108.453 47.1751 90.3456 55.2187 84.0851L90.3331 56.8097C93.0143 54.7229 95.8964 54.3441 98.4477 55.7469C103.277 58.4791 105.913 66.6657 104.805 75.7192L97.0531 139.887C96.0814 147.61 92.6952 153.967 88.3824 156.408ZM90.5702 57.0171L90.8577 57.3099L55.7433 84.5852C48.0807 90.5163 45.9358 108.355 51.9142 116.358L79.2767 153.25C81.2815 155.873 83.6315 156.934 86.2262 156.262C91.1569 155.066 95.2692 148.184 96.32 139.618L104.072 75.4509C105.108 66.6659 102.673 58.8209 98.1673 56.2472C95.9395 55.003 93.3664 55.3207 91.0302 57.2122L90.5702 57.0171Z" fill="#343538"/>
<path d="M92.3575 159.849C91.84 160.142 91.2722 160.349 90.7907 160.508C87.729 161.557 84.7107 160.533 82.2102 157.849L49.6318 121.863C42.116 113.593 43.2549 94.0475 51.6575 86.4453L88.093 53.4127C90.9178 50.7892 94.231 50.1664 97.0911 51.508C102.351 53.996 105.67 62.3649 105.173 71.8691L101.229 140.936C100.861 149.684 97.2737 157.066 92.3575 159.849ZM88.3803 53.7055L88.6678 53.9982L52.2324 87.0308C44.2969 94.2547 43.1796 113.446 50.3075 121.253L82.8859 157.239C85.1995 159.801 87.8944 160.667 90.5609 159.727C95.944 157.933 99.9987 150.172 100.46 140.802L104.404 71.7351C104.966 62.5358 101.848 54.5085 96.7747 52.1424C94.1015 50.9228 91.3201 51.4723 88.6175 53.9128L88.3803 53.7055Z" fill="#343538"/>
<path d="M96.9501 163.167C96.6051 163.362 96.3463 163.508 95.9511 163.618C92.7313 164.985 89.3826 164.376 86.4367 161.717L48.4127 127.222C44.5183 123.733 42.0976 117.475 41.833 109.997C41.4752 101.774 43.8696 93.9292 48.1391 89.4634L85.6803 50.1128L85.9678 50.4055L85.6803 50.1128C88.7351 46.9037 92.2925 45.9149 95.7345 47.2685C101.562 49.549 105.499 57.7954 105.612 67.7504L106.267 141.498C106.194 151.331 102.47 160.043 96.9501 163.167ZM88.7995 48.5751C87.8508 49.112 87.0027 49.8198 86.1186 50.6617L48.5774 90.0123C44.5164 94.2463 42.1579 101.957 42.5014 109.96C42.7876 117.085 45.2083 123.343 48.8655 126.624L86.9758 161.07C89.6846 163.522 92.674 164.107 95.5847 162.801C101.37 160.323 105.267 151.514 105.24 141.511L104.585 67.7628C104.5 58.2469 100.614 50.0859 95.2458 48.0006C93.1331 47.147 90.9556 47.3547 88.7995 48.5751Z" fill="#343538"/>
<path d="M102.145 166.145C102.058 166.194 101.972 166.242 101.972 166.242C98.5586 168.061 94.9154 167.732 91.5384 165.317L47.3218 133.192C42.9605 130.081 39.9219 123.946 38.9388 116.419C37.7691 107.404 39.7827 98.5226 44.2174 93.1664L82.4765 47.0348C85.7108 43.1549 89.6849 41.7026 93.6585 42.9828C100.003 44.9702 104.745 53.2161 105.505 63.4877L111.412 141.659C112.215 152.59 108.44 162.581 102.145 166.145ZM82.7136 47.2421L83.001 47.5349L44.7419 93.6665C40.4294 98.8397 38.4517 107.587 39.6071 116.382C40.5759 123.689 43.4636 129.569 47.6381 132.557L91.8547 164.682C94.9945 166.89 98.3288 167.28 101.433 165.523C107.607 162.142 111.309 152.419 110.521 141.708L104.563 63.4513C103.782 53.5335 99.2775 45.4949 93.256 43.6661C89.6058 42.5443 85.9406 43.9356 82.9507 47.4495L82.7136 47.2421Z" fill="#343538"/>
<path d="M107.892 168.697C104.529 170.601 100.728 170.589 97.1066 168.54L46.4819 139.589C41.6537 136.857 37.9613 130.978 36.2597 123.403C34.0698 113.827 35.6524 103.824 40.2883 97.4435L78.8272 43.9822L79.2009 44.2262L78.8272 43.9822C82.1909 39.3461 86.5314 37.3448 91.2091 38.4541C98.071 40.1486 103.552 48.089 105.095 58.7139L117.181 141.126C118.868 152.581 115.352 163.792 108.668 168.258C108.41 168.404 108.151 168.551 107.892 168.697ZM83.9944 40.2607C82.3559 41.1881 80.8826 42.5912 79.4882 44.5188L40.9493 97.9801C36.4356 104.178 35.0111 113.864 37.1005 123.269C38.7375 130.539 42.3292 136.247 46.8844 138.906L97.5091 167.857C101.13 169.906 104.795 169.881 108.18 167.623C114.655 163.389 118.012 152.495 116.34 141.261L104.254 58.8482C102.74 48.6625 97.3955 40.7586 90.9431 39.1739C88.5863 38.6863 86.2365 38.9917 83.9944 40.2607Z" fill="#343538"/>
<path d="M114.415 170.81C111.052 172.714 107.352 172.873 103.623 171.227L46.2025 146.352C40.9074 143.999 36.475 138.425 34.055 130.802C30.8593 120.885 31.738 109.687 36.3523 102.294L74.6969 41.0891C78.1397 35.6116 83.0692 33.0491 88.3143 33.9509C95.7293 35.2182 102.051 43.024 104.363 53.7824L123.438 139.862C126.095 151.792 123.132 163.941 116.161 169.481C115.709 170.078 115.019 170.469 114.415 170.81ZM75.0346 41.4672L75.4081 41.7111L37.0635 102.916C32.5714 110.126 31.6281 121.019 34.8094 130.716C37.1649 138.035 41.4104 143.487 46.5187 145.718L103.939 170.593C108.128 172.434 112.159 171.86 115.774 169.017C122.486 163.624 125.29 151.792 122.698 140.167L103.623 54.0875C101.289 43.6828 95.2046 36.0844 88.1489 34.8413C83.1768 34.0127 78.7287 36.4165 75.3579 41.6257L75.0346 41.4672Z" fill="#343538"/>
<path d="M121.526 172.365C118.249 174.22 114.563 174.599 110.776 173.441L46.1866 153.764C40.3024 151.972 35.0798 146.618 31.9054 139.081C27.5675 128.786 27.7206 116.747 32.2631 108.257L69.8032 38.8566L70.1265 39.0151L69.8032 38.8566C73.2748 32.4521 78.6929 29.1578 84.678 29.7544C92.646 30.5947 99.8441 38.1318 103.097 48.9263L130.111 138.137C133.759 150.188 131.536 163.398 124.601 170.169C123.803 170.962 122.647 171.731 121.526 172.365ZM70.6726 39.1614L33.1324 108.561C28.6618 116.783 28.5447 128.689 32.7317 138.727C35.8056 146.094 40.8414 151.326 46.5388 152.996L111.129 172.672C115.871 174.086 120.491 172.951 124.235 169.352C130.961 162.813 133.162 149.956 129.529 138.125L102.515 48.9142C99.3267 38.4246 92.3657 31.0949 84.8072 30.3643C79.0952 29.8408 73.9357 32.9887 70.6726 39.1614Z" fill="#343538"/>
<path d="M129.399 173.262C126.295 175.019 122.623 175.617 119.002 174.935L46.9549 161.53C40.3953 160.348 34.3825 155.213 30.4035 147.676C24.8515 137.272 24.1426 124.355 28.6133 114.767L64.6885 36.6356L65.0118 36.7941L64.6885 36.6356C68.1386 29.2189 74.0812 25.0584 80.8924 25.3012C89.4495 25.5803 97.4594 32.5438 101.704 43.4599L137.676 134.997C142.502 147.291 141.163 161.026 134.228 169.163C132.733 170.919 131.123 172.286 129.399 173.262ZM73.1538 27.9738C69.9634 29.7796 67.3045 32.8783 65.3853 37.038L29.3102 115.17C25.0479 124.526 25.6922 137.138 31.0933 147.286C34.9718 154.652 40.8337 159.53 47.1705 160.725L119.218 174.13C124.736 175.104 129.844 173.237 133.703 168.663C140.43 160.757 141.697 147.291 137.022 135.253L101.05 43.7161C96.8701 33.1049 89.2338 26.3854 80.8994 26.0941C78.0758 25.9848 75.4819 26.6561 73.1538 27.9738Z" fill="#343538"/>
<path d="M137.846 173.38C134.828 175.088 131.48 175.845 127.888 175.602L48.1961 169.712C40.9612 169.14 33.9498 164.457 28.9794 156.798C22.2636 146.371 20.6208 132.844 24.7109 122.219L58.5884 35.0879C61.9165 26.4882 68.3334 21.3764 76.1432 21.1677C85.2894 20.8855 94.2475 27.312 99.5551 38.0814L145.369 131.103C151.345 143.201 151.04 157.716 144.551 167.195C142.668 169.854 140.433 171.916 137.846 173.38ZM59.0482 35.283L59.4577 35.3927L25.5802 122.524C21.562 132.88 23.1905 146.187 29.7554 156.359C34.575 163.762 41.3134 168.371 48.2753 168.87L127.967 174.76C134.347 175.247 140.016 172.379 143.89 166.658C150.171 157.411 150.59 143.287 144.715 131.359L98.9012 38.3376C93.7948 27.9098 85.0234 21.6053 76.2365 21.9117C68.7859 22.1447 62.7139 27.0613 59.4577 35.3927L59.0482 35.283Z" fill="#343538"/>
<path d="M147.046 172.62C144.287 174.182 141.125 175.061 137.734 175.159L50.0858 178.211C41.9669 178.481 33.9566 174.25 27.9947 166.469C20.1292 156.236 17.38 142.197 21.0895 130.536L51.9876 34.0482C55.1076 24.314 61.9487 18.1653 70.779 17.1514C80.5003 16.0885 90.6298 21.966 96.9002 32.4182L153.65 125.854C160.912 137.794 161.736 152.467 155.741 163.373C153.513 167.594 150.581 170.619 147.046 172.62ZM52.3611 34.2921L52.7706 34.4018L21.8726 130.89C18.2349 142.283 20.9195 156.017 28.6845 166.078C34.4956 173.603 42.3191 177.712 50.1291 177.504L137.777 174.451C145.092 174.182 151.271 170.229 155.145 163.141C160.981 152.553 160.172 138.099 153.061 126.415L96.311 32.9794C90.0549 22.7467 80.3851 17.0643 70.9728 18.0662C62.5377 18.9702 55.9553 24.9726 52.9072 34.4384L52.3611 34.2921Z" fill="#343538"/>
<path d="M156.751 170.904C154.25 172.319 151.412 173.357 148.394 173.699L52.7729 187.061C43.7326 188.307 34.4991 184.539 27.3719 176.732C18.1324 166.706 14.3909 152.543 17.7204 139.843L44.6009 33.7764C47.2904 22.9185 54.8012 15.3657 64.4309 13.5586C74.9877 11.5683 85.8665 16.5683 93.5107 26.8146L162.201 119.434C170.635 130.826 172.738 145.917 167.705 157.873C165.405 163.729 161.581 168.17 156.751 170.904ZM45.0608 33.9715L45.4704 34.0813L18.5898 140.148C15.4689 152.616 19.1457 166.474 28.1481 176.293C35.1245 183.843 44.0848 187.538 52.8162 186.353L148.437 172.991C156.723 171.831 163.608 166.34 167.123 157.861C172.12 146.039 169.995 131.302 161.712 120.166L93.0219 27.5466C85.6148 17.5077 75.0593 12.6663 64.7613 14.5101C55.4406 16.2562 48.1383 23.5771 45.5206 34.1666L45.0608 33.9715Z" fill="#343538"/>
<path d="M167.061 168.052C164.904 169.272 162.597 170.237 160.038 170.774L56.42 196.17C46.386 198.66 35.8067 195.539 27.327 187.585C16.95 177.971 12.1657 163.599 14.6836 150.104L36.5535 34.3327C38.8483 22.2163 46.6338 13.369 57.3579 10.4877C68.5636 7.4477 80.6377 11.5454 89.5556 21.415L171.304 111.79C181.084 122.538 184.56 137.423 180.504 150.65C178.145 158.362 173.357 164.488 167.061 168.052ZM36.9631 34.4424L37.3728 34.5522L15.503 150.323C12.9707 163.599 17.7766 177.617 27.8302 187.072C36.159 194.77 46.4652 197.818 56.1902 195.389L159.808 169.993C169.361 167.661 176.542 160.522 179.685 150.431C183.669 137.472 180.207 122.807 170.664 112.266L88.9158 21.8909C80.2351 12.2287 68.4844 8.28961 57.5878 11.2685C47.1728 14.0888 39.5957 22.7042 37.3728 34.5522L36.9631 34.4424Z" fill="#343538"/>
<path d="M177.923 163.978C176.283 164.906 174.457 165.712 172.667 166.383L61.0628 205.404C49.9124 209.323 37.8142 206.945 27.7729 199.076C16.3587 190.047 10.3587 175.562 12.1654 161.442L27.8583 35.9379L28.2178 35.9623L27.8583 35.9379C29.4996 22.7089 37.4953 12.2614 49.2999 8.08587C61.277 3.81271 74.5325 6.78829 84.8467 16.098L180.758 102.582C191.734 112.428 196.684 127.279 193.936 141.363C191.77 151.358 186.119 159.34 177.923 163.978ZM44.6555 10.9423C35.8556 15.9227 30.0025 24.9299 28.6635 35.9378L12.8843 161.491C11.1998 175.428 16.9986 189.571 28.1756 198.392C37.9437 206.189 49.8551 208.444 60.6963 204.586L172.301 165.566C183.056 161.757 190.57 152.835 193.016 140.972C195.743 127.243 190.806 112.611 180.068 102.972L84.1566 16.4886C74.0795 7.38633 61.0972 4.48397 49.5155 8.64724C47.7757 9.40414 46.1221 10.1122 44.6555 10.9423Z" fill="#343538"/>
<path d="M188.806 158.758C187.857 159.295 186.908 159.832 185.909 160.284L66.6522 214.68C54.4857 220.199 40.2639 218.907 28.7468 211.073C16.1584 202.592 9.1577 188.556 10.1525 173.64L18.3793 38.5572L18.7388 38.5816L18.3793 38.5572C19.2302 24.1786 27.3498 12.179 40.0341 6.36702C52.7183 0.555039 67.4145 2.26149 79.1616 10.8769L190.191 91.5642C202.449 100.46 208.968 114.655 207.527 129.595C206.288 142.143 199.42 152.751 188.806 158.758ZM37.4021 8.54006C26.616 14.6447 19.8627 25.6432 19.0983 38.6059L10.8714 173.689C9.94863 188.336 16.7984 202.116 29.1495 210.389C40.4798 218.101 54.342 219.369 66.3359 213.947L185.592 159.551C197.45 154.094 205.44 142.851 206.671 129.51C208.09 114.923 201.722 100.985 189.652 92.2113L78.6223 11.524C67.0261 3.16482 52.6894 1.48267 40.264 7.14815C39.3508 7.55109 38.3513 8.00285 37.4021 8.54006Z" fill="#343538"/>
<path d="M200.143 152.143L73.5337 223.801C60.0701 231.421 43.9974 231.289 30.4717 223.563C16.946 215.838 8.84371 202.081 8.78162 186.735L8.16636 42.2762C8.06829 27.0649 16.0387 13.4393 29.5023 5.81926C42.9659 -1.80077 59.0386 -1.66907 72.5643 6.05652L199.875 78.8089C213.401 86.5345 221.503 100.292 221.566 115.637C221.577 130.898 213.607 144.523 200.143 152.143ZM8.48993 42.4348L8.84951 42.4592L9.55107 186.869C9.6348 201.861 17.6365 215.447 30.8386 223.014C44.0407 230.581 59.8905 230.725 73.0952 223.251L199.705 151.594C212.909 144.12 220.757 130.678 220.623 115.601C220.54 100.609 212.538 87.0229 199.336 79.456L72.0248 6.70368C58.8227 -0.863253 42.9729 -1.00723 29.7682 6.46626C16.5636 13.9398 8.71546 27.3822 8.84951 42.4592L8.48993 42.4348Z" fill="#343538"/>
</svg>
