<svg width="230" height="230" viewBox="0 0 230 230" fill="none" xmlns="http://www.w3.org/2000/svg">
<path d="M130.75 126L97.75 121.7L101.65 86.5L130.75 126ZM98.25 121.3L129.55 125.4L101.95 88L98.25 121.3Z" fill="#343538"/>
<path d="M131.25 127L96.35 121.3L101.75 84.9L131.25 127ZM96.95 120.9L130.05 126.3L102.05 86.3L96.95 120.9Z" fill="#343538"/>
<path d="M131.85 128.1L94.95 120.9L102.05 83.2L131.85 128.1ZM95.55 120.5L130.65 127.3L102.35 84.6L95.55 120.5Z" fill="#343538"/>
<path d="M132.35 129.2L93.45 120.4L102.35 81.5L132.35 129.2ZM94.15 120L131.25 128.4L102.65 82.9L94.15 120Z" fill="#343538"/>
<path d="M132.95 130.4L91.95 119.8L102.85 79.7L132.95 130.4ZM92.65 119.5L131.85 129.6L103.15 81.1L92.65 119.5Z" fill="#343538"/>
<path d="M133.45 131.7L90.35 119.2L103.45 77.8L133.45 131.7ZM91.05 118.9L132.35 130.8L103.55 79.2L91.05 118.9Z" fill="#343538"/>
<path d="M133.95 133L88.65 118.5L104.05 76L133.95 133ZM89.35 118.1L132.85 132.1L104.15 77.3L89.35 118.1Z" fill="#343538"/>
<path d="M134.45 134.4L86.85 117.7L104.85 74L134.45 134.4ZM87.55 117.3L133.35 133.4L104.85 75.3L87.55 117.3Z" fill="#343538"/>
<path d="M134.95 135.9L85.05 116.7L105.75 71.9L134.95 135.9ZM85.75 116.4L133.95 134.9L105.65 73.3L85.75 116.4Z" fill="#343538"/>
<path d="M135.45 137.5L83.15 115.8L106.75 70L135.45 137.5ZM83.85 115.4L134.45 136.4L106.75 71.1L83.85 115.4Z" fill="#343538"/>
<path d="M135.85 139.1L81.05 114.6L107.85 67.8L135.85 139.1ZM81.85 114.3L134.85 138L107.75 69L81.85 114.3Z" fill="#343538"/>
<path d="M136.25 140.8L78.95 113.3L109.15 65.6L109.35 66.1L136.25 140.8ZM79.7499 113.1L135.35 139.8L109.05 66.9L79.7499 113.1Z" fill="#343538"/>
<path d="M136.55 142.6L76.75 111.9L110.65 63.4L136.55 142.6ZM77.55 111.7L135.65 141.5L110.45 64.6L77.55 111.7Z" fill="#343538"/>
<path d="M136.85 144.5L74.45 110.4L74.6499 110.2L112.25 61.2L136.85 144.5ZM75.2499 110.2L135.95 143.4L111.95 62.4L75.2499 110.2Z" fill="#343538"/>
<path d="M137.15 146.5L72.05 108.8L114.05 59L137.15 146.5ZM72.95 108.6L136.35 145.3L113.85 60L72.95 108.6Z" fill="#343538"/>
<path d="M137.35 148.5L69.65 106.9L116.05 56.6L116.15 57.1L137.35 148.5ZM70.45 106.8L136.55 147.4L115.75 57.7L70.45 106.8Z" fill="#343538"/>
<path d="M137.55 150.7L67.15 105L118.35 54.3L137.55 150.7ZM67.95 104.9L136.75 149.6L117.95 55.4L67.95 104.9Z" fill="#343538"/>
<path d="M137.55 152.9L64.45 102.8L120.75 51.9L137.55 152.9ZM65.3499 102.7L136.85 151.7L120.35 52.9L65.3499 102.7Z" fill="#343538"/>
<path d="M137.55 155.3L61.75 100.5L123.45 49.6L137.55 155.3ZM62.65 100.4L136.95 154.1L123.05 50.6L62.65 100.4Z" fill="#343538"/>
<path d="M137.55 157.7L58.95 97.9L126.35 47.2L137.55 157.7ZM59.8499 97.9L136.85 156.5L125.95 48.2L59.8499 97.9Z" fill="#343538"/>
<path d="M137.35 160.3L56.05 95.2L129.55 44.9L137.35 160.3ZM56.95 95.2L136.65 159.1L129.05 45.9L56.95 95.2Z" fill="#343538"/>
<path d="M137.05 162.9L53.15 92.2L133.15 42.5V43L137.05 162.9ZM54.05 92.3L136.45 161.7L132.65 43.5L54.05 92.3Z" fill="#343538"/>
<path d="M136.65 165.6L50.05 89L136.95 40.2L136.65 165.6ZM50.95 89.1L136.05 164.4L136.35 41.2L50.95 89.1Z" fill="#343538"/>
<path d="M136.15 168.5L46.95 85.7L141.05 38.1V38.6L136.15 168.5ZM47.8499 85.7L135.55 167.2L140.45 38.9L47.8499 85.7Z" fill="#343538"/>
<path d="M135.45 171.4L43.75 82L145.55 35.9L135.45 171.4ZM44.75 82.1L135.05 170.2L145.05 36.7L44.75 82.1Z" fill="#343538"/>
<path d="M134.65 174.4L40.55 78L150.45 33.7L150.35 34.1L134.65 174.4ZM41.45 78.2L134.25 173.2L149.85 34.5L41.45 78.2Z" fill="#343538"/>
<path d="M133.65 177.5L37.25 73.8L155.75 31.7L133.65 177.5ZM38.15 74L133.25 176.3L154.95 32.5L38.15 74Z" fill="#343538"/>
<path d="M132.45 180.7L33.85 69.2L161.35 29.7L161.25 30.1L132.45 180.7ZM34.85 69.5L132.25 179.5L160.65 30.5L34.85 69.5Z" fill="#343538"/>
<path d="M131.15 184L30.45 64.4L167.35 27.9L167.25 28.3L131.15 184ZM31.45 64.7L130.95 182.8L166.75 28.7L31.45 64.7Z" fill="#343538"/>
<path d="M129.65 187.4L129.35 187L27.05 59.3L173.85 26.3L129.65 187.4ZM27.95 59.6L129.35 186.2L173.15 27L27.95 59.6Z" fill="#343538"/>
<path d="M127.85 190.9L23.55 53.8L180.85 24.8L180.75 25.2L127.85 190.9ZM24.45 54.2L127.55 189.8L180.05 25.6L24.45 54.2Z" fill="#343538"/>
<path d="M125.85 194.4L20.05 48L188.35 23.6L125.85 194.4ZM21.05 48.4L125.65 193.3L187.55 24.2L21.05 48.4Z" fill="#343538"/>
<path d="M123.55 198L16.55 41.7H16.95L196.35 22.4L196.15 22.8L123.55 198ZM17.55 42.2L123.45 196.9L195.55 23.1L17.55 42.2Z" fill="#343538"/>
<path d="M121.05 201.7L13.05 35.2L204.85 21.6L121.05 201.7ZM14.05 35.7L120.95 200.6L204.05 22.2L14.05 35.7Z" fill="#343538"/>
<path d="M118.15 205.4L9.65002 28.2L214.05 21.1L118.15 205.4ZM10.55 28.7L118.05 204.3L213.05 21.6L10.55 28.7Z" fill="#343538"/>
<path d="M115.05 209.2L6.25 20.8H223.75L115.05 209.2ZM7.14999 21.4L114.95 208.2L222.85 21.4H7.14999Z" fill="#343538"/>
</svg>
