<svg width="230" height="230" viewBox="0 0 230 230" fill="none" xmlns="http://www.w3.org/2000/svg">
<path d="M155.059 215.026C151.159 215.026 147.459 213.395 144.459 210.461L49.3588 114.056C45.2588 109.818 43.5588 103.84 44.7588 97.8621C46.0588 91.8843 50.0588 87.2108 55.4588 85.4718L179.759 44.1712C185.159 42.3235 190.859 43.8451 194.959 47.9752C199.059 52.2139 200.759 58.1917 199.559 64.1694L170.359 201.875C169.059 207.852 165.059 212.526 159.659 214.265C158.159 214.699 156.559 215.026 155.059 215.026ZM49.7588 113.622L144.859 210.026C148.859 214.047 154.359 215.46 159.559 213.721C164.759 211.982 168.659 207.526 169.859 201.766L199.059 64.0607C200.259 58.3004 198.659 52.4313 194.659 48.4099C190.659 44.3886 185.159 42.9756 179.959 44.7146L55.6588 86.0153C50.4588 87.7542 46.5588 92.2104 45.3588 97.9707C44.0588 103.731 45.7588 109.6 49.7588 113.622Z" fill="#343538"/>
<path d="M128.159 224.699C127.959 224.699 127.759 224.699 127.559 224.699C121.959 224.481 116.959 221.112 114.359 215.678L53.3589 90.9062C50.6589 85.4719 50.9589 79.1681 53.8589 73.9512C56.8589 68.7342 61.9589 65.7997 67.6589 66.0171L197.559 70.908C203.159 71.1253 208.159 74.4946 210.759 79.9289C213.459 85.3632 213.159 91.667 210.259 96.8839L141.459 216.765C138.559 221.764 133.659 224.699 128.159 224.699ZM67.0588 66.5605C61.8588 66.5605 57.0588 69.3863 54.2588 74.2772C51.3588 79.2768 51.1588 85.4719 53.7588 90.6888L114.759 215.46C117.359 220.677 122.059 223.938 127.559 224.155C132.959 224.373 137.959 221.438 140.859 216.438L209.759 96.5578C212.659 91.5583 212.859 85.3632 210.259 80.1463C207.659 74.9294 202.959 71.6688 197.459 71.4514L67.5588 66.5605C67.4588 66.5605 67.2588 66.5605 67.0588 66.5605Z" fill="#343538"/>
<path d="M99.8588 224.373C97.9588 224.373 96.0588 224.046 94.2588 223.177C88.9588 221.003 85.3588 216.004 84.4588 210.026L64.1588 70.4732C63.2588 64.3868 65.3588 58.5177 69.7588 54.605C74.1588 50.6923 79.9588 49.7141 85.1588 51.9966L206.559 102.644C211.859 104.818 215.459 109.817 216.359 115.795C217.259 121.882 215.159 127.751 210.759 131.663L109.759 220.569C106.759 223.068 103.359 224.373 99.8588 224.373ZM79.3588 51.3445C75.9588 51.3445 72.6588 52.6487 69.9588 55.0397C65.7588 58.7351 63.6587 64.4955 64.5587 70.3645L84.8588 209.917C85.7588 215.786 89.2588 220.568 94.3588 222.634C99.4588 224.807 105.059 223.829 109.259 220.025L210.259 131.12C214.459 127.425 216.559 121.664 215.659 115.795C214.759 109.926 211.259 105.144 206.159 103.079L84.7588 52.4313C83.0588 51.7792 81.2588 51.3445 79.3588 51.3445Z" fill="#343538"/>
<path d="M72.9588 214.047C69.3588 214.047 65.8588 212.634 62.9588 210.026C58.6588 206.113 56.6589 200.136 57.6589 194.049L80.2588 54.9311C81.2588 48.8447 84.9588 44.0625 90.2588 41.8888C95.5588 39.8238 101.359 40.9107 105.659 44.8233L205.259 135.685C209.559 139.597 211.559 145.575 210.559 151.662C209.559 157.748 205.859 162.53 200.559 164.704L78.3589 213.069C76.6589 213.721 74.7588 214.047 72.9588 214.047ZM95.6589 41.454C93.9589 41.454 92.1588 41.7801 90.4588 42.4322C85.3588 44.4973 81.7588 49.1707 80.7588 55.0398L58.1589 194.158C57.2589 200.027 59.1589 205.787 63.3589 209.591C67.5589 213.395 73.0588 214.482 78.2588 212.417L200.459 164.052C205.559 161.987 209.159 157.313 210.159 151.444C211.059 145.575 209.159 139.815 204.959 136.011L105.359 45.1494C102.559 42.7583 99.1589 41.454 95.6589 41.454Z" fill="#343538"/>
<path d="M50.8589 194.81C45.3589 194.81 40.3588 191.767 37.4588 186.55C34.5588 181.333 34.4589 174.92 37.1589 169.595L100.159 46.0189L100.359 46.1276L100.159 46.0189C102.859 40.6933 107.859 37.4327 113.559 37.324C119.159 37.2153 124.359 40.2586 127.259 45.5842L194.259 166.66C197.159 171.877 197.259 178.29 194.559 183.615C191.859 188.941 186.859 192.202 181.159 192.31L51.1589 194.81C51.0589 194.81 50.9589 194.81 50.8589 194.81ZM113.859 37.7588C113.759 37.7588 113.659 37.7588 113.559 37.7588C108.059 37.8675 103.259 41.0193 100.659 46.2363L37.6589 169.812C35.0589 175.029 35.1588 181.116 37.9588 186.224C40.7588 191.332 45.7589 194.267 51.1589 194.158L181.159 191.658C186.659 191.549 191.459 188.398 194.059 183.181C196.659 177.964 196.559 171.877 193.759 166.769L126.759 45.6928C124.059 40.6933 119.259 37.7588 113.859 37.7588Z" fill="#343538"/>
<path d="M159.359 212.417C157.759 212.417 156.059 212.091 154.459 211.548L30.7589 167.856C25.3589 166.008 21.4589 161.226 20.2589 155.248C19.0589 149.271 20.8589 143.184 25.0589 139.054L121.659 44.4973L121.859 44.7147L121.659 44.4973C125.859 40.3673 131.559 39.063 136.959 41.0194C142.359 42.867 146.259 47.6492 147.459 53.6269L174.459 191.875C175.659 197.853 173.859 203.94 169.659 208.07C166.859 210.896 163.159 212.417 159.359 212.417ZM132.259 40.802C128.559 40.802 125.059 42.2149 122.259 45.0408L25.6589 139.598C21.5589 143.51 19.8589 149.379 20.9589 155.14C22.0589 160.9 25.8589 165.465 31.0589 167.312L154.759 211.004C159.959 212.852 165.459 211.548 169.559 207.635C173.659 203.722 175.359 197.853 174.259 192.093L147.259 53.8443C146.159 48.084 142.359 43.5191 137.159 41.6715C135.359 41.0194 133.759 40.802 132.259 40.802Z" fill="#343538"/>
<path d="M132.859 223.72C129.559 223.72 126.259 222.525 123.459 220.242L19.6589 135.25C15.1589 131.555 12.8589 125.686 13.5589 119.599C14.2589 113.513 17.7589 108.405 22.9589 106.014L142.659 50.8011C147.859 48.41 153.659 49.1707 158.159 52.8661C162.659 56.5614 164.959 62.4304 164.259 68.5169L148.459 208.83C147.759 214.917 144.259 220.025 139.059 222.416C137.059 223.286 134.959 223.72 132.859 223.72ZM142.759 51.1271L142.859 51.3445L23.1589 106.557C18.1589 108.839 14.7589 113.73 14.0589 119.599C13.3589 125.468 15.5589 131.12 19.9589 134.707L123.759 219.699C128.159 223.286 133.759 224.047 138.759 221.655C143.759 219.373 147.159 214.482 147.859 208.613L163.659 68.2995C164.359 62.4304 162.159 56.7788 157.759 53.1922C153.359 49.6055 147.759 48.8447 142.759 51.2358V51.1271Z" fill="#343538"/>
<path d="M104.559 225.133C99.3588 225.133 94.5589 222.416 91.6589 217.634L18.9588 100.471C15.7588 95.3624 15.3589 89.0585 17.8589 83.5156C20.3589 77.9726 25.1589 74.4946 30.8589 74.0599L160.559 64.1695C166.159 63.7347 171.459 66.5606 174.559 71.5601C177.759 76.6683 178.159 82.9722 175.659 88.5152L118.659 215.569C116.159 221.112 111.359 224.59 105.659 225.025C105.259 225.133 104.859 225.133 104.559 225.133ZM160.459 64.4955V64.8216L30.7588 74.712C25.3588 75.1468 20.6588 78.516 18.2588 83.8416C15.8588 89.1672 16.2589 95.2536 19.3589 100.145L92.0588 217.308C95.0588 222.199 100.159 224.916 105.659 224.481C111.059 224.047 115.759 220.677 118.159 215.352L175.159 88.2978C177.559 82.9722 177.159 76.8857 174.059 71.9949C171.059 67.104 165.959 64.3868 160.459 64.8216V64.4955Z" fill="#343538"/>
<path d="M77.3589 216.438C75.9589 216.438 74.6589 216.221 73.2589 215.895C67.7589 214.265 63.6589 209.809 62.2589 203.94L28.5588 67.43C27.0588 61.4523 28.5588 55.3659 32.5588 51.0185C36.5588 46.671 42.1589 45.0407 47.6589 46.671L173.259 83.2981C178.759 84.9284 182.859 89.3846 184.259 95.2536C185.759 101.231 184.259 107.318 180.259 111.665L88.3589 211.439C85.3589 214.699 81.4589 216.438 77.3589 216.438ZM43.5588 46.5623C39.6588 46.5623 35.8589 48.1926 32.9589 51.3445C29.0589 55.5833 27.6588 61.4523 29.0588 67.2126L62.7589 203.722C64.1589 209.483 68.1589 213.83 73.4589 215.352C78.7589 216.873 84.1588 215.352 88.0588 211.113L179.959 111.23C183.859 106.992 185.259 101.123 183.859 95.3623C182.459 89.602 178.459 85.2545 173.159 83.7329L47.5588 47.1057C46.2588 46.7797 44.9588 46.5623 43.5588 46.5623Z" fill="#343538"/>
<path d="M54.1588 198.614C51.1588 198.614 48.0588 197.636 45.4588 195.679C40.7588 192.202 38.2588 186.55 38.6588 180.463L47.7588 39.4977C48.1588 33.4113 51.4588 28.0857 56.4588 25.3685C61.5588 22.6514 67.3588 23.0862 72.0588 26.5641L179.859 105.579C184.559 109.057 187.059 114.708 186.659 120.795C186.259 126.881 182.959 132.207 177.959 134.924L61.0588 196.875C58.8588 197.962 56.4588 198.614 54.1588 198.614ZM63.2588 24.173C61.0588 24.173 58.7588 24.7164 56.6588 25.8033C51.7588 28.4118 48.5588 33.52 48.2588 39.389L39.1588 180.355C38.7588 186.224 41.2588 191.767 45.7588 195.136C50.2588 198.397 55.8588 198.831 60.7588 196.332L177.659 134.381C182.559 131.772 185.759 126.664 186.059 120.795C186.459 114.926 183.959 109.383 179.459 106.014L71.6588 26.9988C69.1588 25.1512 66.1588 24.173 63.2588 24.173Z" fill="#343538"/>
<path d="M37.5588 173.508C32.6588 173.508 28.1588 171.116 25.1588 166.769C21.7588 161.878 21.0588 155.574 23.2588 149.923L74.0588 19.8256C76.2588 14.1739 80.9588 10.3699 86.5588 9.6091C92.1588 8.8483 97.5588 11.3481 100.959 16.239L179.159 129.055C182.559 133.946 183.259 140.25 181.059 145.901C178.859 151.553 174.159 155.357 168.559 156.118L39.5588 173.399C38.8588 173.399 38.2588 173.508 37.5588 173.508ZM88.5588 10.0439C87.9588 10.0439 87.2588 10.0438 86.6588 10.1525C81.2588 10.9133 76.7588 14.6087 74.6588 20.043L23.8589 150.14C21.7589 155.574 22.4588 161.661 25.6588 166.443C28.9588 171.225 34.1588 173.616 39.5588 172.855L168.659 155.683C174.059 154.922 178.559 151.227 180.659 145.793C182.759 140.358 182.059 134.272 178.859 129.49L100.459 16.565C97.5588 12.3263 93.2588 10.0439 88.5588 10.0439Z" fill="#343538"/>
<path d="M156.759 173.29C155.659 173.29 154.559 173.181 153.459 172.855L26.2589 143.51C20.7589 142.206 16.3589 137.967 14.6589 132.098C12.9589 126.229 14.1589 120.034 17.8589 115.469L104.859 10.4786C108.659 5.91376 114.159 3.95742 119.759 5.26166C125.259 6.56589 129.659 10.8046 131.359 16.6737L171.559 151.118C173.259 156.987 172.059 163.182 168.359 167.747C165.259 171.334 161.159 173.29 156.759 173.29ZM116.459 5.47904C112.259 5.47904 108.259 7.43539 105.359 10.9133L18.3589 115.904C14.7589 120.36 13.5589 126.338 15.2589 131.99C16.9589 137.641 21.1589 141.771 26.4589 142.967L153.659 172.312C158.959 173.508 164.359 171.66 167.959 167.204C171.559 162.748 172.759 156.77 171.059 151.118L130.859 16.8911C129.159 11.2394 124.959 7.10936 119.659 5.91381C118.559 5.58775 117.559 5.47904 116.459 5.47904Z" fill="#343538"/>
<path d="M142.159 185.898C139.359 185.898 136.659 185.028 134.159 183.398L22.7589 110.578C17.9589 107.426 15.0589 101.883 15.1589 95.6884C15.2589 89.602 18.2589 84.059 23.1589 81.1244L136.859 12.6523C141.759 9.71777 147.659 9.82651 152.459 12.9784C157.259 16.1303 160.159 21.6732 160.059 27.8683L157.759 169.16C157.659 175.246 154.659 180.789 149.759 183.724C147.359 185.137 144.759 185.898 142.159 185.898ZM144.459 11.1307C141.959 11.1307 139.459 11.7828 137.159 13.1957L23.4589 81.6679C18.6589 84.4937 15.7589 89.8193 15.6589 95.6884C15.5589 101.666 18.2589 106.992 22.9589 110.035L134.359 182.855C139.059 185.898 144.659 186.006 149.459 183.181C154.259 180.355 157.159 175.029 157.259 169.16H157.559H157.259L159.559 27.8683C159.659 21.8906 156.959 16.565 152.259 13.5218C149.759 12.0002 147.159 11.1307 144.459 11.1307Z" fill="#343538"/>
<path d="M124.559 192.636C119.959 192.636 115.659 190.463 112.659 186.55L29.0588 78.2986C25.4588 73.6251 24.4589 67.3213 26.3589 61.561C28.2589 55.8006 32.7589 51.6705 38.3589 50.6924L166.359 26.1293C171.959 25.0425 177.359 27.2162 181.059 31.8897C184.659 36.5632 185.659 42.867 183.759 48.6274L139.259 181.442C137.359 187.202 132.859 191.332 127.259 192.31C126.459 192.528 125.459 192.636 124.559 192.636ZM169.159 26.4554C168.259 26.4554 167.359 26.5641 166.459 26.6728L38.4589 51.2358C33.0589 52.214 28.7589 56.2354 26.8589 61.7783C24.9589 67.3213 25.9589 73.4078 29.4589 77.9726L113.059 186.224C116.559 190.789 121.859 192.854 127.259 191.875C132.659 190.897 136.959 186.876 138.859 181.333L139.159 181.442L138.859 181.333L183.359 48.5186C185.259 42.9756 184.259 36.8893 180.759 32.3245C177.759 28.5205 173.559 26.4554 169.159 26.4554Z" fill="#343538"/>
<path d="M106.159 192.745C105.359 192.745 104.459 192.636 103.659 192.528C98.0589 191.549 93.5588 187.528 91.5588 181.876L44.9589 49.9316C42.9589 44.1712 43.8589 37.9761 47.3589 33.1939C50.9589 28.4117 56.3589 26.1294 61.9589 27.1075L190.359 49.1708C195.959 50.1489 200.459 54.1703 202.459 59.822C204.459 65.5823 203.559 71.7775 200.059 76.5596L118.259 186.332L118.059 186.115L118.259 186.332C115.159 190.571 110.759 192.745 106.159 192.745ZM59.3589 27.4336C54.8589 27.4336 50.6589 29.6073 47.6589 33.52C44.2589 38.0848 43.3588 44.1712 45.2588 49.7142L91.8589 181.659C93.8589 187.202 98.1588 191.006 103.559 191.984C108.959 192.962 114.159 190.68 117.659 186.115L199.459 76.3423C202.859 71.7774 203.759 65.691 201.859 60.148C199.859 54.605 195.559 50.801 190.159 49.8229L61.7588 27.7596C61.0588 27.5422 60.2589 27.4336 59.3589 27.4336Z" fill="#343538"/>
<path d="M88.4589 186.441C85.9589 186.441 83.4589 185.789 81.1589 184.376C76.1589 181.442 73.0589 176.116 72.8589 170.03L68.3589 28.8465C68.1589 22.7601 70.8589 17.1084 75.6589 13.8478C80.4589 10.5873 86.2589 10.3699 91.2589 13.3044L206.059 79.6028C211.059 82.5374 214.159 87.863 214.359 93.9494C214.559 100.036 211.859 105.687 207.059 108.948L96.7589 183.833C94.1589 185.572 91.3589 186.441 88.4589 186.441ZM83.8589 11.7828C81.0589 11.7828 78.3589 12.6522 75.8589 14.2825C71.2589 17.4344 68.5589 22.8688 68.7589 28.7378L73.2589 169.921C73.4589 175.79 76.4589 181.007 81.2589 183.833C86.0589 186.658 91.7589 186.441 96.3589 183.289L96.4589 183.507L96.3589 183.289L206.659 108.405C211.259 105.253 213.959 99.8184 213.759 93.9494C213.559 88.0804 210.559 82.8634 205.759 80.0376L90.9589 13.7391C88.7589 12.4349 86.3589 11.7828 83.8589 11.7828Z" fill="#343538"/>
<path d="M73.6589 174.051C69.3589 174.051 65.3588 172.203 62.2588 168.617C58.3588 164.16 57.0588 157.965 58.7588 152.096L96.7588 16.9996C98.4588 11.1306 102.659 6.7832 108.159 5.37028C113.659 3.95736 119.259 5.805 123.059 10.3698L211.759 113.73C215.659 118.186 216.959 124.381 215.259 130.25C213.559 136.119 209.359 140.467 203.859 141.88L77.1589 173.616L77.0588 173.29L77.1589 173.616C76.0589 173.942 74.8589 174.051 73.6589 174.051ZM111.759 5.5876C110.659 5.5876 109.459 5.69631 108.259 6.02237C102.959 7.3266 98.8588 11.5653 97.2588 17.217L59.2588 152.314C57.6588 157.965 58.9589 163.943 62.6589 168.291C66.3589 172.638 71.7588 174.377 77.0588 173.073L203.759 141.336C209.059 140.032 213.159 135.793 214.759 130.142C216.359 124.49 215.059 118.512 211.359 114.165L122.659 10.8046C119.859 7.43531 115.859 5.5876 111.759 5.5876Z" fill="#343538"/>
<path d="M192.759 171.986C192.159 171.986 191.659 171.986 191.059 171.877L61.8589 157.096C56.2589 156.444 51.5589 152.749 49.2589 147.097C46.9589 141.445 47.5589 135.141 50.8589 130.251L127.259 15.9129C130.559 10.9133 135.959 8.41356 141.559 8.95699C147.159 9.60911 151.859 13.3044 154.159 18.9561L207.059 148.075C209.359 153.727 208.759 160.03 205.459 164.921C202.359 169.486 197.759 171.986 192.759 171.986ZM139.859 9.50042C135.059 9.50042 130.559 12.0002 127.759 16.239L51.3589 130.577C48.1589 135.359 47.5589 141.445 49.7589 146.879C51.9589 152.314 56.5589 155.9 61.9589 156.553L191.259 171.334C196.659 171.986 201.859 169.486 205.059 164.704C208.259 159.922 208.859 153.835 206.659 148.401L153.759 19.2822C151.559 13.8479 146.959 10.2612 141.559 9.60908C140.859 9.60908 140.359 9.50042 139.859 9.50042Z" fill="#343538"/>
<path d="M176.659 197.418C174.459 197.418 172.159 196.875 170.059 195.788L52.2588 136.12C47.1588 133.511 43.7588 128.294 43.2588 122.208C42.7588 116.121 45.2589 110.361 49.8589 106.774L156.359 25.6945C160.959 22.2166 166.759 21.6732 171.959 24.173C177.059 26.7814 180.459 31.9984 180.959 38.0848L192.259 178.833C192.759 184.92 190.259 190.68 185.659 194.267C182.859 196.332 179.759 197.418 176.659 197.418ZM165.259 23.1948C162.259 23.1948 159.259 24.1729 156.659 26.238L50.1589 107.318C45.6589 110.687 43.2588 116.23 43.7588 122.208C44.2588 128.077 47.4588 133.185 52.4588 135.685L170.259 195.353C175.159 197.853 180.859 197.31 185.259 193.94C189.759 190.571 192.159 185.028 191.659 179.05L180.359 38.3022C179.859 32.4331 176.659 27.3248 171.659 24.8251C169.659 23.7382 167.459 23.1948 165.259 23.1948Z" fill="#343538"/>
<path d="M153.659 215.678C149.659 215.678 145.859 214.047 142.859 210.895L49.3588 112.752C45.2588 108.513 43.6588 102.427 45.0588 96.4492C46.4588 90.4714 50.4588 85.9066 55.9588 84.2763L180.959 45.3668C186.359 43.6278 192.059 45.2581 196.159 49.4968C200.259 53.7356 201.859 59.822 200.459 65.7997L168.959 202.961C167.559 208.939 163.559 213.504 158.059 215.134C156.659 215.46 155.159 215.678 153.659 215.678ZM185.259 45.1494C183.859 45.1494 182.459 45.3667 181.059 45.8015L56.0588 84.7111C50.8588 86.3414 46.8588 90.7975 45.5588 96.5578C44.2588 102.318 45.7588 108.187 49.7588 112.317L143.259 210.461C147.159 214.591 152.659 216.112 157.859 214.373C163.059 212.743 167.059 208.287 168.359 202.527L199.859 65.3649C201.159 59.6046 199.659 53.7355 195.659 49.6055C192.859 46.7796 189.159 45.1494 185.259 45.1494Z" fill="#343538"/>
<path d="M126.759 224.916C126.459 224.916 126.159 224.916 125.859 224.916C120.259 224.59 115.359 221.112 112.759 215.678L53.7589 89.8193C51.1589 84.385 51.4588 77.9726 54.5588 72.8643C57.6588 67.7561 62.8589 64.8216 68.4589 65.1476L198.259 72.5383C203.859 72.8643 208.759 76.3423 211.359 81.7766C213.959 87.2109 213.659 93.6233 210.559 98.7316L139.759 217.199C136.859 222.09 132.059 224.916 126.759 224.916ZM54.2589 89.4933L113.259 215.352C115.759 220.677 120.459 223.938 125.959 224.264C131.459 224.59 136.459 221.764 139.359 216.873L210.159 98.4055C213.159 93.406 213.459 87.3196 210.959 81.994C208.459 76.6684 203.759 73.4078 198.259 73.0817L68.4589 65.6911C63.0589 65.365 57.9588 68.1908 55.0588 73.0817C52.0588 78.0813 51.7589 84.1676 54.2589 89.4933Z" fill="#343538"/>
<path d="M98.3589 224.046C96.3589 224.046 94.3589 223.612 92.4589 222.742C87.2589 220.46 83.6589 215.46 82.8589 209.374L64.7589 69.3863C63.9589 63.2999 66.1589 57.4309 70.6589 53.6269C75.1589 49.8228 80.8589 48.9533 86.1589 51.2358L206.759 104.166C211.959 106.448 215.559 111.448 216.359 117.534C217.159 123.621 214.959 129.49 210.459 133.294L107.959 220.242C105.159 222.851 101.759 224.046 98.3589 224.046ZM65.2589 69.3863L83.3589 209.374C84.1589 215.243 87.5589 220.025 92.6589 222.307C97.7589 224.481 103.259 223.72 107.559 220.025L210.059 133.076C214.359 129.381 216.459 123.729 215.759 117.86C214.959 111.991 211.559 107.209 206.459 104.927L85.8589 51.9966C80.7589 49.8228 75.2589 50.5837 70.9589 54.279C66.6589 57.8656 64.5589 63.5173 65.2589 69.3863Z" fill="#343538"/>
<path d="M71.6588 213.178C67.9588 213.178 64.3588 211.765 61.4588 208.939C57.1588 204.918 55.2588 198.94 56.3588 192.854L81.1588 54.1703C82.2588 48.1926 86.0588 43.3017 91.3588 41.3454C96.6588 39.389 102.459 40.5846 106.659 44.606L204.759 137.315C209.059 141.336 210.959 147.314 209.859 153.401C208.759 159.378 204.959 164.269 199.659 166.226L76.7588 212.2C75.1588 212.961 73.3588 213.178 71.6588 213.178ZM81.4588 54.279L81.7588 54.3877L56.9588 193.071C55.9588 198.94 57.7588 204.7 61.8588 208.613C65.9588 212.526 71.5588 213.721 76.6588 211.765L199.559 165.791C204.759 163.834 208.459 159.27 209.459 153.401C210.459 147.532 208.659 141.771 204.559 137.859L106.459 45.1494C102.359 41.2367 96.8588 40.0411 91.6588 41.9975C86.4588 43.9538 82.7588 48.5187 81.7588 54.3877L81.4588 54.279Z" fill="#343538"/>
<path d="M179.859 193.506H49.8589C44.2589 193.506 39.1589 190.354 36.3589 185.028C33.5589 179.703 33.5589 173.399 36.3589 168.073L101.359 45.6928C104.159 40.3672 109.259 37.2153 114.859 37.2153C120.459 37.2153 125.559 40.3672 128.359 45.6928L193.359 168.073C196.159 173.399 196.159 179.703 193.359 185.028C190.559 190.354 185.559 193.506 179.859 193.506ZM101.859 46.0189L36.8589 168.399C34.1589 173.508 34.1589 179.703 36.8589 184.811C39.5589 189.919 44.4589 192.962 49.9589 192.962H179.959C185.459 192.962 190.259 189.919 193.059 184.811C195.759 179.703 195.759 173.508 193.059 168.399L128.059 46.0189C125.359 40.9106 120.459 37.8674 114.959 37.8674C109.459 37.7587 104.559 40.8019 101.859 46.0189Z" fill="#343538"/>
</svg>
