<svg width="230" height="230" viewBox="0 0 230 230" fill="none" xmlns="http://www.w3.org/2000/svg">
<path d="M182.735 91.8577C185.848 93.6545 187.927 95.8924 188.933 98.418C190.805 103.26 188.843 109.129 183.229 115.483L183.117 115.678L122.265 121.132C117.918 121.474 113.009 122.79 108.571 124.636L66.0361 142.61C57.6211 146.18 47.7403 147.348 43.4873 145.282C42.3613 144.761 41.7518 144.02 41.5051 143.1C39.3938 135.527 46.4304 125.586 60.6387 116.024C88.217 97.4542 135.075 84.5696 165.247 87.3365C172.613 87.829 178.554 89.4433 182.735 91.8577ZM182.676 114.645C187.968 108.624 189.859 103.102 188.109 98.7207C185.837 92.9998 177.663 89.1886 165.202 88.0885C135.225 85.4339 88.5759 98.18 61.2071 116.611C47.2645 125.937 40.4526 135.49 42.3844 142.7C42.5489 143.314 43.1173 143.901 43.9515 144.253C48.01 146.207 57.5429 144.968 65.7484 141.537L108.284 123.563C112.721 121.716 117.784 120.36 122.284 119.976L182.676 114.645Z" fill="#343538"/>
<path d="M185.155 92.6065C188.851 94.7401 191.207 97.3971 192.182 100.424C193.969 105.864 191.225 112.19 184.481 118.929L184.425 119.026L122.096 121.423C117.708 121.613 112.41 122.703 107.778 124.438L62.3511 141.131C53.2964 144.462 43.1389 145.21 39.1104 142.755C38.0407 142.137 37.4872 141.299 37.2968 140.281C36.177 132.114 44.4819 121.997 60.1379 112.623C90.3611 94.413 139.677 83.3362 169.897 87.8166C176.133 88.694 181.265 90.3605 185.155 92.6065ZM183.984 117.994C190.406 111.587 192.925 105.651 191.318 100.573C189.408 94.6729 181.669 90.3345 169.601 88.5535C139.535 84.0321 90.6228 95.0827 60.4558 113.195C45.1065 122.487 36.929 132.159 38.1199 139.979C38.2282 140.689 38.6994 141.221 39.4213 141.767C43.2141 143.957 53.0648 143.291 61.9099 140.098L107.337 123.405L107.46 123.865L107.337 123.405C112.122 121.629 117.42 120.539 121.906 120.405L183.984 117.994Z" fill="#343538"/>
<path d="M187.325 93.3406C191.702 95.8673 194.334 98.9433 195.321 102.625C196.924 108.608 193.439 115.543 185.37 122.555L185.314 122.652L121.775 121.756C117.248 121.736 111.868 122.52 106.888 124.183L58.6256 139.499C49.0847 142.549 38.7067 142.781 34.9028 139.937C33.8892 139.222 33.3919 138.286 33.3548 137.227C33.2267 128.466 42.8971 118.229 60.0009 109.043C93.0635 91.3051 144.377 82.1594 174.42 88.7423C179.541 89.7541 183.921 91.3754 187.325 93.3406ZM184.817 121.716C192.466 114.981 195.824 108.491 194.4 102.872C192.854 96.7917 185.59 92.0792 174.068 89.5764C144.122 83.0497 93.0595 92.2105 60.2064 109.81C43.4656 118.817 33.9636 128.761 34.0657 137.119C34.0205 137.871 34.5328 138.556 35.2547 139.102C38.8229 141.681 48.9504 141.434 58.1845 138.466L106.447 123.15L106.57 123.611L106.447 123.15C111.524 121.543 116.96 120.662 121.584 120.738L184.817 121.716Z" fill="#343538"/>
<path d="M189.09 94.1003C194.245 97.0762 197.39 100.837 198.193 105.061C199.403 111.725 195.136 119.116 185.743 126.4L185.59 126.442L121.258 121.976C116.649 121.649 111.074 122.321 105.859 123.719L54.9296 137.365C44.8051 140.078 34.5133 139.712 30.8779 136.575C29.9204 135.763 29.3821 134.674 29.4984 133.575C30.4591 124.274 41.6485 113.878 60.0878 105.073C95.8775 88.0023 149.116 81.1356 178.83 89.8621C182.78 91.1054 186.27 92.472 189.09 94.1003ZM185.287 125.618C194.316 118.513 198.456 111.567 197.272 105.308C196.088 99.0484 189.551 93.977 178.422 90.7935C148.903 82.1793 95.9146 89.0611 60.3344 105.993C42.1047 114.66 31.2371 124.724 30.2915 133.773C30.1902 134.622 30.5491 135.348 31.3121 136.048C34.7119 138.919 44.9064 139.229 54.5707 136.639L105.5 122.993L105.623 123.453L105.5 122.993C110.869 121.554 116.541 120.939 121.15 121.266L185.287 125.618Z" fill="#343538"/>
<path d="M190.355 94.8306C196.579 98.4241 200.181 102.967 200.785 107.984C201.699 115.384 196.399 123.217 185.585 130.718L185.431 130.759L120.63 122.392C116.036 121.814 110.282 122.123 104.774 123.352L104.651 122.892L104.774 123.352L51.444 135.093C41.0428 137.387 30.6277 136.561 27.2169 133.035C26.2183 132.07 25.8895 130.843 26.1592 129.702C28.3061 119.919 40.9582 109.459 60.6768 101.134C99.0813 84.9247 153.981 80.5726 183.113 91.4276C185.769 92.4423 188.216 93.5953 190.355 94.8306ZM185.185 129.839C195.524 122.711 200.768 114.976 199.921 108.134C199.1 101.695 193.19 96.2083 182.705 92.359C153.767 81.6163 99.2719 85.9424 60.9235 102.054C41.4145 110.241 29.0279 120.466 26.8961 129.998C26.7387 130.944 27.0415 131.767 27.7483 132.564C30.9797 135.727 41.2414 136.594 51.1823 134.424L104.513 122.682C110.02 121.453 115.927 121.103 120.619 121.737L185.185 129.839Z" fill="#343538"/>
<path d="M191.23 95.3356C198.816 99.7151 202.97 105.096 203.264 111.101C203.688 119.126 197.243 127.594 184.966 135.158L184.812 135.199L120.154 122.765C115.575 121.937 109.642 121.883 103.996 122.902L48.3355 132.391C37.7137 134.168 27.2314 132.784 24.0863 129.024C23.0466 127.905 22.774 126.58 23.3094 125.204C26.6985 114.842 40.7984 104.569 61.8936 96.7793C102.898 81.6819 159.192 80.0801 187.284 93.1869C188.645 93.9729 189.966 94.6056 191.23 95.3356ZM184.663 134.335C196.577 126.95 202.854 118.774 202.358 111.097C201.998 104.535 196.62 98.5771 186.973 94.1744C159.075 81.1799 103.088 82.6996 62.2375 97.7559C41.3519 105.407 27.4614 115.541 24.0874 125.653C23.7204 126.738 23.967 127.658 24.7149 128.608C27.7217 132.16 37.7589 133.416 48.1299 131.624L103.79 122.135C109.533 121.172 115.579 121.032 120.352 121.972L184.663 134.335Z" fill="#343538"/>
<path d="M191.369 95.5456C200.608 100.88 205.398 107.406 205.325 114.495C205.202 123.242 197.515 132.29 183.678 139.861L183.524 139.902L119.429 123.125C114.921 121.949 108.849 121.685 103.024 122.341L45.3966 129.397C34.4981 130.756 24.3528 128.788 21.2788 124.68C20.3515 123.366 20.1349 121.944 20.7826 120.373C25.5523 109.642 41.1151 99.3059 63.5718 92.3022C107.258 78.6235 164.527 80.0486 191.369 95.5456ZM183.472 139.094C196.947 131.702 204.312 122.987 204.517 114.547C204.616 107.862 199.964 101.545 191.017 96.3798C164.37 80.9951 107.351 79.5851 64.0691 93.2377C41.8631 100.256 26.4687 110.3 21.8113 120.838C21.2909 121.964 21.4253 123.078 22.2143 124.182C24.9554 127.969 35.0035 129.881 45.4979 128.548L102.972 121.533L102.998 121.937L102.972 121.533C108.95 120.836 115.022 121.099 119.781 122.291L183.472 139.094Z" fill="#343538"/>
<path d="M190.826 95.362C192.382 96.2604 193.785 97.1999 195.188 98.1393C203.532 104.124 207.597 111.009 207.007 118.319C206.282 127.885 197.311 137.359 181.817 144.881L181.663 144.922L118.8 123.54C114.363 122.016 108.265 121.348 102.246 121.892L42.8759 126.127C31.9103 126.928 22.0045 124.321 19.1963 119.976C18.2278 118.509 18.1797 116.796 19.0781 115.24C25.2846 104.041 42.3363 94.0462 65.96 87.7162C109.47 76.14 163.693 79.6965 190.826 95.362ZM181.667 144.017C196.702 136.618 205.448 127.533 206.158 118.218C206.774 111.312 202.75 104.58 194.641 98.8612C169.551 81.0041 111.92 76.3877 66.2628 88.5394C42.8486 94.731 25.9503 104.685 19.9123 115.592C19.1824 116.856 19.2044 118.165 20.0345 119.423C22.6071 123.501 32.3745 125.899 42.9361 125.124L102.306 120.89L102.332 121.294L102.306 120.89C108.52 120.458 114.674 121.028 119.208 122.608L181.667 144.017Z" fill="#343538"/>
<path d="M189.659 94.6879C193.16 96.7092 196.201 98.8539 198.879 101.178C206.385 107.716 209.611 115.155 208.464 122.532C206.83 132.999 196.534 142.745 179.439 150.121L179.285 150.162L118.227 123.857C113.861 121.985 107.835 120.969 101.636 121.151L40.8861 122.385C29.8534 122.628 20.3818 119.494 17.742 114.858C16.7886 113.14 16.9499 111.288 18.114 109.496C25.7983 97.9836 44.3951 88.2327 69.1708 82.8272C111.737 73.559 162.428 78.9662 189.659 94.6879ZM179.192 149.201C195.828 141.948 205.857 132.438 207.518 122.374C208.65 115.248 205.45 108.213 198.235 101.844C175.009 81.432 117.184 73.3325 69.264 83.7887C44.739 89.2093 26.3107 98.6685 18.8359 110.043C17.8403 111.543 17.75 113.047 18.524 114.401C20.9281 118.772 30.2614 121.697 40.8901 121.479L101.64 120.245C107.936 120.12 114.116 121.095 118.579 123.023L179.192 149.201Z" fill="#343538"/>
<path d="M187.576 93.3557C193.411 96.7246 198.27 100.437 201.998 104.535C208.513 111.668 211.013 119.465 209.196 127.104C206.458 138.36 194.782 148.477 176.101 155.455L175.947 155.496L117.307 124.104C113.166 121.843 107.211 120.48 100.832 120.298L39.0661 118.351C28.2168 118.052 18.9848 114.278 16.7642 109.365C15.8258 107.397 16.0995 105.351 17.6266 103.38C26.8449 91.456 46.9716 82.1993 72.6897 77.8566C114.006 70.9786 160.637 77.8025 187.576 93.3557ZM176.048 154.647C194.326 147.694 205.68 137.911 208.347 127.003C210.093 119.712 207.675 112.221 201.355 105.201C180.396 82.2084 122.798 70.3492 72.7829 78.8181C47.2182 83.1197 27.3422 92.3915 18.1951 103.967C16.8927 105.55 16.69 107.248 17.4901 109.007C19.6286 113.613 28.7222 117.177 39.0702 117.446L100.836 119.393L100.806 119.894L100.836 119.393C107.312 119.63 113.365 121.05 117.756 123.326L176.048 154.647Z" fill="#343538"/>
<path d="M184.688 91.1698C193.344 96.1671 200.241 101.964 204.836 108.378C210.457 116.162 212.022 124.456 209.438 132.301C205.498 144.29 192.304 154.566 172.189 161.107L172.036 161.148L116.525 124.56C112.609 121.91 106.627 120.143 100.32 119.613L37.9151 114.056C27.3055 113.117 18.5077 108.816 16.4555 103.611C15.5883 101.295 16.0304 98.9573 17.8643 96.904C28.7549 84.7786 50.2582 76.0573 77.016 72.8336C116.191 68.0911 158.333 75.9536 184.688 91.1698ZM172.193 160.202C191.904 153.687 204.776 143.743 208.701 132.005C211.116 124.452 209.634 116.464 204.152 108.89C185.768 83.2352 128.855 67.4928 77.1654 73.6978C50.6582 76.9367 29.3083 85.6168 18.5299 97.5476C16.9618 99.3653 16.4936 101.299 17.2786 103.309C19.1514 108.15 27.7136 112.186 37.9191 113.151L100.324 118.708C106.882 119.252 112.904 121.173 116.974 123.782L172.193 160.202Z" fill="#343538"/>
<path d="M181.053 88.0336C193.112 94.9961 202.324 103.297 207.353 112.554C211.926 121.029 212.555 129.821 209.204 137.871C203.813 150.578 189.058 160.862 167.623 166.77L167.47 166.811L115.758 124.766C112.164 121.783 106.309 119.57 99.9759 118.637L37.2957 109.29C26.9257 107.711 18.7565 102.995 16.9699 97.5547C16.1739 94.8907 16.8819 92.3171 19.0786 90.0843C31.5855 77.8547 54.6187 69.6278 82.0533 67.7024C118.336 65.0503 155.767 73.435 181.053 88.0336ZM167.571 165.961C188.602 160.08 203.091 150.032 208.314 137.617C211.65 129.817 211.005 121.276 206.571 113.01C191.166 84.6661 135.358 64.7639 82.2027 68.5666C54.8654 70.5482 32.0978 78.5395 19.7443 90.7279C17.716 92.669 17.0793 94.8948 17.7931 97.2519C19.4974 102.385 27.3748 106.933 37.3969 108.441L99.9799 117.731C106.564 118.68 112.459 121.046 116.248 124.141L167.571 165.961Z" fill="#343538"/>
<path d="M176.628 83.7932C192.577 93.0016 204.366 104.476 209.24 117.145C212.863 126.368 212.403 135.698 207.922 144.133C200.885 157.446 184.585 167.486 162.136 172.679L161.829 172.761L114.684 125.053C111.314 121.681 105.74 118.982 99.4371 117.547L37.0538 104.093C27.0207 101.931 19.4801 96.7995 18.0154 91.0264C17.1934 87.9584 18.2231 85.0518 20.9773 82.7519C35.2538 70.377 59.5925 63.0334 87.7038 62.4064C120.495 61.7585 153.093 70.2052 176.628 83.7932ZM162.14 171.773C184.282 166.662 200.275 156.705 207.088 143.781C211.401 135.638 211.845 126.558 208.361 117.545C196.381 86.6391 142.25 62.2593 87.797 63.3679C59.8391 63.9538 35.7511 71.3125 21.5869 83.4929C19.1957 85.6134 18.2371 88.172 18.8797 90.877C20.3183 96.2461 27.6643 101.265 37.2523 103.3L99.6356 116.754C106.19 118.204 111.86 120.96 115.271 124.485L162.14 171.773Z" fill="#343538"/>
<path d="M171.861 78.5769C192.089 90.2558 206.562 105.614 210.597 122.208C213.06 132.317 211.358 142.227 205.803 150.949C196.94 164.504 179.192 174.357 155.842 178.64L155.536 178.723L113.708 125.398C110.813 121.652 105.521 118.466 99.1912 116.627L37.6211 98.8446C28.0783 96.0581 21.2225 90.4143 20.0235 84.4056C19.3288 80.8924 20.7777 77.7092 23.8949 75.2298C39.9821 62.8629 65.5288 56.3465 94.1484 57.3096C122.977 58.1344 150.562 66.2803 171.861 78.5769ZM155.903 177.638C178.946 173.436 196.33 163.764 205.025 150.5C210.565 142.028 212.154 132.313 209.774 122.51C201.581 88.8634 149.782 59.9949 94.2977 58.1739C65.8315 57.1696 40.4382 63.6449 24.5605 75.8734C21.5556 78.1583 20.4286 81.0087 20.9439 84.1589C22.0607 89.8608 28.6808 95.239 37.9319 97.8571L99.502 115.64L99.3747 116.085L99.502 115.64C105.929 117.535 111.416 120.833 114.505 124.691L155.903 177.638Z" fill="#343538"/>
<path d="M167.055 72.3012C191.854 86.6191 208.911 106.711 211.325 127.685C214.582 156.407 189.367 179.193 148.642 184.598L148.335 184.68L112.69 125.588C110.173 121.412 105.161 117.74 99.1127 115.415L38.8722 93.0835C29.8197 89.6724 23.6898 83.6695 22.9099 77.3841C22.3425 73.4258 24.1694 69.8124 27.9974 67.2248C45.8392 54.9632 72.6352 49.4274 101.61 52.0218C125.683 54.1209 148.577 61.633 167.055 72.3012ZM148.856 183.554C188.925 178.161 213.665 155.748 210.42 127.681C208.394 110.302 196.005 92.9056 175.328 78.6339C154.652 64.3622 128.437 55.1917 101.411 52.8149C72.6873 50.2355 46.0447 55.7302 28.4124 67.8534C24.9474 70.2616 23.3451 73.486 23.6769 77.1786C24.4307 83.06 30.4222 88.8532 39.0296 92.137L99.2701 114.469L99.1428 114.914L99.2701 114.469C105.57 116.809 110.72 120.69 113.334 124.922L148.856 183.554Z" fill="#343538"/>
<path d="M162.852 65.2067C192.222 82.1635 211.721 107.685 211.439 133.326C211.108 163.996 182.716 186.894 140.649 190.356L140.342 190.439L111.59 125.472C109.549 120.922 104.971 116.723 99.0496 113.952L99.2742 113.563L99.0496 113.952L40.7522 86.9074C32.3845 82.984 26.8833 76.5662 26.5225 70.004C26.292 65.4622 28.538 61.5721 32.8824 58.7639C52.5198 46.7611 80.4117 42.2469 109.475 46.7082C129.115 49.7486 147.389 56.279 162.852 65.2067ZM140.904 189.466C182.219 185.959 210.232 163.491 210.534 133.322C210.798 114.673 200.228 95.4734 181.134 79.1334C161.888 62.8345 136.447 51.6477 109.471 47.6136C80.6021 43.2646 52.9199 47.6404 33.5331 59.6583C29.5105 62.1336 27.3769 65.8292 27.5813 69.967C27.916 76.1251 33.1816 82.2772 41.2575 86.0322L99.5549 113.077C105.671 115.96 110.443 120.271 112.469 125.072L140.904 189.466Z" fill="#343538"/>
<path d="M159.293 57.4464C169.894 63.5666 179.457 71.0333 187.595 79.6219C205.147 98.1836 213.326 119.503 210.813 139.578C206.642 172.181 174.936 194.98 131.889 196.321L131.485 196.347L110.573 125.662C109.16 120.697 105.016 115.971 99.3756 112.714L99.6002 112.325L99.3756 112.714L43.6912 80.6944C36.1055 76.3148 31.3864 69.4407 31.3885 62.6991C31.4949 57.5738 34.2722 53.2125 39.2152 50.4905C60.6483 38.7464 89.5649 35.6019 118.37 41.8588C133.079 44.9051 146.845 50.2594 159.293 57.4464ZM132.144 195.431C174.592 194.004 205.726 171.522 209.963 139.476C212.461 119.653 204.365 98.6398 187.008 80.1903C169.595 61.8381 145.196 48.3995 118.325 42.6108C89.617 36.41 61.0073 39.4723 39.7276 51.1753C34.9942 53.759 32.3853 57.8285 32.3501 62.606C32.3219 68.9435 36.8053 75.5518 44.1965 79.8191L99.881 111.839C105.716 115.208 109.901 120.088 111.452 125.262L132.144 195.431Z" fill="#343538"/>
<path d="M157.463 49.3874C171.759 57.6413 183.996 68.3374 193.397 81.0267C208.905 101.78 214.513 124.857 209.363 146.132C201.005 180.596 165.846 203.088 122.086 202.072L121.682 202.098L109.416 125.643C108.535 120.207 105.02 115.065 99.7165 111.225L47.2587 74.0662C40.2605 69.1182 36.3645 61.9414 36.9803 55.0354C37.4236 49.3265 40.9829 44.509 46.5806 41.776C69.8505 30.444 99.541 28.654 128.072 36.9573C138.464 39.8451 148.321 44.1094 157.463 49.3874ZM122.494 201.14C165.711 201.973 200.201 179.743 208.472 145.877C213.608 124.853 207.985 102.027 192.713 81.539C177.343 60.9951 154.332 45.3759 127.776 37.6942C99.4397 29.5032 70.056 31.211 46.9395 42.5019C41.5514 45.0965 38.3138 49.5811 37.8856 55.0394C37.2849 61.6947 41.0014 68.5086 47.8051 73.3444L100.263 110.503C105.761 114.456 109.512 119.863 110.378 125.55L122.494 201.14Z" fill="#343538"/>
<path d="M157.012 40.9582C174.712 51.1773 189.343 65.5892 199.128 82.7792C212.189 105.75 214.975 130.57 207.089 152.988C194.253 189.146 155.85 211.192 111.53 207.777L111.126 207.803L108.357 125.68C108.202 119.885 105.177 114.119 100.252 109.849L51.7873 67.3446C45.5712 61.9404 42.5545 54.3635 43.5893 47.1808C44.5229 40.8474 48.8082 35.671 55.0606 32.9269C80.055 22.2016 110.407 21.9606 138.317 32.2391C144.867 34.5944 151.177 37.5893 157.012 40.9582ZM111.994 206.748C155.772 209.98 193.602 188.252 206.255 152.637C214.07 130.566 211.324 105.9 198.346 83.2354C185.424 60.4738 164.052 42.6889 138.021 32.976C110.362 22.7126 80.1632 22.9124 55.4756 33.5556C49.4328 36.1612 45.5667 41.061 44.5509 47.0877C43.4339 53.9636 46.4244 61.1363 52.446 66.4282L100.854 109.029C105.918 113.509 108.928 119.526 109.222 125.531L111.994 206.748Z" fill="#343538"/>
<path d="M158.332 32.3838C179.338 44.5119 195.692 62.9012 204.732 84.977C215.094 110.151 214.752 136.795 203.896 160.092C186.233 197.872 144.504 219.164 100.043 213.075L99.5975 212.947L99.5714 212.543L107.063 125.451C107.634 119.297 105.35 112.922 100.858 108.124L57.042 60.2642C51.6641 54.3065 49.3734 46.3708 51.1753 38.9826C52.8498 32.0395 57.7637 26.448 64.7119 23.8464C91.4308 13.7276 122.332 15.2303 149.298 27.8167C152.538 29.1683 155.414 30.6994 158.332 32.3838ZM100.604 212.102C144.523 218.008 185.735 196.936 203.118 159.643C213.862 136.541 214.189 110.147 203.908 85.2798C193.628 60.4127 174.162 40.2266 149.156 28.5125C122.384 16.0384 91.8308 14.607 65.3215 24.5874C58.6801 27.1068 53.9345 32.4064 52.275 39.0989C50.5444 46.1392 52.753 53.7681 57.9925 59.5162L101.809 107.376C106.439 112.383 108.707 119.01 108.122 125.414L100.604 212.102Z" fill="#343538"/>
<path d="M161.268 23.7054C185.484 37.6864 202.835 60.412 210.152 87.7174C217.468 115.023 213.804 143.38 199.823 167.595C177.195 206.788 132.156 227.077 87.7626 218.174L87.3175 218.046L106.117 125.294C107.413 118.781 105.968 111.852 102.063 106.486L63.6626 53.0647C58.9284 46.4413 57.6553 38.3151 60.2241 30.7214C62.6958 23.0715 68.4739 17.3306 75.9645 14.9125C104.352 5.49759 135.496 8.82601 161.268 23.7054ZM88.4214 217.257C132.273 225.977 176.698 205.853 199.101 167.049C212.97 143.028 216.619 114.921 209.287 87.8667C202.053 60.8682 184.896 38.2549 160.875 24.3862C135.297 9.61908 104.501 6.36184 76.2262 15.5822C68.889 17.9593 63.3765 23.4645 60.9761 30.7665C58.5195 38.1657 59.8077 46.0413 64.3063 52.399L102.707 105.82C106.75 111.396 108.334 118.534 106.869 125.339L88.4214 217.257Z" fill="#343538"/>
</svg>
