<svg width="230" height="230" viewBox="0 0 230 230" fill="none" xmlns="http://www.w3.org/2000/svg">
<path d="M110.05 128.6C109.95 128.6 109.85 128.6 109.85 128.5L100.65 117.6C100.55 117.5 100.55 117.4 100.65 117.3L105.55 103.9C105.55 103.8 105.65 103.7 105.75 103.7L119.85 101.2C119.95 101.2 120.05 101.2 120.15 101.3L129.35 112.2C129.45 112.3 129.45 112.4 129.35 112.5L124.45 125.9C124.45 126 124.35 126.1 124.25 126.1L110.05 128.6ZM101.15 117.4L110.15 128.1L123.95 125.7L128.75 112.6L119.75 101.9L105.95 104.3L101.15 117.4Z" fill="#343538"/>
<path d="M108.55 129C108.45 129 108.35 129 108.35 128.9L99.65 116.5C99.55 116.4 99.55 116.3 99.65 116.2L106.05 102.5C106.05 102.4 106.15 102.4 106.25 102.3L121.35 101C121.45 101 121.55 101 121.55 101.1L130.25 113.5C130.35 113.6 130.35 113.7 130.25 113.8L123.85 127.5C123.85 127.6 123.75 127.6 123.65 127.7L108.55 129ZM100.15 116.2L108.65 128.4L123.45 127.1L129.75 113.6L121.25 101.4L106.45 102.7L100.15 116.2Z" fill="#343538"/>
<path d="M123.05 129.2H106.85C106.75 129.2 106.65 129.1 106.65 129.1L98.55 115.1C98.55 115 98.55 114.9 98.55 114.8L106.65 100.8C106.65 100.7 106.75 100.7 106.85 100.7H123.05C123.15 100.7 123.25 100.8 123.25 100.8L131.35 114.8C131.35 114.9 131.35 115 131.35 115.1L123.25 129.1C123.25 129.1 123.15 129.2 123.05 129.2ZM107.05 128.6H122.85L130.75 114.9L122.85 101.2H107.05L99.15 114.9L107.05 128.6Z" fill="#343538"/>
<path d="M122.25 130.8C122.15 130.8 122.15 130.8 122.25 130.8L105.15 129.3C105.05 129.3 104.95 129.2 104.95 129.1L97.65 113.5C97.65 113.4 97.65 113.3 97.65 113.2L107.55 99.1C107.65 99 107.75 99 107.75 99L124.85 100.5C124.95 100.5 125.05 100.6 125.05 100.7L132.35 116.3C132.35 116.4 132.35 116.5 132.35 116.6L122.45 130.7C122.35 130.7 122.25 130.8 122.25 130.8ZM105.25 128.7L122.05 130.2L131.75 116.4L124.65 101.1L107.85 99.6L98.15 113.4L105.25 128.7Z" fill="#343538"/>
<path d="M121.15 132.4L103.05 129.2C102.95 129.2 102.85 129.1 102.85 129L96.55 111.8C96.55 111.7 96.55 111.6 96.55 111.5L108.25 97.5C108.35 97.4 108.45 97.4 108.55 97.4L126.55 100.6C126.65 100.6 126.75 100.7 126.75 100.8L133.05 118C133.05 118.1 133.05 118.2 133.05 118.3L121.35 132.3C121.35 132.3 121.25 132.4 121.15 132.4ZM103.35 128.7L121.05 131.8L132.55 118.1L126.35 101.2L108.65 98.1L97.15 111.8L103.35 128.7Z" fill="#343538"/>
<path d="M119.95 134L101.05 129C100.95 129 100.85 128.9 100.85 128.8L95.8499 110C95.8499 109.9 95.8498 109.8 95.9498 109.7L109.65 96C109.75 95.9 109.85 95.9 109.95 95.9L128.75 100.9C128.85 100.9 128.95 101 128.95 101.1L133.95 119.9C133.95 120 133.95 120.1 133.85 120.2L120.15 133.9C120.15 133.9 120.05 134 119.95 134ZM101.45 128.5L119.95 133.5L133.45 120L128.45 101.5L109.95 96.5L96.4498 110L101.45 128.5Z" fill="#343538"/>
<path d="M118.55 135.6C118.55 135.6 118.45 135.6 118.55 135.6L99.05 128.5C98.95 128.5 98.85 128.4 98.85 128.3L95.25 107.9C95.25 107.8 95.25 107.7 95.35 107.6L111.15 94.3C111.25 94.2 111.35 94.2 111.45 94.3L130.85 101.4C130.95 101.4 131.05 101.5 131.05 101.6L134.65 122C134.65 122.1 134.65 122.2 134.55 122.3L118.75 135.6C118.65 135.5 118.65 135.6 118.55 135.6ZM99.35 128L118.55 135L134.15 121.9L130.55 101.9L111.35 94.9L95.75 108L99.35 128Z" fill="#343538"/>
<path d="M116.85 137.1H116.75L96.75 127.8C96.65 127.8 96.65 127.7 96.55 127.6L94.65 105.7C94.65 105.6 94.65 105.5 94.75 105.5L112.75 92.9C112.85 92.8 112.95 92.8 113.05 92.9L133.05 102.2C133.15 102.2 133.15 102.3 133.25 102.4L135.15 124.3C135.15 124.4 135.15 124.5 135.05 124.5L117.05 137.1C116.95 137.1 116.95 137.1 116.85 137.1ZM97.15 127.4L116.85 136.6L134.65 124.2L132.75 102.6L113.05 93.4L95.25 105.8L97.15 127.4Z" fill="#343538"/>
<path d="M114.95 138.6H114.85L94.55 126.9C94.45 126.9 94.45 126.8 94.45 126.7V103.3C94.45 103.2 94.55 103.1 94.55 103.1L114.85 91.4C114.95 91.4 115.05 91.4 115.15 91.4L135.45 103.1C135.55 103.1 135.55 103.2 135.55 103.3V126.7C135.55 126.8 135.45 126.9 135.45 126.9L115.15 138.6C115.05 138.6 115.05 138.6 114.95 138.6ZM94.95 126.5L114.95 138.1L134.95 126.6V103.5L114.95 91.9L94.95 103.4V126.5Z" fill="#343538"/>
<path d="M112.75 140C112.65 140 112.65 140 112.55 140L92.15 125.7C92.05 125.6 92.05 125.6 92.05 125.5L94.15 100.7C94.15 100.6 94.25 100.5 94.35 100.5L116.95 90C117.05 90 117.15 90 117.25 90L137.65 104.3C137.75 104.4 137.75 104.4 137.75 104.5L135.65 129.3C135.65 129.4 135.55 129.5 135.45 129.5L112.85 140C112.85 140 112.85 140 112.75 140ZM92.65 125.3L112.85 139.4L135.15 129L137.25 104.5L117.05 90.4L94.75 100.8L92.65 125.3Z" fill="#343538"/>
<path d="M110.35 141.3C110.25 141.3 110.25 141.3 110.15 141.2L89.85 124.2C89.75 124.1 89.75 124 89.75 123.9L94.35 97.8C94.35 97.7 94.45 97.6 94.55 97.6L119.45 88.6C119.55 88.6 119.65 88.6 119.75 88.6L140.05 105.6C140.15 105.7 140.15 105.8 140.15 105.9L135.55 132C135.55 132.1 135.45 132.2 135.35 132.2L110.35 141.3C110.35 141.3 110.45 141.3 110.35 141.3ZM90.35 123.9L110.45 140.7L135.05 131.8L139.55 106L119.45 89.2L94.85 98.1L90.35 123.9Z" fill="#343538"/>
<path d="M107.65 142.4C107.55 142.4 107.55 142.4 107.45 142.3L87.55 122.4C87.45 122.3 87.45 122.2 87.45 122.1L94.7499 94.9C94.7499 94.8 94.85 94.7 94.95 94.7L122.15 87.4C122.25 87.4 122.35 87.4 122.45 87.5L142.35 107.4C142.45 107.5 142.45 107.6 142.45 107.7L135.15 134.9C135.15 135 135.05 135.1 134.95 135.1L107.65 142.4C107.65 142.4 107.75 142.4 107.65 142.4ZM88.05 122.1L107.75 141.8L134.65 134.6L141.85 107.7L122.15 88L95.2499 95.2L88.05 122.1Z" fill="#343538"/>
<path d="M104.75 143.4C104.65 143.4 104.55 143.4 104.55 143.3L85.2498 120.3C85.1498 120.2 85.1498 120.1 85.2498 120L95.4498 91.8C95.4498 91.7 95.5498 91.6 95.6498 91.6L125.15 86.4C125.25 86.4 125.35 86.4 125.45 86.5L144.75 109.5C144.85 109.6 144.85 109.7 144.75 109.8L134.55 138C134.55 138.1 134.45 138.2 134.35 138.2L104.75 143.4ZM85.7498 120.1L104.85 142.8L134.05 137.7L144.15 109.8L125.05 87.1L95.8498 92.2L85.7498 120.1Z" fill="#343538"/>
<path d="M101.45 144.1C101.35 144.1 101.25 144.1 101.25 144L82.95 117.9C82.85 117.8 82.85 117.7 82.95 117.6L96.35 88.7C96.35 88.6 96.45 88.6 96.55 88.5L128.35 85.7C128.45 85.7 128.55 85.7 128.55 85.8L146.85 111.9C146.95 112 146.95 112.1 146.85 112.2L133.45 141.1C133.45 141.2 133.35 141.2 133.25 141.3L101.45 144.1C101.55 144.1 101.55 144.1 101.45 144.1ZM83.45 117.7L101.55 143.6L132.95 140.9L146.25 112.3L128.15 86.4L96.75 89.1L83.45 117.7Z" fill="#343538"/>
<path d="M131.95 144.6H98.0499C97.9499 144.6 97.8499 144.5 97.8499 144.5L80.8499 115.1C80.8499 115 80.8499 114.9 80.8499 114.8L97.7498 85.4C97.7498 85.3 97.8498 85.3 97.9498 85.3H131.85C131.95 85.3 132.05 85.4 132.05 85.4L149.05 114.8C149.05 114.9 149.05 115 149.05 115.1L132.15 144.5C132.15 144.6 132.05 144.6 131.95 144.6ZM98.1498 144.1H131.75L148.55 115L131.75 85.9H98.1498L81.3499 115L98.1498 144.1Z" fill="#343538"/>
<path d="M130.25 147.9C130.15 147.9 130.15 147.9 130.25 147.9L94.25 144.7C94.15 144.7 94.05 144.6 94.05 144.5L78.75 111.8C78.75 111.7 78.75 111.6 78.75 111.5L99.45 81.9C99.55 81.8 99.65 81.8 99.65 81.8L135.55 85C135.65 85 135.75 85.1 135.75 85.2L151.05 117.9C151.05 118 151.05 118.1 151.05 118.2L130.35 147.8C130.35 147.9 130.25 147.9 130.25 147.9ZM94.45 144.3L130.05 147.4L150.55 118.1L135.45 85.6L99.85 82.5L79.35 111.8L94.45 144.3Z" fill="#343538"/>
<path d="M128.05 151.3L90.2499 144.6C90.1499 144.6 90.05 144.5 90.05 144.4L76.95 108.3C76.95 108.2 76.95 108.1 76.95 108L101.55 78.6C101.65 78.5 101.75 78.5 101.85 78.5L139.65 85.2C139.75 85.2 139.85 85.3 139.85 85.4L152.95 121.5C152.95 121.6 152.95 121.7 152.95 121.8L128.35 151.2C128.25 151.3 128.15 151.3 128.05 151.3ZM90.45 144.1L127.95 150.7L152.35 121.5L139.35 85.7L101.85 79.1L77.45 108.3L90.45 144.1Z" fill="#343538"/>
<path d="M125.55 154.7C125.45 154.7 125.45 154.7 125.55 154.7L86.05 144.1C85.95 144.1 85.85 144 85.85 143.9L75.25 104.4C75.25 104.3 75.25 104.2 75.35 104.1L104.15 75.2C104.25 75.1 104.35 75.1 104.45 75.1L143.85 85.7C143.95 85.7 144.05 85.8 144.05 85.9L154.65 125.4C154.65 125.5 154.65 125.6 154.55 125.7L125.75 154.6C125.65 154.7 125.55 154.7 125.55 154.7ZM86.35 143.6L125.45 154.1L154.05 125.4L143.55 86.2L104.45 75.7L75.85 104.4L86.35 143.6Z" fill="#343538"/>
<path d="M122.45 158L81.6498 143.1C81.5498 143.1 81.4498 143 81.4498 142.9L73.8499 100.1C73.8499 100 73.8498 99.9 73.9498 99.8L107.15 71.9C107.25 71.8 107.35 71.8 107.45 71.9L148.25 86.8C148.35 86.8 148.45 86.9 148.45 87L156.05 129.8C156.05 129.9 156.05 130 155.95 130.1L122.75 158C122.65 158 122.55 158 122.45 158ZM81.9498 142.7L122.45 157.5L155.45 129.8L147.95 87.3L107.45 72.5L74.4498 100.2L81.9498 142.7Z" fill="#343538"/>
<path d="M118.95 161.3H118.85L76.95 141.7C76.85 141.7 76.85 141.6 76.75 141.5L72.75 95.4C72.75 95.3 72.75 95.2 72.85 95.2L110.65 68.7C110.75 68.6 110.85 68.6 110.95 68.7L152.85 88.3C152.95 88.3 152.95 88.4 153.05 88.5L157.05 134.6C157.05 134.7 157.05 134.8 156.95 134.8L119.15 161.2C119.05 161.3 119.05 161.3 118.95 161.3ZM77.35 141.3L118.95 160.7L156.55 134.4L152.55 88.6L110.95 69.2L73.35 95.5L77.35 141.3Z" fill="#343538"/>
<path d="M114.95 164.4H114.85L72.35 139.8C72.25 139.8 72.25 139.7 72.25 139.6V90.4C72.25 90.3 72.35 90.2 72.35 90.2L114.85 65.6C114.95 65.6 115.05 65.6 115.15 65.6L157.65 90.2C157.75 90.2 157.75 90.3 157.75 90.4V139.6C157.75 139.7 157.65 139.8 157.65 139.8L115.15 164.4C115.05 164.4 114.95 164.4 114.95 164.4ZM72.65 139.4L114.95 163.9L157.25 139.4V90.5L114.95 66L72.65 90.5V139.4Z" fill="#343538"/>
<path d="M110.35 167.4C110.25 167.4 110.25 167.4 110.15 167.4L67.35 137.4C67.25 137.3 67.25 137.3 67.25 137.2L71.85 85C71.85 84.9 71.95 84.8 72.05 84.8L119.45 62.7C119.55 62.7 119.65 62.7 119.75 62.7L162.55 92.7C162.65 92.8 162.65 92.8 162.65 92.9L158.05 145.1C158.05 145.2 157.95 145.3 157.85 145.3L110.45 167.4C110.45 167.4 110.45 167.4 110.35 167.4ZM67.85 136.9L110.45 166.7L157.55 144.7L162.05 92.9L119.45 63.1L72.35 85.1L67.85 136.9Z" fill="#343538"/>
<path d="M105.25 170.1C105.15 170.1 105.15 170.1 105.05 170L62.4498 134.2C62.3498 134.1 62.3499 134 62.3499 133.9L72.0499 79.1C72.0499 79 72.1498 78.9 72.2498 78.9L124.55 59.8C124.65 59.8 124.75 59.8 124.85 59.8L167.45 95.6C167.55 95.7 167.55 95.8 167.55 95.9L157.85 150.7C157.85 150.8 157.75 150.9 157.65 150.9L105.25 170.1C105.25 170.1 105.35 170.1 105.25 170.1ZM62.9498 133.9L105.25 169.5L157.25 150.5L166.85 96L124.55 60.4L72.5499 79.4L62.9498 133.9Z" fill="#343538"/>
<path d="M99.65 172.4C99.55 172.4 99.55 172.4 99.45 172.3L57.65 130.4C57.55 130.3 57.55 130.2 57.55 130.1L72.85 72.9C72.85 72.8 72.95 72.7 73.05 72.7L130.15 57.3C130.25 57.3 130.35 57.3 130.45 57.4L172.25 99.3C172.35 99.4 172.35 99.5 172.35 99.6L157.05 156.8C157.05 156.9 156.95 157 156.85 157L99.65 172.4ZM58.05 130.2L99.65 171.9L156.45 156.6L171.75 99.7L130.15 58L73.35 73.3L58.05 130.2Z" fill="#343538"/>
<path d="M93.3498 174.4C93.2498 174.4 93.1498 174.4 93.1498 174.3L52.7498 126.1C52.6498 126 52.6498 125.9 52.7498 125.8L74.3498 66.6C74.3498 66.5 74.4499 66.4 74.5499 66.4L136.55 55.4C136.65 55.4 136.75 55.4 136.85 55.5L177.25 103.8C177.35 103.9 177.35 104 177.25 104.1L155.65 163.3C155.65 163.4 155.55 163.5 155.45 163.5L93.3498 174.4C93.3498 174.4 93.4498 174.4 93.3498 174.4ZM53.2498 125.9L93.4498 173.9L155.15 163L176.65 104.1L136.45 56.1L74.7498 67L53.2498 125.9Z" fill="#343538"/>
<path d="M86.6498 176C86.5498 176 86.4498 176 86.4498 175.9L48.0499 121C47.9499 120.9 47.9499 120.8 48.0499 120.7L76.3498 59.9C76.3498 59.8 76.4499 59.8 76.5499 59.7L143.25 53.8C143.35 53.8 143.45 53.8 143.45 53.9L181.85 108.8C181.95 108.9 181.95 109 181.85 109.1L153.55 169.9C153.55 170 153.45 170 153.35 170.1L86.6498 176ZM48.5499 120.8L86.7498 175.4L153.15 169.5L181.35 109L143.15 54.5L76.7498 60.4L48.5499 120.8Z" fill="#343538"/>
<path d="M79.2499 177C79.1499 177 79.05 176.9 79.05 176.9L43.45 115.1C43.45 115 43.45 114.9 43.45 114.8L79.15 53.1C79.15 53 79.25 53 79.35 53L150.55 52.9C150.65 52.9 150.75 53 150.75 53L186.35 114.7C186.35 114.8 186.35 114.9 186.35 115L150.65 176.8C150.65 176.9 150.55 176.9 150.45 176.9L79.2499 177ZM44.05 115L79.45 176.5L150.35 176.4L185.85 114.9L150.45 53.4L79.55 53.5L44.05 115Z" fill="#343538"/>
<path d="M146.95 183.9L71.45 177.4C71.35 177.4 71.25 177.3 71.25 177.2L39.25 108.5C39.25 108.4 39.25 108.3 39.25 108.2L82.75 46C82.85 45.9 82.85 45.9 82.95 45.9L158.45 52.4C158.55 52.4 158.65 52.5 158.65 52.6L190.65 121.3C190.65 121.4 190.65 121.5 190.65 121.6L147.15 183.8C147.05 183.9 147.05 183.9 146.95 183.9ZM71.55 176.9L146.75 183.4L190.15 121.5L158.35 53.1L83.15 46.6L39.75 108.5L71.55 176.9Z" fill="#343538"/>
<path d="M142.45 191L62.95 177.1C62.85 177.1 62.75 177 62.75 176.9L35.25 101.1C35.25 101 35.25 100.9 35.25 100.8L87.15 39C87.25 38.9 87.35 38.9 87.45 38.9L166.85 52.8C166.95 52.8 167.05 52.9 167.05 53L194.55 128.8C194.55 128.9 194.55 129 194.55 129.1L142.65 190.9C142.65 191 142.55 191 142.45 191ZM63.25 176.6L142.35 190.5L194.05 128.9L166.65 53.4L87.55 39.5L35.85 101.1L63.25 176.6Z" fill="#343538"/>
<path d="M137.05 198.1L54.1498 175.9C54.0498 175.9 53.9498 175.8 53.9498 175.7L31.8499 92.8C31.8499 92.7 31.8498 92.6 31.9498 92.5L92.6498 31.8C92.7498 31.7 92.8498 31.7 92.9498 31.7L175.85 53.8C175.95 53.8 176.05 53.9 176.05 54L198.15 136.9C198.15 137 198.15 137.1 198.05 137.2L137.35 197.9C137.25 198.1 137.15 198.1 137.05 198.1ZM54.4498 175.5L137.05 197.6L197.55 137.1L175.45 54.5L92.8499 32.4L32.3499 92.9L54.4498 175.5Z" fill="#343538"/>
<path d="M130.75 205.1C130.65 205.1 130.65 205.1 130.75 205.1L44.8499 173.9C44.7499 173.9 44.6498 173.8 44.6498 173.7L28.8499 83.8C28.8499 83.7 28.8498 83.6 28.9498 83.5L98.9498 24.8C99.0498 24.7 99.1498 24.7 99.2498 24.8L185.05 55.9C185.15 55.9 185.25 56 185.25 56.1L201.05 146C201.05 146.1 201.05 146.2 200.95 146.3L130.95 205C130.85 205.1 130.75 205.1 130.75 205.1ZM45.1498 173.5L130.65 204.5L200.45 146L184.75 56.4L99.2498 25.4L29.4498 83.9L45.1498 173.5Z" fill="#343538"/>
<path d="M123.35 211.9H123.25L35.25 170.9C35.15 170.9 35.15 170.8 35.05 170.7L26.65 74C26.65 73.9 26.65 73.8 26.75 73.8L106.35 18C106.45 17.9 106.55 17.9 106.65 18L194.65 59C194.75 59 194.75 59.1 194.85 59.2L203.25 155.9C203.25 156 203.25 156.1 203.15 156.1L123.55 211.9C123.45 211.9 123.35 211.9 123.35 211.9ZM35.55 170.5L123.25 211.3L202.65 155.7L194.25 59.3L106.55 18.5L27.25 74.1L35.55 170.5Z" fill="#343538"/>
<path d="M114.85 218.5H114.75L25.25 166.9C25.15 166.9 25.15 166.8 25.15 166.7L25.25 63.4C25.25 63.3 25.35 63.2 25.35 63.2L114.95 11.5C115.05 11.5 115.15 11.5 115.25 11.5L204.75 63.1C204.85 63.1 204.85 63.2 204.85 63.3L204.75 166.6C204.75 166.7 204.65 166.8 204.65 166.8L115.05 218.5C114.95 218.5 114.95 218.5 114.85 218.5ZM25.65 166.5L114.85 217.9L204.15 166.4L204.25 63.4L115.05 12L25.75 63.5L25.65 166.5Z" fill="#343538"/>
</svg>
