<svg width="212" height="22" viewBox="0 0 212 22" fill="none" xmlns="http://www.w3.org/2000/svg">
<path fill-rule="evenodd" clip-rule="evenodd" d="M29.7446 15.004H28.6886L26.2246 7.08398H27.1926L29.2166 13.728L31.3726 7.08398H32.3846L34.4966 13.728L36.5206 7.08398H37.4886L35.0246 15.004H34.0126L31.8566 8.35998L29.7446 15.004Z" fill="white"/>
<path fill-rule="evenodd" clip-rule="evenodd" d="M41.1408 7.91998V10.604H45.5408V11.484H41.1408V14.124H46.0688V15.004H40.2168V7.08398H46.0688V7.91998H41.1408Z" fill="white"/>
<path fill-rule="evenodd" clip-rule="evenodd" d="M53.0204 14.124C53.5484 14.124 53.9884 13.992 54.2964 13.772C54.6044 13.552 54.7364 13.244 54.7364 12.804C54.7364 12.408 54.6044 12.1 54.2964 11.836C53.9884 11.528 53.5044 11.396 52.9324 11.396H50.0724V14.124H53.0204ZM50.0724 10.604H52.7124C53.4604 10.604 53.9444 10.34 54.1644 9.85604C54.2524 9.68004 54.2964 9.50404 54.2964 9.28404C54.2964 9.06404 54.2524 8.88804 54.2084 8.75604C54.1644 8.58004 54.0764 8.44804 53.9444 8.36004C53.6804 8.09604 53.2844 7.92004 52.8004 7.92004H50.0724V10.604ZM55.2204 9.15204C55.2204 10.032 54.8684 10.604 54.1644 10.912C54.8244 11.132 55.2644 11.528 55.4844 12.1C55.5724 12.32 55.6164 12.584 55.6164 12.892C55.6164 13.86 55.0884 14.476 54.0764 14.784C53.7244 14.916 53.3284 14.96 52.8884 14.96H49.1484V7.04004H52.7124C53.5484 7.04004 54.2084 7.26004 54.6484 7.74404C55.0444 8.14004 55.2204 8.62404 55.2204 9.15204Z" fill="white"/>
<path fill-rule="evenodd" clip-rule="evenodd" d="M58.4316 11.88H61.4236V11H58.4316V11.88Z" fill="white"/>
<path fill-rule="evenodd" clip-rule="evenodd" d="M65.6034 8.2722C65.4714 8.4042 65.3394 8.5362 65.2954 8.7122C65.2514 8.8882 65.2074 9.0202 65.2074 9.2402C65.2074 9.4162 65.2954 9.5922 65.4274 9.7242C65.6034 9.8562 65.7794 9.9882 66.0434 10.1202C66.3074 10.2082 66.5714 10.2962 66.9234 10.3842C67.2314 10.4722 67.5834 10.5602 67.9354 10.6482C68.2874 10.7362 68.5954 10.8242 68.9474 10.9562C69.2554 11.0442 69.5634 11.2202 69.8274 11.3522C70.3994 11.7042 70.6634 12.1882 70.6634 12.8042C70.6634 13.5522 70.3994 14.1242 69.8274 14.5202C69.2554 14.9162 68.5074 15.0922 67.5394 15.0922C66.4394 15.0922 65.6034 14.8722 64.9874 14.3882C64.4594 13.9922 64.1954 13.3762 64.1074 12.6282H65.0314C65.0754 13.1562 65.3394 13.5962 65.8234 13.8602C66.2634 14.1242 66.8354 14.2122 67.5394 14.2122C69.0354 14.2122 69.7834 13.7282 69.7834 12.8042C69.7834 12.4962 69.6514 12.2322 69.3874 12.0562C69.1234 11.8802 68.7714 11.7042 68.3754 11.6162C67.9794 11.4842 67.5394 11.3962 67.0554 11.2642C66.5714 11.1762 66.1754 11.0442 65.7354 10.8682C65.3394 10.6922 64.9874 10.4722 64.7234 10.2082C64.4594 9.9442 64.3274 9.5922 64.3274 9.1082C64.3274 8.4482 64.5914 7.9202 65.0754 7.5242C65.5594 7.1282 66.3074 6.9082 67.3194 6.9082C68.3314 6.9082 69.0794 7.1282 69.6514 7.6122C70.1354 8.0082 70.3994 8.5362 70.4434 9.1962H69.5194C69.4314 8.5362 69.0354 8.0962 68.2434 7.8762C67.9794 7.7882 67.6274 7.7442 67.2314 7.7442C66.8354 7.7442 66.4834 7.7882 66.2194 7.8762C65.9554 8.0522 65.7354 8.1402 65.6034 8.2722Z" fill="white"/>
<path fill-rule="evenodd" clip-rule="evenodd" d="M76.7806 15.004H75.9006V11.836L72.5566 7.08398H73.6566L76.3406 10.912L79.0246 7.08398H80.1246L76.7806 11.836V15.004Z" fill="white"/>
<path fill-rule="evenodd" clip-rule="evenodd" d="M83.5116 8.2722C83.3796 8.4042 83.2476 8.5362 83.2036 8.7122C83.1596 8.8882 83.1156 9.0202 83.1156 9.2402C83.1156 9.4162 83.2036 9.5922 83.3356 9.7242C83.5116 9.8562 83.6876 9.9882 83.9516 10.1202C84.2156 10.2082 84.4796 10.2962 84.8316 10.3842C85.1396 10.4722 85.4916 10.5602 85.8436 10.6482C86.1956 10.7362 86.5036 10.8242 86.8556 10.9562C87.1636 11.0442 87.4716 11.2202 87.7356 11.3522C88.3076 11.7042 88.5716 12.1882 88.5716 12.8042C88.5716 13.5522 88.3076 14.1242 87.7356 14.5202C87.1636 14.9162 86.4156 15.0922 85.4476 15.0922C84.3476 15.0922 83.5116 14.8722 82.8956 14.3882C82.3676 13.9922 82.1036 13.3762 82.0156 12.6282H82.9396C82.9836 13.1562 83.2476 13.5962 83.7316 13.8602C84.1716 14.1242 84.7436 14.2122 85.4476 14.2122C86.9436 14.2122 87.6916 13.7282 87.6916 12.8042C87.6916 12.4962 87.5596 12.2322 87.2956 12.0562C87.0316 11.8802 86.6796 11.7042 86.2836 11.6162C85.8876 11.4842 85.4476 11.3962 84.9636 11.2642C84.4796 11.1762 84.0836 11.0442 83.6436 10.8682C83.2476 10.6922 82.8956 10.4722 82.6316 10.2082C82.3676 9.9442 82.2356 9.5922 82.2356 9.1082C82.2356 8.4482 82.4996 7.9202 82.9836 7.5242C83.4676 7.1282 84.2156 6.9082 85.2276 6.9082C86.2396 6.9082 86.9876 7.1282 87.5596 7.6122C88.0436 8.0082 88.3076 8.5362 88.3516 9.1962H87.4276C87.3396 8.5362 86.9436 8.0962 86.1516 7.8762C85.8876 7.7882 85.5356 7.7442 85.1396 7.7442C84.7436 7.7442 84.3916 7.7882 84.1276 7.8762C83.9076 8.0522 83.6876 8.1402 83.5116 8.2722Z" fill="white"/>
<path fill-rule="evenodd" clip-rule="evenodd" d="M97.1955 7.91998H94.4235V15.004H93.5435V7.91998H90.7715V7.08398H97.1955V7.91998Z" fill="white"/>
<path fill-rule="evenodd" clip-rule="evenodd" d="M100.892 7.91998V10.604H105.292V11.484H100.892V14.124H105.82V15.004H100.012V7.08398H105.82V7.91998H100.892Z" fill="white"/>
<path fill-rule="evenodd" clip-rule="evenodd" d="M116.643 7.08398V15.004H115.763V8.44798L112.815 12.188L109.823 8.44798V15.004H108.943V7.08398H109.999L112.815 10.824L115.587 7.08398H116.643Z" fill="white"/>
<path fill-rule="evenodd" clip-rule="evenodd" d="M121.176 8.2722C121.044 8.4042 120.912 8.5362 120.868 8.7122C120.824 8.8882 120.78 9.0202 120.78 9.2402C120.78 9.4162 120.868 9.5922 121 9.7242C121.176 9.8562 121.352 9.9882 121.616 10.1202C121.88 10.2082 122.144 10.2962 122.496 10.3842C122.804 10.4722 123.156 10.5602 123.508 10.6482C123.86 10.7362 124.168 10.8242 124.52 10.9562C124.828 11.0442 125.136 11.2202 125.4 11.3522C125.972 11.7042 126.236 12.1882 126.236 12.8042C126.236 13.5522 125.972 14.1242 125.4 14.5202C124.828 14.9162 124.08 15.0922 123.112 15.0922C122.012 15.0922 121.176 14.8722 120.56 14.3882C120.032 13.9922 119.768 13.3762 119.68 12.6282H120.604C120.648 13.1562 120.912 13.5962 121.396 13.8602C121.836 14.1242 122.408 14.2122 123.112 14.2122C124.608 14.2122 125.356 13.7282 125.356 12.8042C125.356 12.4962 125.224 12.2322 124.96 12.0562C124.696 11.8802 124.344 11.7042 123.948 11.6162C123.552 11.4842 123.112 11.3962 122.628 11.2642C122.144 11.1762 121.748 11.0442 121.308 10.8682C120.912 10.6922 120.56 10.4722 120.296 10.2082C120.032 9.9442 119.9 9.5922 119.9 9.1082C119.9 8.4482 120.164 7.9202 120.648 7.5242C121.132 7.1282 121.88 6.9082 122.892 6.9082C123.904 6.9082 124.652 7.1282 125.224 7.6122C125.708 8.0082 125.972 8.5362 126.016 9.1962H125.092C125.004 8.5362 124.608 8.0962 123.816 7.8762C123.552 7.7882 123.2 7.7442 122.804 7.7442C122.408 7.7442 122.056 7.7882 121.792 7.8762C121.528 8.0522 121.308 8.1402 121.176 8.2722Z" fill="white"/>
<path fill-rule="evenodd" clip-rule="evenodd" d="M128.92 15.004H130.108V13.772H128.92V15.004Z" fill="white"/>
<path fill-rule="evenodd" clip-rule="evenodd" d="M134.289 8.2722C134.157 8.4042 134.025 8.5362 133.981 8.7122C133.937 8.8882 133.893 9.0202 133.893 9.2402C133.893 9.4162 133.981 9.5922 134.113 9.7242C134.289 9.8562 134.465 9.9882 134.729 10.1202C134.993 10.2082 135.257 10.2962 135.609 10.3842C135.917 10.4722 136.269 10.5602 136.621 10.6482C136.973 10.7362 137.281 10.8242 137.633 10.9562C137.941 11.0442 138.249 11.2202 138.513 11.3522C139.085 11.7042 139.349 12.1882 139.349 12.8042C139.349 13.5522 139.085 14.1242 138.513 14.5202C137.941 14.9162 137.193 15.0922 136.225 15.0922C135.125 15.0922 134.289 14.8722 133.673 14.3882C133.145 13.9922 132.881 13.3762 132.793 12.6282H133.717C133.761 13.1562 134.025 13.5962 134.509 13.8602C134.949 14.1242 135.521 14.2122 136.225 14.2122C137.721 14.2122 138.469 13.7282 138.469 12.8042C138.469 12.4962 138.337 12.2322 138.073 12.0562C137.809 11.8802 137.457 11.7042 137.061 11.6162C136.665 11.4842 136.225 11.3962 135.741 11.2642C135.257 11.1762 134.861 11.0442 134.421 10.8682C134.025 10.6922 133.673 10.4722 133.409 10.2082C133.145 9.9442 133.013 9.5922 133.013 9.1082C133.013 8.4482 133.277 7.9202 133.761 7.5242C134.245 7.1282 134.993 6.9082 136.005 6.9082C137.017 6.9082 137.765 7.1282 138.337 7.6122C138.821 8.0082 139.085 8.5362 139.129 9.1962H138.205C138.117 8.5362 137.721 8.0962 136.929 7.8762C136.665 7.7882 136.313 7.7442 135.917 7.7442C135.521 7.7442 135.169 7.7882 134.905 7.8762C134.641 8.0522 134.421 8.1402 134.289 8.2722Z" fill="white"/>
<path fill-rule="evenodd" clip-rule="evenodd" d="M145.904 14.2121C146.828 14.2121 147.62 13.9041 148.192 13.2881C148.764 12.7161 149.028 11.9241 149.028 11.0441C149.028 10.1201 148.764 9.37209 148.192 8.80009C147.62 8.18409 146.828 7.87609 145.904 7.87609C144.98 7.87609 144.188 8.18409 143.616 8.80009C143.044 9.37209 142.78 10.1641 142.78 11.0441C142.78 11.9681 143.044 12.7161 143.616 13.2881C144.232 13.9041 144.98 14.2121 145.904 14.2121ZM145.904 6.99609C147.092 6.99609 148.06 7.39209 148.808 8.18409C149.556 8.93209 149.908 9.90009 149.908 11.0441C149.908 12.1881 149.556 13.1561 148.808 13.9041C148.06 14.6961 147.092 15.0921 145.904 15.0921C144.716 15.0921 143.748 14.6961 143 13.9041C142.252 13.1561 141.9 12.1881 141.9 11.0441C141.9 9.90009 142.252 8.93209 143 8.18409C143.748 7.39209 144.716 6.99609 145.904 6.99609Z" fill="white"/>
<path fill-rule="evenodd" clip-rule="evenodd" d="M153.911 7.08398V14.124H158.267V15.004H153.031V7.08398H153.911Z" fill="white"/>
<path fill-rule="evenodd" clip-rule="evenodd" d="M167.288 7.08398V11.572C167.288 12.628 166.98 13.464 166.364 14.124C165.748 14.784 164.912 15.092 163.944 15.092C162.976 15.092 162.14 14.784 161.524 14.124C160.908 13.464 160.6 12.628 160.6 11.572V7.08398H161.48V11.616C161.48 12.452 161.744 13.112 162.228 13.596C162.668 13.992 163.24 14.212 163.944 14.212C164.648 14.212 165.22 13.992 165.66 13.596C166.188 13.112 166.408 12.452 166.408 11.616V7.08398H167.288Z" fill="white"/>
<path fill-rule="evenodd" clip-rule="evenodd" d="M176.44 7.91998H173.668V15.004H172.788V7.91998H170.016V7.08398H176.44V7.91998Z" fill="white"/>
<path fill-rule="evenodd" clip-rule="evenodd" d="M179.256 15.004H180.136V7.08398H179.256V15.004Z" fill="white"/>
<path fill-rule="evenodd" clip-rule="evenodd" d="M187.264 14.2121C188.188 14.2121 188.98 13.9041 189.552 13.2881C190.124 12.7161 190.388 11.9241 190.388 11.0441C190.388 10.1201 190.124 9.37209 189.552 8.80009C188.98 8.18409 188.188 7.87609 187.264 7.87609C186.34 7.87609 185.548 8.18409 184.976 8.80009C184.404 9.37209 184.14 10.1641 184.14 11.0441C184.14 11.9681 184.404 12.7161 184.976 13.2881C185.548 13.9041 186.34 14.2121 187.264 14.2121ZM187.264 6.99609C188.452 6.99609 189.42 7.39209 190.168 8.18409C190.916 8.93209 191.268 9.90009 191.268 11.0441C191.268 12.1881 190.916 13.1561 190.168 13.9041C189.42 14.6961 188.452 15.0921 187.264 15.0921C186.076 15.0921 185.108 14.6961 184.36 13.9041C183.612 13.1561 183.26 12.1881 183.26 11.0441C183.26 9.90009 183.612 8.93209 184.36 8.18409C185.108 7.39209 186.076 6.99609 187.264 6.99609Z" fill="white"/>
<path fill-rule="evenodd" clip-rule="evenodd" d="M201.213 7.08398V15.004H200.201L195.273 8.31598V15.004H194.393V7.08398H195.449L200.333 13.728V7.08398H201.213Z" fill="white"/>
<path fill-rule="evenodd" clip-rule="evenodd" d="M205.744 8.2722C205.612 8.4042 205.48 8.5362 205.436 8.7122C205.392 8.8882 205.348 9.0202 205.348 9.2402C205.348 9.4162 205.436 9.5922 205.568 9.7242C205.744 9.8562 205.92 9.9882 206.184 10.1202C206.448 10.2082 206.712 10.2962 207.064 10.3842C207.372 10.4722 207.724 10.5602 208.076 10.6482C208.428 10.7362 208.736 10.8242 209.088 10.9562C209.396 11.0442 209.704 11.2202 209.968 11.3522C210.54 11.7042 210.804 12.1882 210.804 12.8042C210.804 13.5522 210.54 14.1242 209.968 14.5202C209.396 14.9162 208.648 15.0922 207.68 15.0922C206.58 15.0922 205.744 14.8722 205.128 14.3882C204.6 13.9922 204.336 13.3762 204.248 12.6282H205.172C205.216 13.1562 205.48 13.5962 205.964 13.8602C206.404 14.1242 206.976 14.2122 207.68 14.2122C209.176 14.2122 209.924 13.7282 209.924 12.8042C209.924 12.4962 209.792 12.2322 209.528 12.0562C209.264 11.8802 208.912 11.7042 208.516 11.6162C208.12 11.4842 207.68 11.3962 207.196 11.2642C206.712 11.1762 206.316 11.0442 205.876 10.8682C205.48 10.6922 205.128 10.4722 204.864 10.2082C204.6 9.9442 204.468 9.5922 204.468 9.1082C204.468 8.4482 204.732 7.9202 205.216 7.5242C205.7 7.1282 206.448 6.9082 207.46 6.9082C208.472 6.9082 209.22 7.1282 209.792 7.6122C210.276 8.0082 210.54 8.5362 210.584 9.1962H209.66C209.572 8.5362 209.176 8.0962 208.384 7.8762C208.12 7.7882 207.768 7.7442 207.372 7.7442C206.976 7.7442 206.624 7.7882 206.36 7.8762C206.096 8.0522 205.876 8.1402 205.744 8.2722Z" fill="white"/>
<path fill-rule="evenodd" clip-rule="evenodd" d="M9.89936 7.21579C9.89936 8.71179 8.66736 9.94379 7.17136 9.94379C5.67536 9.94379 4.44336 8.71179 4.44336 7.21579C4.44336 5.71979 5.67536 4.48779 7.17136 4.48779C8.71136 4.48779 9.89936 5.71979 9.89936 7.21579Z" fill="white"/>
<path fill-rule="evenodd" clip-rule="evenodd" d="M17.2919 7.21579C17.2919 8.71179 16.0599 9.94379 14.5639 9.94379C13.0679 9.94379 11.8359 8.71179 11.8359 7.21579C11.8359 5.71979 13.0679 4.48779 14.5639 4.48779C16.0599 4.48779 17.2919 5.71979 17.2919 7.21579Z" fill="white"/>
<path fill-rule="evenodd" clip-rule="evenodd" d="M9.89936 14.52C9.89936 16.016 8.66736 17.248 7.17136 17.248C5.67536 17.248 4.44336 16.016 4.44336 14.52C4.44336 13.024 5.67536 11.792 7.17136 11.792C8.71136 11.792 9.89936 13.024 9.89936 14.52Z" fill="white"/>
<path fill-rule="evenodd" clip-rule="evenodd" d="M17.2919 14.52C17.2919 16.016 16.0599 17.248 14.5639 17.248C13.0679 17.248 11.8359 16.016 11.8359 14.52C11.8359 13.024 13.0679 11.792 14.5639 11.792C16.0599 11.792 17.2919 13.024 17.2919 14.52Z" fill="white"/>
<path fill-rule="evenodd" clip-rule="evenodd" d="M10.868 0.44C5.148 0.44 0.44 5.148 0.44 10.868C0.44 16.632 5.104 21.296 10.868 21.296C16.632 21.296 21.296 16.632 21.296 10.868C21.296 5.148 16.632 0.44 10.868 0.44ZM10.868 21.736C4.884 21.736 0 16.852 0 10.868C0 4.884 4.884 0 10.868 0C16.852 0 21.736 4.884 21.736 10.868C21.736 16.852 16.852 21.736 10.868 21.736Z" fill="white"/>
<path fill-rule="evenodd" clip-rule="evenodd" d="M10.8686 0.748105C5.28059 0.748105 0.748594 5.28011 0.748594 10.8681C0.748594 16.4561 5.28059 20.9881 10.8686 20.9881C16.4566 20.9881 20.9886 16.4561 20.9886 10.8681C20.9886 5.28011 16.4566 0.748105 10.8686 0.748105ZM10.8686 21.4281C5.06059 21.4281 0.308594 16.6761 0.308594 10.8681C0.308594 5.0601 5.06059 0.308105 10.8686 0.308105C16.6766 0.308105 21.4286 5.0601 21.4286 10.8681C21.4286 16.7201 16.6766 21.4281 10.8686 21.4281Z" fill="white"/>
</svg>
