<?xml version="1.0" encoding="UTF-8"?> <svg xmlns="http://www.w3.org/2000/svg" width="106" height="30" viewBox="0 0 106 30" fill="none"><g clip-path="url(#clip0_326_553)"><path d="M22.839 5.682C22.8185 5.53298 22.6881 5.45031 22.5799 5.44131C22.4726 5.43231 20.369 5.40039 20.369 5.40039C20.369 5.40039 18.6097 3.6943 18.4359 3.52075C18.2622 3.34719 17.9228 3.39959 17.7908 3.43888C17.7892 3.4397 17.4604 3.54121 16.9071 3.71231C16.8145 3.41269 16.6783 3.04429 16.4841 2.67425C15.8578 1.48065 14.9404 0.849467 13.8321 0.847834C13.8305 0.847834 13.8296 0.847834 13.828 0.847834C13.7509 0.847834 13.6747 0.855202 13.5977 0.861748C13.5649 0.822452 13.5321 0.783979 13.4976 0.746316C13.0148 0.230565 12.3959 -0.020763 11.654 0.00134071C10.2226 0.0422736 8.79705 1.0746 7.64116 2.90839C6.82793 4.19859 6.20899 5.81956 6.03357 7.07454C4.38991 7.58292 3.24058 7.9382 3.21516 7.94641C2.38555 8.20672 2.35932 8.2321 2.25111 9.01313C2.17077 9.60334 0 26.3662 0 26.3662L18.1917 29.5082L26.0763 27.5508C26.0763 27.5508 22.8595 5.83102 22.839 5.682ZM15.9963 3.99393C15.5774 4.12328 15.1011 4.27064 14.5846 4.43028C14.574 3.70658 14.4879 2.69964 14.1502 1.8294C15.2364 2.03489 15.7709 3.26205 15.9963 3.99393ZM13.6329 4.72499C12.6795 5.01969 11.6392 5.34143 10.5956 5.664C10.8891 4.54161 11.4457 3.42415 12.1294 2.69145C12.3836 2.41884 12.7393 2.11511 13.1607 1.94156C13.5566 2.76676 13.6427 3.93499 13.6329 4.72499ZM11.6826 0.952618C12.0187 0.945251 12.3016 1.01893 12.5434 1.17775C12.1565 1.37832 11.7826 1.66649 11.4318 2.04225C10.5226 3.01646 9.82583 4.52851 9.54793 5.98736C8.68142 6.25505 7.83377 6.51787 7.05334 6.75856C7.54606 4.4622 9.47332 1.01647 11.6826 0.952618Z" fill="#95BF47"></path><path d="M22.5808 5.44214C22.4734 5.43314 20.3698 5.40123 20.3698 5.40123C20.3698 5.40123 18.6106 3.69513 18.4368 3.52158C18.3721 3.4569 18.2844 3.42334 18.1925 3.40942L18.1933 29.5074L26.0771 27.5508C26.0771 27.5508 22.8603 5.83185 22.8399 5.68283C22.8193 5.53382 22.6882 5.45114 22.5808 5.44214Z" fill="#5E8E3E"></path><path d="M13.8223 9.49033L12.9066 12.9115C12.9066 12.9115 11.8852 12.4473 10.6744 12.5234C8.89871 12.6356 8.87984 13.7539 8.89792 14.0347C8.99464 15.5647 13.0255 15.8988 13.2518 19.4828C13.4296 22.3023 11.754 24.231 9.33977 24.3833C6.44184 24.5659 4.84656 22.859 4.84656 22.859L5.46058 20.2507C5.46058 20.2507 7.0665 21.4607 8.35191 21.3797C9.19138 21.3265 9.4914 20.6445 9.46106 20.1623C9.33484 18.1664 6.05244 18.2843 5.84506 15.0048C5.67043 12.2451 7.48545 9.44858 11.49 9.19643C13.0328 9.09738 13.8223 9.49033 13.8223 9.49033Z" fill="white"></path><path d="M36.4591 16.6544C35.5525 16.1631 35.0865 15.749 35.0865 15.1798C35.0865 14.4555 35.7338 13.9902 36.7445 13.9902C37.921 13.9902 38.9715 14.4815 38.9715 14.4815L39.8 11.9465C39.8 11.9465 39.0382 11.3513 36.7957 11.3513C33.675 11.3513 31.5122 13.136 31.5122 15.6451C31.5122 17.0676 32.5221 18.1541 33.8693 18.9295C34.9573 19.5499 35.3459 19.99 35.3459 20.6363C35.3459 21.3087 34.802 21.8519 33.7921 21.8519C32.2871 21.8519 30.8658 21.0756 30.8658 21.0756L29.9852 23.6106C29.9852 23.6106 31.2984 24.49 33.5075 24.49C36.7192 24.49 39.0244 22.9123 39.0244 20.0671C39.0235 18.5422 37.8584 17.4558 36.4591 16.6544Z" fill="white"></path><path d="M49.254 11.3259C47.674 11.3259 46.4308 12.0762 45.473 13.2138L45.4209 13.1878L46.7934 6.02368H43.2191L39.7488 24.2575H43.3231L44.5143 18.0248C44.9802 15.6708 46.1974 14.2231 47.3374 14.2231C48.1399 14.2231 48.4513 14.7663 48.4513 15.5425C48.4513 16.0338 48.3993 16.629 48.296 17.1202L46.9495 24.2584H50.5241L51.9222 16.8872C52.0778 16.1109 52.1817 15.1804 52.1817 14.5592C52.1803 12.5415 51.1185 11.3259 49.254 11.3259Z" fill="white"></path><path d="M60.2608 11.3262C55.961 11.3262 53.113 15.2059 53.113 19.5248C53.113 22.292 54.8219 24.516 58.0339 24.516C62.2554 24.516 65.1043 20.7403 65.1043 16.3174C65.1043 13.7573 63.6018 11.3262 60.2608 11.3262ZM58.4997 21.7756C57.2823 21.7756 56.7643 20.7411 56.7643 19.4476C56.7643 17.4047 57.8265 14.0683 59.7689 14.0683C61.038 14.0683 61.4516 15.1547 61.4516 16.2151C61.4516 18.4132 60.3909 21.7756 58.4997 21.7756Z" fill="white"></path><path d="M74.2466 11.3262C71.834 11.3262 70.4649 13.4471 70.4649 13.4471H70.4137L70.621 11.5332H67.4613C67.3062 12.8267 67.0205 14.7917 66.7364 16.2663L64.2499 29.327H67.8243L68.8077 24.0507H68.886C68.886 24.0507 69.6193 24.516 70.984 24.516C75.1794 24.516 77.9245 20.2231 77.9245 15.8774C77.9245 13.4731 76.8622 11.3262 74.2466 11.3262ZM70.8279 21.8267C69.9001 21.8267 69.3509 21.3095 69.3509 21.3095L69.9468 17.9731C70.3615 15.7491 71.5267 14.2745 72.7702 14.2745C73.8581 14.2745 74.1945 15.283 74.1945 16.2403C74.1945 18.5423 72.8219 21.8267 70.8279 21.8267Z" fill="white"></path><path d="M83.0266 6.20483C81.8875 6.20483 80.9808 7.11019 80.9808 8.27375C80.9808 9.33423 81.654 10.0585 82.6641 10.0585H82.7158C83.8298 10.0585 84.7877 9.30821 84.8138 7.98959C84.8138 6.95508 84.1145 6.20483 83.0266 6.20483Z" fill="white"></path><path d="M78.0284 24.2577H81.6019L84.0371 11.6111H80.4366L78.0284 24.2577Z" fill="white"></path><path d="M93.1277 11.5851H90.6412L90.7702 10.9899C90.9776 9.77436 91.703 8.68792 92.8943 8.68792C93.5301 8.68792 94.0334 8.869 94.0334 8.869L94.7327 6.07581C94.7327 6.07581 94.1112 5.76562 92.7899 5.76562C91.5208 5.76562 90.2527 6.12774 89.2938 6.95515C88.0764 7.98966 87.5066 9.48936 87.222 10.9899L87.119 11.5851H85.4609L84.9428 14.2752H86.6009L84.7103 24.2585H88.2847L90.1753 14.2752H92.6357L93.1277 11.5851Z" fill="white"></path><path d="M101.726 11.6112C101.726 11.6112 99.4915 17.2325 98.4883 20.301H98.4361C98.3681 19.3128 97.5555 11.6112 97.5555 11.6112H93.7999L95.9505 23.2233C96.0028 23.4816 95.9767 23.6375 95.8727 23.8185C95.4576 24.6199 94.7588 25.3962 93.9299 25.9654C93.2567 26.4566 92.5057 26.7668 91.9103 26.9738L92.8942 30.0001C93.6197 29.845 95.1212 29.2499 96.3903 28.0603C98.0224 26.5346 99.524 24.1806 101.078 20.9733L105.455 11.6104H101.726V11.6112Z" fill="white"></path></g><defs><clipPath id="clip0_326_553"><rect width="105.882" height="30" fill="white"></rect></clipPath></defs></svg> 