<?xml version="1.0" encoding="UTF-8"?> <svg xmlns="http://www.w3.org/2000/svg" width="24" height="24" viewBox="0 0 24 24" fill="none"><path fill-rule="evenodd" clip-rule="evenodd" d="M12 0C5.37258 0 0 5.37258 0 12C0 18.6274 5.37258 24 12 24C18.6274 24 24 18.6274 24 12C24 5.37258 18.6274 0 12 0ZM12.3159 10.0205L12.2834 9.4582C12.1858 8.00085 13.042 6.66972 14.3968 6.15334C14.8954 5.96973 15.7408 5.94678 16.2935 6.10743C16.5103 6.17629 16.9222 6.40579 17.2148 6.61234L17.7459 6.99103L18.3311 6.79595C18.6563 6.69267 19.0898 6.52054 19.2849 6.40579C19.4692 6.30251 19.6317 6.24514 19.6317 6.27956C19.6317 6.47464 19.2307 7.14021 18.8947 7.50741C18.4395 8.0238 18.5696 8.0697 19.4908 7.72544C20.0436 7.53036 20.0544 7.53036 19.9461 7.74839C19.881 7.86315 19.545 8.26478 19.1874 8.63199C18.5804 9.26312 18.5479 9.33198 18.5479 9.85984C18.5479 10.6746 18.1794 12.3729 17.8109 13.3024C17.1281 15.0466 15.6649 16.8483 14.2017 17.7548C12.1425 19.0286 9.40036 19.3499 7.0918 18.604C6.32228 18.3515 5 17.7089 5 17.5941C5 17.5597 5.40102 17.5138 5.88874 17.5023C6.90755 17.4794 7.92635 17.181 8.79342 16.6532L9.37868 16.286L8.70671 16.045C7.75293 15.7007 6.89671 14.9089 6.67994 14.1631C6.61491 13.9221 6.63659 13.9106 7.24353 13.9106L7.87216 13.8991L7.34108 13.6352C6.71246 13.3024 6.13802 12.7401 5.85623 12.1664C5.6503 11.7533 5.39018 10.709 5.46605 10.6287C5.48772 10.5943 5.71533 10.6631 5.97545 10.7549C6.72329 11.0418 6.82084 10.9729 6.38731 10.491C5.57443 9.61886 5.32515 8.32215 5.71533 7.0943L5.89958 6.54349L6.61491 7.28938C8.07808 8.79264 9.80138 9.68771 11.774 9.95164L12.3159 10.0205Z" fill="white"></path></svg> 