<?xml version="1.0" encoding="UTF-8"?> <svg xmlns="http://www.w3.org/2000/svg" width="24" height="24" viewBox="0 0 24 24" fill="none"><path d="M10.0993 9.9992C10.0993 9.08081 9.47432 9.08081 9.47432 9.08081H9.14322H6.90331H6.90234V11.052H9.31481C9.73196 11.052 10.0993 10.919 10.0993 9.9992Z" fill="white"></path><path d="M16.0579 11.0515C14.6944 11.0515 14.5039 12.4117 14.5039 12.4117H17.4051C17.4051 12.4127 17.4229 11.0515 16.0579 11.0515Z" fill="white"></path><path d="M9.47385 12.4125H6.90332V14.7743H9.18045C9.21912 14.7743 9.27616 14.7762 9.34431 14.7743C9.71022 14.7651 10.4058 14.6607 10.4058 13.6268C10.4058 12.4009 9.47385 12.4125 9.47385 12.4125Z" fill="white"></path><path fill-rule="evenodd" clip-rule="evenodd" d="M0 12C0 5.38323 5.38323 0 12 0C18.6173 0 24 5.38323 24 12C24 18.6163 18.6163 24 12 24C5.38323 24 0 18.6163 0 12ZM17.7678 8.03148H14.1237V9.11954H17.7678V8.03148ZM12.2809 13.737C12.2809 16.4327 9.47451 16.3447 9.47451 16.3447H6.90398H6.82857H4.87868V7.51126H6.82857H6.90398H9.47451C10.8719 7.51126 11.9745 8.2832 11.9745 9.8638C11.9745 11.4439 10.6268 11.5445 10.6268 11.5445C12.4032 11.544 12.2809 13.737 12.2809 13.737ZM14.5204 13.5914H19.0984C19.0983 13.5914 19.0985 13.5904 19.0987 13.5884C19.1126 13.4685 19.5418 9.75736 16.0247 9.75736C12.6276 9.75736 12.6309 13.1515 12.6309 13.1515C12.6309 13.1515 12.398 16.5278 16.0247 16.5278C16.0247 16.5278 19.0476 16.7014 19.0476 14.1792H17.4917C17.4917 14.1792 17.5429 15.1295 16.0754 15.1295C16.0754 15.1295 14.5204 15.2329 14.5204 13.5914Z" fill="white"></path></svg> 