<?xml version="1.0" encoding="UTF-8"?> <svg xmlns="http://www.w3.org/2000/svg" width="24" height="24" viewBox="0 0 24 24" fill="none"><path d="M12 0C5.37187 0 0 5.50862 0 12.3047C0 17.7367 3.43594 22.3504 8.20781 23.9776C8.80781 24.0925 9.02812 23.7096 9.02812 23.3841C9.02812 23.0922 9.01875 22.3169 9.00937 21.2927C5.67187 22.0297 4.96875 19.6415 4.96875 19.6415C4.425 18.2201 3.6375 17.842 3.6375 17.842C2.54531 17.081 3.71719 17.0954 3.71719 17.0954C4.92187 17.1815 5.55469 18.3637 5.55469 18.3637C6.62344 20.2446 8.3625 19.699 9.04687 19.3831C9.15469 18.5886 9.46406 18.0478 9.81094 17.7367C7.14844 17.4256 4.34531 16.3727 4.34531 11.6586C4.34531 10.3137 4.81406 9.21773 5.58281 8.35626C5.45625 8.04518 5.04844 6.79604 5.7 5.10182C5.7 5.10182 6.70781 4.77159 9 6.36052C9.95625 6.08772 10.9828 5.95372 12.0047 5.94893C13.0219 5.95372 14.0484 6.08772 15.0094 6.36531C17.2969 4.77159 18.3047 5.1066 18.3047 5.1066C18.9609 6.80083 18.5484 8.04996 18.4266 8.36105C19.1953 9.22252 19.6594 10.3185 19.6594 11.6634C19.6594 16.3871 16.8562 17.4256 14.1797 17.7319C14.6109 18.11 14.9953 18.8614 14.9953 20.01C14.9953 21.6564 14.9812 22.9821 14.9812 23.3841C14.9812 23.7144 15.1969 24.0972 15.8062 23.9776C20.5641 22.3408 24 17.7367 24 12.3047C24 5.50862 18.6281 0 12 0Z" fill="white"></path></svg> 