<?xml version="1.0" encoding="UTF-8"?> <svg xmlns="http://www.w3.org/2000/svg" width="24" height="24" viewBox="0 0 24 24" fill="none"><path fill-rule="evenodd" clip-rule="evenodd" d="M17.3717 7.93593C17.2592 7.63593 17.0857 7.36405 16.8561 7.14374C16.6357 6.91405 16.3639 6.74061 16.0639 6.62811C15.8201 6.53436 15.4545 6.42186 14.7842 6.38905C14.0576 6.35624 13.8373 6.34686 11.9998 6.34686C10.1576 6.34686 9.94199 6.35155 9.21543 6.38905C8.54512 6.42186 8.17949 6.53436 7.93574 6.62811C7.63574 6.74061 7.36387 6.91405 7.14355 7.14374C6.91387 7.36405 6.74043 7.63593 6.62793 7.93593C6.53418 8.17968 6.42168 8.5453 6.38887 9.21561C6.35605 9.94218 6.34668 10.1578 6.34668 12C6.34668 13.8375 6.35605 14.0578 6.38887 14.7844C6.42168 15.4547 6.52949 15.8203 6.62793 16.0641C6.74043 16.3641 6.91387 16.6359 7.14355 16.8562C7.36387 17.0859 7.63574 17.2594 7.93574 17.3719C8.17949 17.4656 8.54512 17.5781 9.21543 17.6109C9.94199 17.6437 10.1576 17.6531 11.9998 17.6531C13.842 17.6531 14.0576 17.6484 14.7842 17.6109C15.4545 17.5781 15.8201 17.4703 16.0639 17.3719C16.6639 17.1422 17.142 16.6641 17.3717 16.0641C17.4654 15.8203 17.5779 15.4547 17.6107 14.7844C17.6436 14.0578 17.6529 13.8375 17.6529 12C17.6529 10.1578 17.6482 9.94218 17.6107 9.21561C17.5779 8.5453 17.4654 8.17968 17.3717 7.93593ZM11.9998 15.5391C10.0451 15.5391 8.46074 13.9547 8.46074 12C8.46074 10.0453 10.0451 8.46093 11.9998 8.46093C13.9545 8.46093 15.5389 10.0453 15.5389 12C15.5389 13.9547 13.9545 15.5391 11.9998 15.5391ZM14.8545 8.32499C14.8545 8.77968 15.2248 9.14999 15.6795 9.14999C16.1342 9.14999 16.5045 8.77968 16.5045 8.32499C16.5045 7.8703 16.1342 7.49999 15.6795 7.49999C15.2248 7.49999 14.8545 7.8703 14.8545 8.32499Z" fill="white"></path><path d="M14.2969 12C14.2969 13.2703 13.2703 14.2969 12 14.2969C10.7297 14.2969 9.70312 13.2703 9.70312 12C9.70312 10.7297 10.7297 9.70312 12 9.70312C13.2703 9.70312 14.2969 10.7297 14.2969 12Z" fill="white"></path><path fill-rule="evenodd" clip-rule="evenodd" d="M24 12C24 18.6281 18.6281 24 12 24C5.37187 24 0 18.6281 0 12C0 5.37187 5.37187 0 12 0C18.6281 0 24 5.37187 24 12ZM18.5297 16.5141C18.6984 16.0734 18.8156 15.5719 18.8484 14.8406C18.8813 14.1047 18.8906 13.8703 18.8906 12C18.8906 10.1297 18.8813 9.89531 18.8484 9.15938C18.8156 8.42344 18.6984 7.92656 18.5297 7.48594C18.3563 7.02656 18.0844 6.60938 17.7328 6.26719C17.3906 5.91563 16.9734 5.64375 16.5141 5.47031C16.0734 5.30156 15.5719 5.18437 14.8406 5.15156C14.1047 5.11875 13.8703 5.10938 12 5.10938C10.1297 5.10938 9.89531 5.11875 9.15938 5.15156C8.42344 5.18437 7.92656 5.30156 7.48594 5.47031C7.02656 5.64375 6.60938 5.91563 6.26719 6.26719C5.91563 6.60938 5.64375 7.02656 5.47031 7.48594C5.30156 7.92656 5.18437 8.42813 5.15156 9.15938C5.11875 9.89531 5.10938 10.1297 5.10938 12C5.10938 13.8703 5.11875 14.1047 5.15156 14.8406C5.18437 15.5766 5.30156 16.0781 5.47031 16.5141C5.64375 16.9734 5.91563 17.3906 6.26719 17.7328C6.60938 18.0844 7.02656 18.3563 7.48594 18.5297C7.92656 18.6984 8.42813 18.8156 9.15938 18.8484C9.89531 18.8813 10.1297 18.8906 12 18.8906C13.8703 18.8906 14.1047 18.8813 14.8406 18.8484C15.5766 18.8156 16.0781 18.6984 16.5141 18.5297C17.4422 18.1734 18.1734 17.4375 18.5297 16.5141Z" fill="white"></path></svg> 