<?xml version="1.0" encoding="UTF-8"?> <svg xmlns="http://www.w3.org/2000/svg" width="24" height="24" viewBox="0 0 24 24" fill="none"><path fill-rule="evenodd" clip-rule="evenodd" d="M0 12C0 5.37187 5.37187 0 12 0C18.6281 0 24 5.37187 24 12C24 18.6281 18.6281 24 12 24C5.37187 24 0 18.6281 0 12ZM5.59219 18.1406H8.5125V9.34688H5.59219V18.1406ZM7.05 8.14688H7.03125C6.05156 8.14688 5.41406 7.47188 5.41406 6.62813C5.41406 5.76562 6.06563 5.10938 7.06875 5.10938C8.07187 5.10938 8.68594 5.76562 8.70469 6.62813C8.70469 7.47188 8.07187 8.14688 7.05 8.14688ZM16.1297 18.1406H19.05V13.0969C19.05 10.3969 17.6063 9.14062 15.6844 9.14062C14.1328 9.14062 13.4391 9.99375 13.05 10.5938V9.34688H10.1297C10.1672 10.1719 10.1297 18.1406 10.1297 18.1406H13.05V13.2328C13.05 12.9703 13.0734 12.7078 13.1484 12.5203C13.3594 11.9953 13.8422 11.4516 14.6484 11.4516C15.7078 11.4516 16.1297 12.2578 16.1297 13.4391V18.1406Z" fill="white"></path></svg> 