<?xml version="1.0" encoding="UTF-8"?> <svg xmlns="http://www.w3.org/2000/svg" width="24" height="24" viewBox="0 0 24 24" fill="none"><path d="M10.4404 14.2482L14.5065 12L10.4404 9.75183L10.4404 14.2482Z" fill="white"></path><path fill-rule="evenodd" clip-rule="evenodd" d="M0 12C0 5.3736 5.3736 0 12 0C18.6264 0 24 5.3736 24 12C24 18.6264 18.6264 24 12 24C5.3736 24 0 18.6264 0 12ZM19.1895 15.6194C19.4982 14.4459 19.4982 12.0123 19.4982 12.0123C19.4982 12.0123 19.5106 9.56653 19.1895 8.39301C19.0164 7.75067 18.51 7.24402 17.8676 7.07117C16.6941 6.75 12 6.75 12 6.75C12 6.75 7.30591 6.75 6.13239 7.0589C5.50232 7.23175 4.9834 7.75067 4.81055 8.39301C4.50165 9.56653 4.50165 12 4.50165 12C4.50165 12 4.50165 14.4459 4.81055 15.607C4.98358 16.2493 5.49005 16.756 6.13239 16.9288C7.31818 17.25 12 17.25 12 17.25C12 17.25 16.6941 17.25 17.8676 16.9411C18.51 16.7682 19.0164 16.2618 19.1895 15.6194Z" fill="white"></path></svg> 