<?xml version="1.0" encoding="UTF-8"?> <svg xmlns="http://www.w3.org/2000/svg" width="130" height="30" viewBox="0 0 130 30" fill="none"><path d="M75.3976 11.8086H70.2802V12.3607C71.8808 12.3607 72.1382 12.7096 72.1382 14.7742V18.4962C72.1382 20.5606 71.8811 20.9386 70.2802 20.9386C69.0512 20.7643 68.2218 20.0954 67.0783 18.816L65.7634 17.3623C67.5357 17.0421 68.4789 15.9084 68.4789 14.6288C68.4789 13.0299 67.1356 11.8086 64.6196 11.8086H59.5881V12.3607C61.1888 12.3607 61.4462 12.7096 61.4462 14.7742V18.4962C61.4462 20.5606 61.1888 20.9386 59.5881 20.9386V21.491H65.2771V20.9386C63.6764 20.9386 63.419 20.5606 63.419 18.4962V17.4497H63.9049L67.0783 21.491H75.3976C79.4856 21.491 81.2582 19.2815 81.2582 16.6351C81.2582 13.9892 79.4858 11.8086 75.3976 11.8086ZM63.4193 16.5477V12.681H64.5912C65.8775 12.681 66.4495 13.5823 66.4495 14.629C66.4495 15.6469 65.8775 16.5479 64.5912 16.5479H63.4193V16.5477ZM75.4835 20.5897H75.2832C74.2543 20.5897 74.1113 20.3282 74.1113 18.9906V12.681C74.1113 12.681 75.3692 12.681 75.4835 12.681C78.4567 12.681 78.9995 14.8905 78.9995 16.6062C78.9995 18.3797 78.4564 20.5897 75.4835 20.5897Z" fill="white"></path><path d="M43.6651 17.624L45.6377 11.6919C46.2097 9.97651 45.9524 9.4824 44.1227 9.4824V8.90063H49.4973V9.4824C47.6963 9.4824 47.2675 9.91848 46.5528 12.0411L43.2934 21.9853H42.9219L40.0056 12.8841L37.0327 21.9853H36.661L33.4878 12.0411C32.8017 9.91848 32.3443 9.4824 30.686 9.4824V8.90063H37.0327V9.4824C35.3458 9.4824 34.8882 9.88935 35.4888 11.6919L37.4041 17.624L40.2916 8.90063H40.8349L43.6651 17.624Z" fill="white"></path><path d="M53.3847 21.8687C50.2402 21.8687 47.6671 19.5137 47.6671 16.6348C47.6671 13.7854 50.2404 11.4299 53.3847 11.4299C56.5295 11.4299 59.1023 13.7854 59.1023 16.6348C59.1023 19.5137 56.5295 21.8687 53.3847 21.8687ZM53.3847 12.332C50.7549 12.332 49.8398 14.745 49.8398 16.635C49.8398 18.5544 50.7549 20.9385 53.3847 20.9385C56.0437 20.9385 56.9585 18.5544 56.9585 16.635C56.9585 14.745 56.0437 12.332 53.3847 12.332Z" fill="white"></path><path d="M88.3192 20.9094V21.4909H81.7725V20.9094C83.688 20.9094 84.0311 20.4153 84.0311 17.5072V12.8552C84.0311 9.94713 83.688 9.48216 81.7725 9.48216V8.90039H87.6901C90.6346 8.90039 92.2647 10.4415 92.2647 12.5063C92.2647 14.5126 90.6346 16.0826 87.6901 16.0826H86.0605V17.5069C86.0605 20.4153 86.4036 20.9094 88.3192 20.9094ZM87.6901 9.94713H86.0605V15.0068H87.6901C89.2913 15.0068 90.0344 13.8728 90.0344 12.5063C90.0344 11.1107 89.2913 9.94713 87.6901 9.94713Z" fill="white"></path><path d="M111.904 18.758L111.761 19.2812C111.504 20.2408 111.189 20.5897 109.16 20.5897H108.759C107.273 20.5897 107.016 20.2408 107.016 18.1765V16.8391C109.246 16.8391 109.417 17.0423 109.417 18.5545H109.96V14.2219H109.417C109.417 15.7338 109.246 15.9373 107.016 15.9373V12.681H108.588C110.618 12.681 110.932 13.0299 111.189 13.9895L111.333 14.5416H111.79L111.59 11.8086H103.185V12.3607C104.785 12.3607 105.043 12.7096 105.043 14.7742V18.4962C105.043 20.3848 104.824 20.8605 103.562 20.9283C102.363 20.742 101.539 20.0765 100.412 18.816L99.0969 17.3623C100.869 17.0421 101.813 15.9084 101.813 14.6288C101.813 13.0299 100.469 11.8086 97.9536 11.8086H92.9221V12.3607C94.5228 12.3607 94.7802 12.7096 94.7802 14.7742V18.4962C94.7802 20.5606 94.523 20.9386 92.9221 20.9386V21.491H98.6113V20.9386C97.0106 20.9386 96.753 20.5606 96.753 18.4962V17.4497H97.2391L100.412 21.491H112.162L112.334 18.7582H111.904V18.758ZM96.7528 16.5477V12.681H97.9247C99.2112 12.681 99.7832 13.5823 99.7832 14.629C99.7832 15.6469 99.2112 16.5479 97.9247 16.5479H96.7528V16.5477Z" fill="white"></path><path d="M117.708 21.8687C116.564 21.8687 115.563 21.2583 115.135 20.88C114.992 21.0257 114.734 21.4618 114.677 21.8687H114.134V17.8566H114.706C114.935 19.7755 116.249 20.9094 117.936 20.9094C118.851 20.9094 119.595 20.3861 119.595 19.514C119.595 18.7581 118.937 18.1763 117.765 17.624L116.135 16.839C114.992 16.2861 114.134 15.3265 114.134 14.0474C114.134 12.6517 115.421 11.4598 117.193 11.4598C118.137 11.4598 118.937 11.8087 119.423 12.2157C119.566 12.0994 119.709 11.7793 119.795 11.4302H120.338V14.8615H119.738C119.537 13.4948 118.794 12.3609 117.279 12.3609C116.479 12.3609 115.735 12.8261 115.735 13.5533C115.735 14.3091 116.335 14.7161 117.708 15.3559L119.28 16.1409C120.652 16.8096 121.195 17.8859 121.195 18.7581C121.195 20.5896 119.623 21.8687 117.708 21.8687Z" fill="white"></path><path d="M126.513 21.8687C125.369 21.8687 124.368 21.2583 123.94 20.88C123.797 21.0257 123.539 21.4618 123.482 21.8687H122.939V17.8566H123.511C123.74 19.7755 125.054 20.9094 126.741 20.9094C127.656 20.9094 128.4 20.3861 128.4 19.514C128.4 18.7581 127.742 18.1763 126.57 17.624L124.94 16.839C123.797 16.2861 122.939 15.3265 122.939 14.0474C122.939 12.6517 124.225 11.4598 125.998 11.4598C126.941 11.4598 127.742 11.8087 128.228 12.2157C128.371 12.0994 128.514 11.7793 128.599 11.4302H129.142V14.8615H128.542C128.342 13.4948 127.599 12.3609 126.084 12.3609C125.283 12.3609 124.54 12.8261 124.54 13.5533C124.54 14.3091 125.14 14.7161 126.513 15.3559L128.085 16.1409C129.457 16.8096 130 17.8859 130 18.7581C130 20.5896 128.428 21.8687 126.513 21.8687Z" fill="white"></path><path d="M2.09631 14.9996C2.09631 20.093 5.00663 24.4947 9.22681 26.5806L3.19168 9.7627C2.48968 11.363 2.09631 13.1341 2.09631 14.9996Z" fill="white"></path><path d="M23.2893 14.3502C23.2893 12.7599 22.7276 11.6585 22.2459 10.8013C21.6046 9.74134 21.0035 8.84372 21.0035 7.78375C21.0035 6.60087 21.8855 5.49977 23.128 5.49977C23.1841 5.49977 23.2373 5.50687 23.2919 5.51006C21.041 3.41266 18.0421 2.13208 14.7483 2.13208C10.3283 2.13208 6.43961 4.43859 4.17737 7.93213C4.4742 7.94119 4.75394 7.94756 4.99155 7.94756C6.31491 7.94756 8.36337 7.78424 8.36337 7.78424C9.04539 7.74335 9.12579 8.76218 8.4445 8.84421C8.4445 8.84421 7.75911 8.92623 6.99644 8.96688L11.6037 22.9051L14.3725 14.4594L12.4013 8.96639C11.72 8.92574 11.0746 8.84372 11.0746 8.84372C10.3928 8.80307 10.4727 7.74286 11.1545 7.78375C11.1545 7.78375 13.2439 7.94707 14.4871 7.94707C15.8102 7.94707 17.8589 7.78375 17.8589 7.78375C18.5414 7.74286 18.6216 8.76169 17.94 8.84372C17.94 8.84372 17.2532 8.92574 16.492 8.96639L21.0641 22.7991L22.3261 18.51C22.8731 16.7302 23.2893 15.4518 23.2893 14.3502Z" fill="white"></path><path d="M14.9702 16.1252L11.1742 27.3441C12.3076 27.683 13.5062 27.8683 14.7482 27.8683C16.2216 27.8683 17.6345 27.6093 18.9496 27.1389C18.9157 27.0838 18.8849 27.0253 18.8596 26.9617L14.9702 16.1252Z" fill="white"></path><path d="M25.8498 8.82593C25.9042 9.23581 25.935 9.67581 25.935 10.1491C25.935 11.4549 25.6952 12.9228 24.973 14.7582L21.1084 26.1225C24.8697 23.8917 27.3997 19.7471 27.3997 14.9999C27.3999 12.7627 26.838 10.6589 25.8498 8.82593Z" fill="white"></path><path d="M14.7483 0C6.61628 0 0 6.72878 0 14.9996C0 23.2715 6.61628 30 14.7483 30C22.88 30 29.4972 23.2715 29.4972 14.9996C29.497 6.72878 22.88 0 14.7483 0ZM14.7483 29.3125C6.98919 29.3125 0.676241 22.8917 0.676241 14.9996C0.676241 7.10805 6.98895 0.687789 14.7483 0.687789C22.5071 0.687789 28.8196 7.10805 28.8196 14.9996C28.8196 22.8917 22.5071 29.3125 14.7483 29.3125Z" fill="white"></path></svg> 