<?xml version="1.0" encoding="UTF-8"?> <svg xmlns="http://www.w3.org/2000/svg" width="115" height="22" viewBox="0 0 115 22" fill="none"><path d="M13.9746 10.8771V21.7549H15.6927H17.4109V16.3282V10.9015L17.8919 10.4615C18.6594 9.75266 19.3008 9.48377 20.2859 9.43488C21.626 9.36155 22.3591 9.86266 22.6683 11.0604C22.7485 11.3782 22.7943 13.2849 22.7943 16.5849V21.6327H24.5125H26.2306V16.8171C26.2306 10.486 26.116 9.63044 25.0394 8.17599C23.8825 6.59933 21.6375 6.07377 19.5528 6.88044C18.8541 7.14933 18.5334 7.34488 17.6743 8.0171L17.4109 8.21266V4.10599V-0.000673294H15.6927H13.9746V10.8771Z" fill="white"></path><path d="M57.043 10.816V21.6327H58.7611H60.4792V18.1982V14.7516L61.0978 14.8371C61.4414 14.8738 61.7965 14.9471 61.8881 14.9838C61.9797 15.0205 62.9533 16.4871 64.0415 18.2349C65.6451 20.8016 66.1032 21.4616 66.401 21.596C66.905 21.816 70.032 21.8282 69.9518 21.596C69.8373 21.2782 65.1411 14.0916 64.7975 13.7127C64.4653 13.346 64.4538 13.2971 64.6371 13.1871C64.7975 13.0771 69.1157 7.68712 69.6311 6.92934C69.78 6.70934 69.7228 6.70934 67.9474 6.74601C66.3094 6.78268 66.0918 6.80712 65.8627 7.02712C65.7138 7.16157 64.7631 8.38379 63.7208 9.72823C62.6899 11.0849 61.7735 12.2338 61.6705 12.2705C61.5674 12.3071 61.2581 12.3438 60.9832 12.3438H60.4792V6.17157V-0.000656128H58.7611H57.043V10.816Z" fill="white"></path><path d="M72.1271 0.0727139C72.0812 0.121603 72.0469 4.99827 72.0469 10.9016V21.6327H73.3641C74.899 21.6327 75.0708 21.5349 75.1968 20.5083L75.277 19.8972L75.8726 20.496C76.6285 21.2783 76.9378 21.4738 77.7396 21.6938C79.9388 22.3049 82.4244 21.2049 83.7416 19.0294C85.265 16.5116 85.391 12.0872 84.005 9.27605C83.1345 7.50383 81.8287 6.58716 80.0648 6.5016C78.4383 6.41605 77.3273 6.8316 76.1475 7.94382L75.5977 8.44494L75.5748 4.25271L75.5404 0.0604916L73.8681 0.0238247C72.9518 0.0116024 72.1729 0.036047 72.1271 0.0727139ZM79.8472 9.61827C80.3282 9.88716 80.5459 10.1072 80.8208 10.596C81.3362 11.5249 81.4737 12.3927 81.4164 14.3849C81.3477 16.2794 81.1873 16.9638 80.5802 17.856C80.019 18.6994 79.3432 19.0049 78.1176 19.0049C77.0753 19.0049 76.5942 18.8216 75.8382 18.1494L75.4831 17.8194V14.4338V11.0483L76.0329 10.486C77.2013 9.27605 78.6101 8.95827 79.8472 9.61827Z" fill="white"></path><path d="M5.26962 6.61192C4.92599 6.67303 4.20438 6.94192 3.68894 7.22303C1.35229 8.44525 0.115234 10.8775 0.115234 14.2386C0.115234 15.9497 0.332864 17.0375 0.928482 18.333C1.77609 20.1419 3.26514 21.4252 5.00617 21.8164C7.09083 22.293 9.23277 21.7797 10.9623 20.3986C11.8787 19.6652 11.8901 19.5919 11.2143 18.6508C10.676 17.9175 10.5844 17.8441 10.1949 17.8441C9.93147 17.8441 9.70239 17.9297 9.57639 18.0764C9.4733 18.1986 9.0495 18.4797 8.66006 18.6875C8.01862 19.0175 7.81245 19.0664 6.96484 19.0664C5.63615 19.0664 4.96035 18.7119 4.34183 17.6975C3.73476 16.683 3.50567 15.5341 3.5744 13.823C3.66603 11.7452 4.15856 10.6086 5.32689 9.83858C5.85378 9.49636 5.94541 9.47192 7.09083 9.47192C8.28207 9.47192 8.32789 9.48414 9.18695 9.94858C9.96583 10.3886 10.0804 10.413 10.3782 10.2786C10.5615 10.2052 10.9394 9.78969 11.2143 9.38636L11.7183 8.62858L11.2029 8.12747C9.83984 6.81969 7.52609 6.23303 5.26962 6.61192Z" fill="white"></path><path d="M33.7906 6.61188C33.447 6.67299 32.7254 6.94188 32.1985 7.22299C29.7587 8.50632 28.4071 11.183 28.5675 14.4219C28.682 16.7685 29.3006 18.443 30.5834 19.8119C31.9465 21.2908 33.7219 21.9508 35.9669 21.8408C37.937 21.743 39.4604 21.1441 40.6173 20.0074L41.2358 19.4085L40.5944 18.5652C40.0904 17.9052 39.8842 17.7219 39.6437 17.7219C39.4833 17.7219 38.8877 17.9663 38.315 18.2719C36.6198 19.1641 35.1537 19.2497 33.8135 18.5285C32.817 17.9908 32.1641 16.8419 32.0038 15.3385L31.9236 14.6663H36.3449C41.6825 14.6663 41.3046 14.7885 41.2817 13.053C41.2358 8.53077 38.1432 5.86633 33.7906 6.61188ZM36.6885 9.3741C37.4674 9.71633 38.2577 11.0608 38.2577 12.0508V12.3441H35.1651C31.683 12.3441 31.9007 12.4174 32.2328 11.3908C32.7712 9.77744 33.9853 8.95855 35.6233 9.12966C35.9669 9.16633 36.448 9.27633 36.6885 9.3741Z" fill="white"></path><path d="M48.3721 6.5994C46.4707 6.96606 44.7412 8.37162 43.9279 10.205C43.1605 11.9527 42.9429 14.7027 43.4125 16.6705C44.0654 19.4083 45.7835 21.3027 48.0972 21.8283C50.2735 22.3172 52.9538 21.5716 54.3169 20.0805L54.8552 19.4938L54.271 18.6627C53.7556 17.9294 53.6525 17.8438 53.2974 17.8438C53.0569 17.8438 52.7591 17.9538 52.5415 18.1372C51.6709 18.8338 51.0295 19.0661 50.0215 19.0661C48.4065 19.0661 47.5474 18.4183 46.9518 16.7561C46.6311 15.9005 46.5166 13.5294 46.7342 12.4783C46.9175 11.5861 47.4787 10.4616 47.9254 10.1072C48.7043 9.47162 49.0365 9.36162 50.1132 9.3494C51.0982 9.3494 51.2128 9.37384 52.0375 9.81384C53.2745 10.4616 53.5036 10.425 54.2138 9.42273L54.7636 8.64051L54.4429 8.28606C53.9618 7.74829 52.9653 7.1494 52.0604 6.84384C51.1441 6.53829 49.3228 6.41606 48.3721 6.5994Z" fill="white"></path><path d="M92.1271 6.60007C90.1799 6.97896 88.267 8.44563 87.4767 10.1934C86.8696 11.5256 86.6749 12.6623 86.7436 14.5934C86.8009 16.4512 87.0414 17.4779 87.7058 18.6879C88.4388 20.0445 90.0424 21.2423 91.6918 21.6945C92.5623 21.9267 94.4523 21.9267 95.4144 21.6823C98.633 20.8756 100.454 18.1623 100.454 14.1779C100.454 10.4256 98.885 7.89563 95.9413 6.89341C94.899 6.53896 93.1579 6.40452 92.1271 6.60007ZM94.7272 9.41119C95.6091 9.66785 96.3995 10.609 96.7431 11.7823C97.018 12.7479 97.0753 14.8012 96.8576 15.8767C96.5598 17.3556 96.0444 18.2112 95.1281 18.7367C94.4637 19.1279 92.6998 19.1279 92.024 18.7367C90.6724 17.9667 90.0424 16.219 90.1799 13.6401C90.2142 12.9556 90.3288 12.1245 90.4204 11.7945C90.764 10.5967 91.5085 9.70452 92.4134 9.41119C92.8487 9.26452 94.2461 9.26452 94.7272 9.41119Z" fill="white"></path><path d="M111.221 6.79505C110.934 6.99061 108.517 10.9384 108.208 11.7084L108.059 12.0995L106.605 9.61838C105.803 8.2495 105.047 7.02727 104.944 6.91727C104.76 6.75838 104.428 6.72172 102.871 6.72172H101.015L103.306 10.3395L105.597 13.9573L103.306 17.6239C102.046 19.6406 100.981 21.3639 100.946 21.4617C100.9 21.6084 101.164 21.6328 102.538 21.6328H104.188L104.543 21.2295C104.932 20.8017 107.509 16.6217 107.681 16.1451C107.819 15.7784 107.624 15.5095 109.491 18.7973C110.258 20.1539 111.003 21.3517 111.14 21.4495C111.473 21.6939 114.943 21.7184 114.852 21.4739C114.829 21.3884 113.763 19.6406 112.492 17.5751C111.232 15.5095 110.19 13.7984 110.19 13.7495C110.19 13.7006 111.175 12.1484 112.377 10.2906C113.58 8.43283 114.6 6.84394 114.623 6.75838C114.714 6.50172 111.599 6.53838 111.221 6.79505Z" fill="white"></path></svg> 