<?xml version="1.0" encoding="UTF-8"?> <svg xmlns="http://www.w3.org/2000/svg" width="93" height="39" viewBox="0 0 93 39" fill="none"><path fill-rule="evenodd" clip-rule="evenodd" d="M92.7221 28.913C93.6563 26.6045 91.9816 25.6898 91.3769 25.9309C91.373 25.9324 91.298 26.0847 91.2965 26.0886C91.2318 26.313 91.1725 26.5373 91.1144 26.7571C90.7253 28.228 90.3889 29.5001 88.8464 29.3026C87.6886 29.1595 87.8926 27.5739 87.9432 27.1847C88.104 25.9366 88.2678 24.6871 88.4318 23.4361C88.7464 21.0371 89.0617 18.6322 89.358 16.2199C89.6876 13.5244 85.8126 13.6752 85.7245 14.5784C85.7188 14.6374 85.7291 14.7173 85.743 14.825C85.7734 15.0597 85.8208 15.426 85.7552 15.9933C85.6168 17.2005 85.4786 18.3598 85.3406 19.5178C85.2032 20.6717 85.0658 21.8243 84.9285 23.0219C84.5213 25.7162 83.1864 26.2045 81.2468 25.9921C80.9303 25.9569 80.6149 25.9194 80.3087 25.8035C80.9184 24.3465 81.3344 22.648 81.5181 20.9633C82.0582 16.1051 79.7749 13.609 77.2447 13.3874C75.0066 13.1896 73.0927 14.6355 72.8523 18.161C72.6418 21.2407 74.0284 24.374 76.4319 26.3687C75.8126 27.2103 75.0051 27.8005 73.8914 27.7071C71.7566 27.5349 70.8634 25.3228 71.0394 22.506C71.1982 20.0412 71.3532 17.5669 71.5089 15.0834C71.7764 10.8143 72.0456 6.5181 72.3383 2.19648C72.5021 -0.242555 68.4461 -0.380711 68.4461 0.483075C68.4461 0.578556 68.4591 0.641152 68.4764 0.724689C68.515 0.911369 68.5752 1.20263 68.561 2.19915C68.4938 6.9823 68.2018 11.7251 67.9117 16.4352C67.8381 17.6314 67.7645 18.8255 67.6949 20.0176C67.4985 23.3617 65.9413 27.1632 64.1414 27.0982C62.9691 27.0565 63.017 25.4567 63.03 25.0671C63.1207 22.0735 63.2121 19.0807 63.3055 16.0856C63.3671 14.0935 62.7288 11.6664 59.62 11.6105C57.4695 11.5714 55.7882 13.3499 54.6187 15.6531C54.5257 13.7016 53.7143 11.5611 50.8516 11.5986C48.7107 11.63 47.0888 13.5007 45.949 15.8839C45.9454 15.7631 45.9419 15.6423 45.9384 15.5214C45.9241 15.0355 45.9099 14.5482 45.8924 14.061C45.8212 12.2527 42.3064 11.9362 42.1705 13.1153C42.1687 13.1334 42.1773 13.1796 42.1915 13.2551C42.2273 13.4466 42.2985 13.8268 42.3243 14.4181C42.381 15.6613 42.4373 16.7015 42.4934 17.7383C42.5514 18.8093 42.6091 19.8765 42.6669 21.16C42.8931 24.2699 40.823 27.3718 37.3326 27.5544C35.0023 27.6807 33.7118 26.5562 32.9701 25.131C37.2576 23.5741 39.431 19.6773 39.2902 16.4545C39.1712 13.8471 37.4696 12.1275 34.7998 12.2894C31.1192 12.5095 27.8899 16.9455 28.4085 22.4409C28.9175 27.8357 32.9907 30.6486 37.0042 30.4324C39.9132 30.2812 41.7361 28.8388 42.9072 27.3982C42.9122 27.5414 42.9371 27.9999 42.9459 28.1445C43.0171 29.7431 44.2716 29.9907 45.1595 29.9578C46.4051 29.9152 46.3727 28.9432 46.3458 28.1362C46.3449 28.1101 46.3441 28.0842 46.3432 28.0584C46.3079 26.9711 46.2729 25.8833 46.2379 24.7952C46.2052 23.7753 46.1724 22.755 46.1392 21.7344C46.1519 17.9475 48.8581 14.4935 50.1424 14.4782C50.9423 14.4636 51.0525 15.5919 51.0717 16.9379C51.1222 20.5957 51.1712 24.25 51.2201 27.9044C51.2435 29.5053 52.4931 29.7925 53.3821 29.7898C54.6321 29.785 54.6304 28.8124 54.6291 28.003C54.629 27.9765 54.629 27.9502 54.629 27.9241C54.6284 26.8856 54.6407 25.8448 54.6529 24.8038C54.6656 23.732 54.6782 22.6601 54.6768 21.5902C54.585 18.2054 57.5767 14.443 58.8637 14.4648C59.6663 14.4782 59.7398 15.6102 59.7168 16.9547C59.6663 19.8913 59.6146 22.8275 59.5618 25.7591C59.5255 27.9712 60.876 29.8499 63.2366 29.9268C65.5191 30.006 67.2038 28.5628 68.2441 26.8157C69.1656 28.8078 70.972 30.3398 73.5075 30.5441C76.0621 30.7539 77.789 29.574 79.094 27.8671C79.7867 28.1522 82.3854 28.9417 84.4294 27.4606C84.1608 29.9123 85.5011 31.7298 87.6741 32.0295C90.1388 32.367 91.8805 30.9988 92.7221 28.913ZM32.1966 22.3995C32.1752 22.2701 32.1537 22.1405 32.1441 22.01C31.9141 20.2013 32.249 15.3756 34.5606 15.2283C35.1718 15.1908 35.5828 15.7335 35.6395 16.6895C35.7949 19.2923 34.4531 21.6257 32.2486 22.785C32.2391 22.6562 32.2179 22.528 32.1966 22.3995ZM76.7239 16.2471C77.5678 16.3229 78.2115 18.0493 77.9386 20.9541C77.8621 21.775 77.7266 22.9449 77.4529 23.9182C76.2638 22.4589 75.5466 20.3015 75.7162 18.218C75.8157 17.0014 76.1165 16.1935 76.7239 16.2471Z" fill="white"></path><path d="M9.81666 29.26C9.90861 29.7854 9.88892 30.0986 9.87405 30.3351C9.86509 30.4776 9.85788 30.5922 9.87788 30.7085C9.95366 31.1506 13.4054 31.4422 12.9526 28.7682C12.0238 23.2904 11.2327 18.1058 10.4401 12.5962C9.65437 7.12454 11.7723 5.96874 14.4942 5.60401C17.3657 5.21861 19.9173 6.89566 20.2437 9.49621C20.7474 13.5281 17.3668 15.4371 14.2496 15.6908C13.9607 15.7142 13.7368 15.8252 13.5784 15.9913C12.8757 16.7196 13.4276 18.4885 14.994 18.3262C17.3006 18.0897 22.8902 19.7855 23.5247 25.7145C23.8619 28.8612 22.0796 33.2712 16.4472 34.1484C9.11704 35.3317 5.0109 30.8655 3.84515 25.7275C2.99092 21.9571 4.43554 20.3398 5.09988 19.5961C5.29571 19.3769 5.42374 19.2336 5.40509 19.1334C5.26196 18.3369 3.18154 16.9718 1.54735 18.6152C0.80871 19.3576 -0.664365 21.311 0.338729 26.4585C1.97024 34.8476 8.92953 38.6158 16.7633 37.5243C23.5967 36.5683 27.7912 31.6826 27.1563 25.3027C26.6488 20.4105 23.6747 17.6963 19.8495 16.4555C22.5909 15.2932 24.2771 12.9345 23.8424 9.06988C23.3517 4.5726 19.0737 1.57096 13.9503 2.38385C7.20194 3.47305 6.02702 7.77055 7.00523 13.2028C7.95394 18.5532 8.89083 23.9056 9.81666 29.26Z" fill="white"></path><path d="M75.1055 36.8948C63.336 35.9856 51.5201 35.8352 39.7312 36.4447C35.5685 36.7076 33.4876 36.8871 29.3352 37.3387C29.0451 37.3697 28.8174 37.4198 28.6478 37.4914C28.4848 37.5603 28.3516 37.6277 28.2598 37.6908C28.1679 37.7528 28.0902 37.8163 28.037 37.8745C27.9911 37.928 27.927 37.9625 27.8571 37.9713C27.7783 37.9782 27.706 37.9445 27.644 37.8623C27.5713 37.7574 27.5125 37.6435 27.469 37.5236C27.4111 37.3736 27.3648 37.2194 27.3305 37.0624C27.2919 36.8951 27.2608 36.7332 27.244 36.5687C27.1636 35.8216 27.2746 35.2039 27.5831 34.7332C27.8923 34.2598 28.2949 33.9953 28.7917 33.9398C32.9958 33.4802 35.105 33.2953 39.3248 33.024C51.3691 32.3931 63.4417 32.545 75.4664 33.4787C77.225 33.6379 78.1087 33.7255 79.8676 33.9184C82.7698 34.2353 84.2218 34.4132 87.1201 34.8208C87.414 34.861 87.6509 34.8694 87.8334 34.8411C88.0118 34.8182 88.158 34.7872 88.2655 34.7493C88.3704 34.7114 88.4607 34.6708 88.5269 34.6291C88.5943 34.5874 88.6601 34.5686 88.7275 34.582C88.8063 34.5943 88.871 34.6482 88.9123 34.7428C88.9525 34.8369 88.9835 34.9624 89.003 35.1148C89.0252 35.2659 89.0313 35.429 89.0291 35.5989C89.0272 35.7664 89.0146 35.9336 88.9915 36.0995C88.8905 36.8423 88.6318 37.4091 88.2227 37.7865C87.8139 38.1684 87.365 38.325 86.8755 38.2545C83.4931 37.7773 81.7969 37.5722 78.4076 37.2189C77.0864 37.08 76.4251 37.0149 75.1055 36.8948Z" fill="white"></path><path d="M88.1789 11.8195C89.5873 11.8195 90.7305 10.6851 90.7305 9.28593C90.7305 7.88673 89.5873 6.75391 88.1789 6.75391C86.769 6.75391 85.627 7.88635 85.627 9.28593C85.627 10.6851 86.769 11.8195 88.1789 11.8195Z" fill="white"></path></svg> 