<?xml version="1.0" encoding="UTF-8"?> <svg xmlns="http://www.w3.org/2000/svg" width="92" height="40" viewBox="0 0 92 40" fill="none"><path d="M0 21.2158H5.78002C8.47548 21.2158 10.7307 21.3984 12.2872 23.2737C13.2727 24.4724 13.429 25.8254 13.429 26.7902C13.429 28.9794 12.5229 30.8289 11.0431 31.7908C9.6684 32.6757 7.77676 32.6757 6.79117 32.6757H4.07015V39.9941H0V21.2158ZM3.96791 29.6816H5.57552C6.8707 29.6816 9.28212 29.6816 9.28212 26.8158C9.28212 24.2641 7.12917 24.2641 5.99021 24.2641H3.96791V29.6816Z" fill="white"></path><path d="M15.1934 21.1641H22.3736C24.4471 21.1385 26.546 21.1385 28.0514 22.44C29.2188 23.4561 29.6845 24.8376 29.6845 26.0621C29.6845 29.5785 26.6767 30.412 25.7706 30.6717C28.5966 30.9315 28.804 32.547 29.1392 34.996C29.4233 37.2109 29.5794 38.1214 29.7101 38.6437C29.9175 39.4771 30.0736 39.6855 30.281 39.9995H25.8473C25.6654 38.9576 25.0945 34.191 24.8361 33.4604C24.4726 32.3929 23.487 32.3929 22.8138 32.3929H19.289V39.9995H15.1934V21.1641ZM19.1583 29.3959H22.3992C22.8649 29.3959 23.7995 29.3959 24.4471 28.8735C24.731 28.6651 25.4837 28.0144 25.4837 26.6842C25.4837 25.4085 24.8617 24.809 24.4982 24.575C23.8762 24.1326 23.1234 24.1326 21.8538 24.1326H19.1583V29.3959Z" fill="white"></path><path d="M64.3188 3.13422H58.7461V0.00878906H73.936V3.13422H68.3605V18.8412H64.3159V3.13422H64.3188Z" fill="white"></path><path d="M75.7773 0.0059391H82.9576C85.031 -0.0197494 87.13 -0.0197534 88.6353 1.2818C89.8027 2.29791 90.2686 3.67939 90.2686 4.90386C90.2686 8.42033 87.2607 9.25377 86.3546 9.51353C89.1808 9.77326 89.388 11.3888 89.7232 13.8377C90.0073 16.0526 90.1634 16.9631 90.2941 17.4855C90.5014 18.319 90.6577 18.5273 90.865 18.8412H86.4313C86.2496 17.7995 85.6787 13.0329 85.4202 12.3021C85.0565 11.2346 84.071 11.2346 83.3978 11.2346H79.8731V18.8412H75.7773V0.0059391ZM79.7424 8.23766H82.9832C83.449 8.23766 84.3834 8.23766 85.0311 7.71532C85.315 7.50696 86.0678 6.85619 86.0678 5.5261C86.0678 4.25024 85.4457 3.65085 85.0821 3.41679C84.4602 2.97437 83.7075 2.97437 82.4379 2.97437H79.7424V8.23766Z" fill="white"></path><path d="M38.4752 28.0626C38.4752 28.9446 38.4752 29.9864 38.3359 30.8256C38.2196 31.3849 38.0235 32.7066 36.663 34.1708C35.2685 35.6721 34.5527 34.8787 34.5527 33.2089V32.5267L31.0449 36.0032V36.8823C31.0449 37.5816 31.0308 38.7889 31.9225 39.3598C34.0414 40.7071 38.8643 33.9824 39.5119 32.9149C41.6109 29.4327 42.0965 26.8867 42.0965 24.3121V13.5029L38.4752 17.2734V28.0626Z" fill="white"></path><path d="M53.8355 12.2732C53.7673 14.5709 52.3358 17.0112 50.8362 18.5726C47.3511 22.1975 47.3511 17.4451 47.3511 16.449C47.3511 12.9954 48.4588 9.05929 51.1117 6.29635C53.435 3.87878 53.8014 5.6313 53.8014 6.43906C53.8014 7.07841 53.8014 7.11268 53.8014 7.11268L57.4541 3.40496L57.4569 2.63716C57.4569 -0.702331 54.895 -0.262772 51.2508 3.53056C46.5671 8.40565 43.6133 15.0019 43.6133 20.3136C43.6133 24.4638 45.4821 26.7844 51.228 20.8075C52.7505 19.2234 54.6195 16.9285 56.0963 13.863C57.4342 11.0801 57.5279 9.43034 57.596 8.35999L53.8355 12.2732Z" fill="white"></path></svg> 