<?xml version="1.0" encoding="UTF-8"?> <svg xmlns="http://www.w3.org/2000/svg" width="111" height="20" viewBox="0 0 111 20" fill="none"><g clip-path="url(#clip0_3724_16465)"><path d="M13.3829 12.5272V9.53815C13.3829 8.85683 13.2725 8.68101 12.5879 8.54914C10.7769 8.17551 8.96591 8.21947 7.1991 8.81288C5.34395 9.45024 4.5268 10.681 4.57097 12.6151C4.61514 14.3733 5.52063 15.692 7.17701 16.3074C8.2371 16.703 9.31927 16.8349 10.4235 16.8129C11.3511 16.7909 12.2345 16.5931 13.0738 16.1755C13.2946 16.0656 13.3829 15.9338 13.3829 15.692C13.3829 14.6371 13.3829 13.5821 13.3829 12.5272ZM13.6921 19.8239C13.6701 19.648 13.6701 19.4942 13.648 19.3403C12.9633 19.5162 12.3229 19.736 11.6382 19.8239C8.43587 20.1975 5.36603 19.8458 2.64956 17.9997C1.1036 16.9447 0.264361 15.3843 0.0655946 13.4942C-0.0448311 12.3733 -0.022746 11.2744 0.308531 10.1975C0.86066 8.37332 2.1416 7.1865 3.84216 6.41727C5.23352 5.80189 6.71323 5.47222 8.21502 5.36233C9.38553 5.27441 10.5781 5.25244 11.7486 5.29639C13.1842 5.36233 14.5976 5.56013 15.9227 6.13156C16.9387 6.5931 17.7337 7.27441 17.9325 8.43925C17.9546 8.5931 17.9767 8.74694 17.9767 8.90079C17.9767 11.9338 17.9767 14.9667 17.9767 18.0217C17.9767 18.725 17.6675 19.1645 17.0491 19.4283C16.3424 19.736 15.5915 19.8019 14.8406 19.8239C14.4651 19.8239 14.1118 19.8239 13.6921 19.8239Z" fill="white"></path><path d="M50.8615 12.5055C50.8615 11.4286 50.8615 10.3736 50.8615 9.29669C50.8615 8.96702 50.7511 8.76922 50.4419 8.68131C50.3094 8.63735 50.1989 8.57142 50.0664 8.54944C48.5205 8.21977 46.9745 8.26373 45.4285 8.5934C44.501 8.7912 43.6396 9.16483 42.955 9.86812C42.1379 10.7472 41.9612 11.8022 42.0716 12.945C42.2041 14.4176 42.8888 15.5604 44.2801 16.1319C45.0531 16.4615 45.8923 16.6593 46.7095 16.7692C48.0346 16.945 49.3155 16.8132 50.5302 16.1978C50.7511 16.0879 50.8394 15.956 50.8394 15.7143C50.8394 14.6374 50.8615 13.5604 50.8615 12.5055ZM51.1928 19.8022C51.1707 19.6483 51.1707 19.4945 51.1486 19.3407C50.464 19.5165 49.8014 19.7363 49.1389 19.8242C46.1794 20.1978 43.3305 19.8681 40.7023 18.3736C38.6263 17.1868 37.6104 15.3187 37.4779 12.9231C37.3895 11.2308 37.6767 9.67032 38.7367 8.30768C39.6864 7.12087 40.9894 6.43955 42.425 5.97801C44.1034 5.45054 45.8482 5.27472 47.5929 5.23076C49.2935 5.1868 50.9719 5.34065 52.6062 5.84615C53.1142 5.99999 53.6221 6.24175 54.0859 6.52746C54.9693 7.07691 55.411 7.91208 55.411 8.96702C55.411 11.978 55.411 14.967 55.411 17.978C55.411 18.6593 55.1018 19.0989 54.5056 19.4066C53.9093 19.7363 51.8553 19.9121 51.1928 19.8022Z" fill="white"></path><path d="M62.4349 19.8246H57.8633V19.385C57.8633 15.3411 57.8633 11.3191 57.8633 7.27512C57.8633 6.396 58.1283 5.97842 58.9455 5.67073C59.9614 5.2971 61.0435 5.31908 62.1257 5.2971C62.1478 5.4949 62.1478 5.67073 62.1478 5.84655C62.722 5.71468 63.2741 5.56083 63.8263 5.45094C65.4827 5.16523 67.139 5.18721 68.8175 5.23116C69.988 5.25314 71.1365 5.45095 72.2186 5.93446C74.0517 6.74765 75.0234 8.22018 75.0676 10.1762C75.156 13.2971 75.1118 16.418 75.1118 19.5389C75.1118 19.6268 75.0897 19.6927 75.0676 19.8246H74.2063C73.1241 19.8246 72.0419 19.8026 70.9598 19.8246C70.6506 19.8246 70.5622 19.7586 70.5622 19.429C70.5843 16.7037 70.5181 13.9784 70.5843 11.2312C70.6285 9.23116 69.7451 8.54985 68.1108 8.396C66.4986 8.24215 64.8864 8.33007 63.3404 8.96743C62.6999 9.23116 62.4128 9.53886 62.4349 10.3081C62.5012 13.3191 62.457 16.3301 62.457 19.3411V19.8246H62.4349Z" fill="white"></path><path d="M110.935 16.418C111.244 18.1542 110.427 19.385 108.572 19.6927C105.524 20.1982 102.476 20.1322 99.4946 19.1652C97.8824 18.6377 96.5131 17.7366 95.6076 16.2641C95.0334 15.3191 94.7463 14.2861 94.6579 13.2092C94.5696 11.9784 94.6359 10.7476 95.1438 9.5828C95.8505 7.95643 97.1536 6.94544 98.7658 6.2861C100.135 5.73665 101.593 5.47291 103.072 5.36302C104.994 5.20917 106.915 5.25313 108.815 5.45093C109.124 5.47291 109.455 5.53884 109.764 5.5828V8.65972C109.146 8.59379 108.549 8.50588 107.931 8.46192C105.988 8.30808 104.022 8.22016 102.123 8.79159C101.504 8.96742 100.908 9.27511 100.378 9.64874C99.5829 10.2202 99.2296 11.0773 99.1854 12.0443C99.1191 13.2751 99.34 14.418 100.223 15.341C100.974 16.1323 101.968 16.4839 103.006 16.6817C104.707 17.0114 106.429 16.9674 108.13 16.7696C109.102 16.6597 110.029 16.5279 110.935 16.418Z" fill="white"></path><path d="M82.0016 5.34037H85.8886C85.8444 6.21949 85.8444 7.09861 85.2481 7.80191C84.8285 8.3074 84.2322 8.41729 83.6138 8.43927C83.0838 8.46125 82.5758 8.43927 82.0016 8.43927V8.83488C82.0016 11.0107 82.0016 13.1865 82.0016 15.3404C82.0016 16.2195 82.4212 16.681 83.3267 16.725C84.0335 16.747 84.7623 16.747 85.469 16.747C85.6015 16.747 85.734 16.747 85.8886 16.747V19.8678C85.6457 19.8678 85.3807 19.8678 85.1377 19.8678C83.8347 19.8239 82.5317 19.8459 81.2507 19.714C79.8814 19.5601 78.733 18.9667 78.0263 17.692C77.7171 17.1206 77.5625 16.5272 77.5625 15.8898C77.5625 11.714 77.5625 7.56015 77.5625 3.38433C77.5625 3.31839 77.5625 3.27444 77.5846 3.18652H82.0016V5.34037Z" fill="white"></path><path d="M24.846 8.46125C24.846 8.61509 24.8239 8.72498 24.8239 8.83487C24.8239 11.0107 24.8239 13.1865 24.8239 15.3404C24.8239 16.2195 25.2435 16.681 26.1269 16.725C26.8336 16.747 27.5624 16.747 28.2692 16.747C28.4017 16.747 28.5342 16.747 28.6888 16.747V19.8459C28.4679 19.8459 28.2692 19.8459 28.0483 19.8459C26.5907 19.8239 25.111 19.9777 23.6755 19.6261C22.1295 19.2744 20.9369 18.4612 20.5394 16.8349C20.4289 16.4173 20.4069 15.9777 20.3848 15.5382C20.3848 11.5601 20.3848 7.56015 20.3848 3.58213V3.18652H24.8239V5.34037H28.7109C28.733 6.19751 28.6667 7.0107 28.1808 7.71399C27.7612 8.3074 27.1207 8.43927 26.4582 8.46125C25.9281 8.46125 25.3981 8.46125 24.846 8.46125Z" fill="white"></path><path d="M30.8535 19.8462V0H35.4251V0.395604C35.4251 6.74725 35.4251 13.0989 35.4251 19.4505C35.4251 19.7802 35.3589 19.8681 35.0055 19.8681C33.7467 19.8462 32.4657 19.8681 31.2069 19.8681H30.8535V19.8462Z" fill="white"></path><path d="M92.5587 5.3623H88.0312V19.8238H92.5587V5.3623Z" fill="white"></path><path d="M90.2843 3.71476C89.423 3.69278 88.65 3.473 88.0978 2.7697C87.6341 2.19827 87.6341 1.473 88.0978 0.901571C89.0917 -0.351176 91.521 -0.329198 92.5149 0.945527C93.0228 1.60487 92.8903 2.50597 92.2057 3.05542C91.7198 3.49498 91.0131 3.71476 90.2843 3.71476Z" fill="white"></path></g><defs><clipPath id="clip0_3724_16465"><rect width="111" height="20" fill="white"></rect></clipPath></defs></svg> 