<?xml version="1.0" encoding="UTF-8"?> <svg xmlns="http://www.w3.org/2000/svg" width="92" height="32" viewBox="0 0 92 32" fill="none"><path d="M0.109375 0.71875H3.78124L6.1664 18.712H6.22916L8.6143 0.71875H11.9724L8.45739 23.9066H3.59294L0.109375 0.71875Z" fill="white"></path><path d="M18.971 0.71875H23.9296L27.7269 23.9066H24.0865L23.4274 19.3066V19.3691H19.2848L18.6258 23.9066H15.2363L18.971 0.71875ZM22.9566 16.2085L21.3247 4.75549H21.2619L19.6614 16.2085H22.9566Z" fill="white"></path><path d="M34.1296 4.00447H30.3008V0.71875H41.5989V4.03575H37.7701V23.9066H34.1296V4.00447Z" fill="white"></path><path d="M47.4042 22.7179C46.494 21.7165 46.0547 20.277 46.0547 18.3995V17.0851H49.5068V18.6811C49.5068 20.1831 50.1346 20.9342 51.3898 20.9342C52.0176 20.9342 52.4883 20.7463 52.8021 20.4021C53.116 20.0579 53.2728 19.4321 53.2728 18.6186C53.2728 17.6484 53.0532 16.8035 52.6139 16.0525C52.1744 15.3015 51.3585 14.4253 50.1659 13.3926C48.6595 12.0784 47.5925 10.8579 46.9962 9.794C46.3999 8.73007 46.086 7.50965 46.086 6.16407C46.086 4.31781 46.5568 2.90965 47.4669 1.90829C48.4084 0.90693 49.7579 0.40625 51.5154 0.40625C53.2728 0.40625 54.591 0.90693 55.4697 1.90829C56.3799 2.90965 56.8192 4.34911 56.8192 6.22667V7.19673H53.367V6.00762C53.367 5.2253 53.2101 4.63074 52.8963 4.25523C52.5824 3.87972 52.1431 3.72326 51.5468 3.72326C50.3228 3.72326 49.7266 4.47428 49.7266 5.94502C49.7266 6.78993 49.9462 7.57225 50.417 8.29197C50.8563 9.0117 51.7037 9.91918 52.8963 10.9518C54.4341 12.2661 55.4697 13.4865 56.066 14.5505C56.6309 15.6458 56.9447 16.8974 56.9447 18.3682C56.9447 20.277 56.474 21.7165 55.5325 22.7491C54.591 23.7505 53.2101 24.2825 51.4213 24.2825C49.6638 24.2198 48.3143 23.7191 47.4042 22.7179Z" fill="white"></path><path d="M65.0706 0.71875H70.0292L73.8266 23.9066H70.1861L69.527 19.3066V19.3691H65.3845L64.7254 23.9066H61.3359L65.0706 0.71875ZM69.0563 16.2085L67.4244 4.75549H67.3616L65.761 16.2085H69.0563Z" fill="white"></path><path d="M78.8809 0.71875H82.5214V10.482L87.1976 0.71875H90.838L86.4757 9.23031L90.9008 23.9066H87.072L83.9964 13.5799L82.5214 16.5215V23.9066H78.8809V0.71875Z" fill="white"></path><path d="M3.62305 27.9746H4.34487V29.0385L5.34914 27.9746H6.22788L4.94115 29.3827L6.25926 30.8534H5.28637L4.43902 29.8208L4.34487 29.946V30.8848H3.62305V27.9746Z" fill="white"></path><path d="M10.0884 27.9121C10.3709 27.9121 10.622 27.9746 10.8731 28.1311C11.1241 28.2563 11.3124 28.4441 11.4379 28.6944C11.5635 28.9134 11.6262 29.1951 11.6262 29.4454C11.6262 29.727 11.5635 29.9774 11.4379 30.1965C11.3124 30.4467 11.1241 30.6032 10.8731 30.7597C10.6533 30.8849 10.3709 30.9474 10.0884 30.9474C9.68046 30.9474 9.30386 30.791 9.02141 30.5093C8.73896 30.2277 8.58203 29.8522 8.58203 29.4454C8.58203 29.0074 8.73896 28.6318 9.08417 28.3188C9.36663 28.0372 9.71185 27.9121 10.0884 27.9121ZM10.0884 28.6005C9.86876 28.6005 9.68046 28.6631 9.52355 28.8509C9.36662 29.0074 9.30386 29.1951 9.30386 29.4454C9.30386 29.6958 9.36662 29.9148 9.52355 30.04C9.68046 30.1965 9.86876 30.259 10.0884 30.259C10.3081 30.259 10.4964 30.1651 10.6533 30.0086C10.8103 29.8522 10.8731 29.6644 10.8731 29.4141C10.8731 29.1637 10.8103 28.976 10.6533 28.8195C10.5278 28.6631 10.3395 28.6005 10.0884 28.6005Z" fill="white"></path><path d="M15.1124 29.0365H16.2108V28.0039H16.9327V30.8828H16.2108V29.6937H15.1124V30.8828H14.3906V28.0039H15.1124V29.0365Z" fill="white"></path><path d="M20.2234 30.8534V31.3541H19.5645V30.2589H20.0038L21.0081 27.9746H21.4788L22.4831 30.2589H22.9225V31.3855H22.232V30.8848H20.2234V30.8534ZM21.6985 30.2589L21.2277 29.0385L20.7256 30.2589H21.6985Z" fill="white"></path><path d="M25.9392 30.8534H25.5625V27.9746H26.2844V29.6643L27.7594 27.9746H28.1046V30.8534H27.3828V29.195L25.9392 30.8534Z" fill="white"></path><path d="M30.7383 27.9746H33.4372V28.663H32.4644V30.8534H31.7426V28.663H30.7383V27.9746Z" fill="white"></path><path d="M38.9913 29.6332H36.6689C36.7004 29.8522 36.7945 30.0086 36.9514 30.1339C37.1083 30.259 37.2967 30.3216 37.5163 30.3216C37.7987 30.3216 38.0185 30.2277 38.2067 30.04L38.803 30.3216C38.6461 30.5407 38.4578 30.6971 38.2695 30.7909C38.0498 30.8849 37.7987 30.9474 37.5163 30.9474C37.077 30.9474 36.7004 30.791 36.4179 30.5093C36.1354 30.2277 35.9785 29.8522 35.9785 29.4454C35.9785 29.0074 36.1354 28.6318 36.4179 28.3502C36.7004 28.0686 37.0456 27.9121 37.485 27.9121C37.9557 27.9121 38.3009 28.0686 38.5834 28.3502C38.8658 28.6318 39.0228 29.0386 39.0228 29.508L38.9913 29.6332ZM38.2695 29.0699C38.2067 28.9134 38.1126 28.7883 37.9871 28.6632C37.8615 28.5692 37.6732 28.5067 37.485 28.5067C37.2967 28.5067 37.1083 28.5692 36.9514 28.6632C36.8572 28.7257 36.7631 28.8509 36.7004 29.0386H38.2695V29.0699Z" fill="white"></path><path d="M42.4736 27.9746V28.2876C42.5992 28.1625 42.756 28.0686 42.913 28.006C43.0699 27.9434 43.2269 27.9121 43.4151 27.9121C43.7917 27.9121 44.1056 28.0686 44.388 28.3502C44.6391 28.6318 44.796 29.0074 44.796 29.4454C44.796 29.8835 44.6705 30.2277 44.388 30.5093C44.1056 30.791 43.7917 30.9474 43.4151 30.9474C43.2582 30.9474 43.1013 30.9162 42.9444 30.8535C42.7875 30.791 42.6619 30.6971 42.505 30.572V31.9175H41.7832V27.9746H42.4736ZM43.2582 28.5692C43.0386 28.5692 42.8503 28.6318 42.6934 28.7883C42.5364 28.9448 42.4736 29.1325 42.4736 29.3828C42.4736 29.6332 42.5364 29.8522 42.6934 30.0086C42.8503 30.1651 43.0386 30.259 43.2582 30.259C43.4779 30.259 43.6662 30.1651 43.8231 30.0086C43.9801 29.8522 44.0428 29.6332 44.0428 29.3828C44.0428 29.1325 43.9801 28.9448 43.8231 28.7883C43.6662 28.6632 43.4779 28.5692 43.2582 28.5692Z" fill="white"></path><path d="M50.3857 28.5693L49.7894 28.9135C49.6639 28.7883 49.5697 28.7258 49.4442 28.6632C49.3186 28.6319 49.1932 28.6005 49.0676 28.6005C48.7852 28.6005 48.5655 28.6944 48.4086 28.8509C48.2517 29.0074 48.1575 29.2265 48.1575 29.4767C48.1575 29.727 48.2517 29.9149 48.4086 30.0713C48.5655 30.2277 48.7852 30.2904 49.0362 30.2904C49.3501 30.2904 49.6012 30.1652 49.7894 29.9461L50.3544 30.3216C50.0405 30.7284 49.6012 30.9162 49.0362 30.9162C48.5341 30.9162 48.1261 30.7598 47.8437 30.4781C47.5612 30.1652 47.4043 29.821 47.4043 29.4142C47.4043 29.1325 47.4671 28.8821 47.624 28.6319C47.7495 28.3816 47.9692 28.2251 48.2202 28.0686C48.4713 27.9434 48.7538 27.8809 49.0676 27.8809C49.3501 27.8809 49.6012 27.9434 49.8522 28.0373C50.0405 28.1937 50.2288 28.3502 50.3857 28.5693Z" fill="white"></path><path d="M53.931 29.0385H54.1506C54.4645 29.0385 54.6841 29.0699 54.841 29.1011C54.9979 29.1637 55.1549 29.2576 55.249 29.3827C55.3746 29.5392 55.406 29.7269 55.406 29.946C55.406 30.165 55.3432 30.3528 55.249 30.5092C55.1549 30.6657 55.0294 30.7596 54.8725 30.7909C54.7155 30.8534 54.4958 30.8534 54.2134 30.8534H53.1777V27.9746H53.8995V29.0385H53.931ZM53.931 30.3215H54.1506C54.2762 30.3215 54.3703 30.3215 54.4331 30.2902C54.4958 30.2589 54.5586 30.2276 54.5899 30.1964C54.6214 30.1338 54.6527 30.0711 54.6527 30.0086C54.6527 29.7583 54.4958 29.6331 54.2134 29.6331H53.8995V30.3215H53.931Z" fill="white"></path><path d="M58.166 27.9746H58.8879V29.0385L59.8922 27.9746H60.7709L59.4842 29.3827L60.8022 30.8534H59.8294L58.982 29.8208L58.9192 29.9147V30.8534H58.1975V27.9746H58.166Z" fill="white"></path><path d="M63.6599 30.8534H63.2832V27.9746H64.0051V29.6643L65.4801 27.9746H65.8253V30.8534H65.1035V29.195L63.6599 30.8534Z" fill="white"></path><path d="M69.0875 30.8533H68.7109V27.9744H69.4327V29.6642L70.9077 27.9744H71.2529V30.8533H70.5311V29.1948L69.0875 30.8533ZM68.9306 26.7227H69.5269C69.5583 26.7853 69.6524 26.8479 69.7151 26.8791C69.8093 26.9105 69.9035 26.9418 70.029 26.9418C70.1546 26.9418 70.2487 26.9105 70.3429 26.8791C70.4056 26.8479 70.4684 26.7853 70.4998 26.7227H71.0961C71.0646 26.9417 70.9392 27.1295 70.7822 27.2547C70.5939 27.3798 70.3429 27.4737 70.029 27.4737C69.8093 27.4737 69.621 27.4424 69.4641 27.3798C69.3072 27.3172 69.1816 27.2233 69.1188 27.1295C68.9934 27.0044 68.9306 26.8479 68.9306 26.7227Z" fill="white"></path><path d="M78.2528 30.8534V31.3541H77.5938V30.2589H78.0331L79.0374 27.9746H79.5081L80.5124 30.2589H80.9518V31.3855H80.2613V30.8848H78.2528V30.8534ZM79.7278 30.2589L79.2571 29.0385L78.755 30.2589H79.7278Z" fill="white"></path><path d="M83.8712 26.7852C83.9967 26.7852 84.1223 26.8165 84.1851 26.9104C84.2792 27.0043 84.3105 27.0981 84.3105 27.2546C84.3105 27.3797 84.2792 27.5049 84.1851 27.5988C84.0908 27.6927 83.9967 27.7239 83.8712 27.7239C83.7456 27.7239 83.6201 27.6927 83.526 27.5988C83.4318 27.5049 83.4004 27.3797 83.4004 27.2546C83.4004 27.1294 83.4318 27.0042 83.526 26.9416C83.6515 26.8478 83.7456 26.7852 83.8712 26.7852ZM83.526 27.9743H84.2478V30.8532H83.526V27.9743Z" fill="white"></path><path d="M88.8605 29.7895L89.7392 27.9746H90.2101L90.9318 30.8534H90.2101L89.8334 29.1637L88.986 30.8534H88.7036L87.8563 29.1637L87.4797 30.8534H86.7578L87.4797 27.9746H87.9504L88.8605 29.7895Z" fill="white"></path></svg> 