<?xml version="1.0" encoding="UTF-8"?> <svg xmlns="http://www.w3.org/2000/svg" width="90" height="32" viewBox="0 0 90 32" fill="none"><g clip-path="url(#clip0_3724_17334)"><path d="M34.8714 7.9903C37.4887 7.9903 38.7632 8.99879 38.7632 10.3709C38.7632 11.743 37.4789 12.7515 34.8714 12.7515H32.2832L29.0627 19.4812H35.2995C38.1016 19.4812 39.2935 20.4509 39.2935 21.8133C39.2935 23.1758 38.1016 24.1503 35.2995 24.1503H26.8054L22.9135 32.2085H34.38C43.3654 32.2085 47.8362 28.3297 47.8362 23.2533C47.8771 21.7079 47.5088 20.179 46.7684 18.8206C46.0279 17.4622 44.9415 16.3221 43.6184 15.5152C45.9973 13.9442 47.5492 11.6364 47.5492 8.90182C47.5492 3.39394 42.7719 0 35.1924 0H23.7211L16.4238 15.2242L9.14595 0H0L11.7535 24.8339L8.27027 32.2085H17.2703L28.8876 7.9903H34.8714Z" fill="white"></path><path d="M50.8321 13.7313H81.3688L77.8077 6.22589C76.7663 4.32626 75.227 2.74391 73.3542 1.64756C71.4814 0.551197 69.3451 -0.0180728 67.1731 0.000437427H48.7207C50.8626 2.27546 52.0542 5.27833 52.0531 8.39801C52.0393 10.243 51.6226 12.0629 50.8321 13.7313Z" fill="white"></path><path d="M51.0801 18.4775C51.8951 20.1376 52.3146 21.9628 52.3061 23.8109C52.3408 25.385 52.0381 26.9483 51.4181 28.3965C50.7982 29.8446 49.8752 31.1442 48.7109 32.2084H90.1158L83.6212 18.4775H51.0801Z" fill="white"></path></g><defs><clipPath id="clip0_3724_17334"><rect width="90" height="32" fill="white"></rect></clipPath></defs></svg> 