<?xml version="1.0" encoding="UTF-8"?> <svg xmlns="http://www.w3.org/2000/svg" width="115" height="30" viewBox="0 0 115 30" fill="none"><path d="M111.678 26.1227L111.817 26.0536C112.991 25.639 113.682 24.6024 113.682 23.2202C113.682 21.4234 112.231 20.1104 110.296 20.1104H102.971V29.2326H105.251V26.3301H109.26L111.54 29.2326H114.097L111.678 26.1227ZM110.02 24.5333H105.182V21.9072H110.02C110.918 21.9072 111.471 22.5982 111.471 23.1511C111.471 23.9804 110.849 24.5333 110.02 24.5333Z" fill="white"></path><path d="M80.0974 27.3667V20.1104H77.9551V29.2326H87.0773V27.3667H80.0974Z" fill="white"></path><path d="M45.2656 22.1145H50.1723V29.2326H52.3146V22.1145H57.2213V20.1104H45.2656V22.1145Z" fill="white"></path><path d="M0 22.1145H4.90666V29.2326H7.04901V22.1145H12.0248V20.1104H0V22.1145Z" fill="white"></path><path d="M19.6264 19.9023C16.793 19.9023 13.5449 21.1463 13.5449 24.7399C13.5449 26.6058 14.6506 27.7806 15.5491 28.4026C16.6548 29.1628 18.1752 29.5775 19.6264 29.5775C21.2159 29.5775 22.7363 29.1628 23.842 28.3335C25.0859 27.4351 25.7079 26.1912 25.7079 24.7399C25.7079 21.7683 23.2891 19.9023 19.6264 19.9023ZM19.6264 27.6424C17.9678 27.6424 15.8946 26.8822 15.8946 24.6708C15.8946 22.5976 17.7605 21.6991 19.6264 21.6991C21.9761 21.6991 23.3582 22.8049 23.3582 24.6708C23.2891 26.5367 21.9761 27.6424 19.6264 27.6424Z" fill="white"></path><path d="M94.4018 19.9023C91.5684 19.9023 88.3203 21.1463 88.3203 24.7399C88.3203 26.6058 89.426 27.7806 90.3244 28.4026C91.4302 29.1628 92.9505 29.5775 94.4018 29.5775C95.9913 29.5775 97.5117 29.1628 98.6174 28.3335C99.8613 27.4351 100.483 26.1912 100.483 24.7399C100.483 21.7683 98.0645 19.9023 94.4018 19.9023ZM94.4018 27.6424C92.7432 27.6424 90.67 26.8822 90.67 24.6708C90.67 22.5976 92.5359 21.6991 94.4018 21.6991C96.7515 21.6991 98.1336 22.8049 98.1336 24.6708C98.1336 26.5367 96.7515 27.6424 94.4018 27.6424Z" fill="white"></path><path d="M64.5479 20.1104H63.2349H61.9218L56.877 29.2326H59.2266L60.4015 27.0902H66.0683L67.2431 29.2326H69.5928L64.5479 20.1104ZM61.369 25.2934L63.2349 21.9072L65.1008 25.2934H61.369Z" fill="white"></path><path d="M74.4297 20.1104H72.0801V29.2326H74.4297V20.1104Z" fill="white"></path><path d="M34.3467 24.1877L30.7531 20.1104H28.127V29.2326H30.2693V22.9438V22.7365L30.4075 22.8747L34.3467 27.2285L38.2167 22.8747L38.424 22.7365V22.9438V29.2326H40.4973V20.1104H37.9403L34.3467 24.1877Z" fill="white"></path><path d="M69.1079 2.28056C65.7216 0.621971 61.506 0 57.3595 0C53.213 0 49.0666 0.621971 45.6803 2.28056C45.4729 2.41878 45.2656 2.55699 45.2656 2.83342V6.9799C45.2656 7.25633 45.3347 7.39455 45.6112 7.32544C47.2698 6.77257 49.4812 6.28882 51.0707 6.0815C51.278 6.01239 51.4853 6.1506 51.4853 6.42703V11.8866C51.4853 12.0939 51.5544 12.2321 51.6927 12.3012C52.9366 12.6467 55.4245 13.0614 57.4286 13.0614C59.3636 13.0614 61.9206 12.6467 63.1646 12.3012C63.3028 12.2321 63.3719 12.0939 63.3719 11.8866V6.42703C63.3719 6.1506 63.5101 6.0815 63.7865 6.0815C65.376 6.21971 67.5184 6.77257 69.2461 7.32544C69.5225 7.39455 69.5916 7.25633 69.5916 6.9799V2.83342C69.5225 2.55699 69.3152 2.41878 69.1079 2.28056Z" fill="white"></path></svg> 