<?xml version="1.0" encoding="UTF-8"?> <svg xmlns="http://www.w3.org/2000/svg" width="82" height="60" viewBox="0 0 82 60" fill="none"><path d="M27.3038 50.8928C27.8349 51.3839 28.0562 52.1429 28.0562 53.0357V59.4642V59.8214H27.7022H26.109H25.755V59.4642V53.125C25.755 52.9464 25.755 52.8125 25.7108 52.6786C25.6666 52.5446 25.6222 52.4553 25.578 52.366C25.4895 52.2322 25.3567 52.1875 25.224 52.1429C24.9142 52.0536 24.6486 52.0089 24.3389 52.0536C23.4096 52.0536 22.8786 52.1429 22.6574 52.3215C22.4803 52.4107 22.3476 52.6786 22.3476 53.1696V59.5088V59.866H21.9936H20.4005H20.0464V59.5088V50.759V50.4018H20.4005H21.9936H22.3476V50.759C22.436 50.7143 22.5688 50.625 22.6574 50.5803C23.1883 50.3572 23.8964 50.2232 24.7814 50.2232C25.8877 50.1786 26.7728 50.3572 27.3038 50.8928ZM5.26607 52.366H3.89424C3.18619 52.366 2.78793 52.2768 2.61094 52.1429C2.43387 52.0536 2.34541 51.875 2.34541 51.5625V50.2232C2.34541 49.7768 2.47821 49.5536 2.69947 49.4196C2.8322 49.3304 3.05346 49.2857 3.36325 49.2411C3.71724 49.1964 4.15976 49.1518 4.69082 49.1518C5.39887 49.1518 6.41664 49.2411 7.69994 49.4643L8.09826 49.5089V49.1071V47.7679V47.4553L7.78847 47.4107C6.81496 47.2768 5.79712 47.2321 4.82355 47.1875C3.09772 47.1875 1.81435 47.4107 1.1063 47.9018C0.353989 48.4375 0 49.2411 0 50.2679V51.2054C0 52.1875 0.221261 52.9911 0.796581 53.5714C1.37183 54.1518 2.30114 54.375 3.45171 54.375H4.77928C5.48733 54.375 5.88565 54.4643 6.06265 54.5982C6.19538 54.7321 6.32811 54.9553 6.32811 55.3571V56.8751C6.32811 57.0984 6.28384 57.277 6.19538 57.4109C6.10685 57.5449 6.06265 57.6342 5.88558 57.6788C5.53159 57.8574 4.95627 57.9467 4.15976 57.9467C3.18619 57.9467 1.99135 57.8128 0.619517 57.5002L0.176995 57.4109V57.8574V59.3302V59.6428L0.486788 59.6874C1.63736 59.866 2.8322 59.9553 4.02703 60C5.53159 60 6.68217 59.7767 7.47868 59.2409C8.31946 58.6605 8.67351 57.6788 8.67351 56.3393V55.4911C8.67351 54.509 8.45225 53.7054 7.9212 53.1696C7.39021 52.5893 6.4609 52.366 5.26607 52.366ZM18.0993 53.5268V55.4464V55.8036H17.7453H12.3907V56.7412C12.3907 57.277 12.5678 57.5449 12.8332 57.7235C13.1873 57.9467 13.7183 58.0807 14.5148 58.0807C15.3114 58.0807 16.1965 57.9467 17.3028 57.6788L17.7453 57.5449V57.9914V59.2409V59.5088L17.4798 59.5535C16.4619 59.7767 15.3556 59.9107 14.3378 59.9107C13.0103 59.9107 11.9482 59.6874 11.1959 59.1963C10.4436 58.6605 10.0453 57.9021 10.0453 56.8751V53.4375C10.0453 52.3215 10.3551 51.3839 11.1075 50.8482C11.8155 50.3125 12.8333 50.0893 14.2051 50.0893C15.4884 50.0893 16.462 50.3125 17.1258 50.8035C17.8338 51.4286 18.0993 52.366 18.0993 53.5268ZM15.7982 52.9911C15.7982 52.5447 15.6654 52.3214 15.4884 52.1875C15.2671 52.0536 14.8246 51.9643 14.0723 51.9643C13.3643 51.9643 12.9218 52.0536 12.7006 52.1875C12.5235 52.2768 12.3907 52.5 12.3907 52.9911V54.0179H15.7982V52.9911ZM37.9687 47.3661H38.3228V47.7232V59.4642V59.8214H37.9687H36.4199H36.0658V59.4642C35.9773 59.5088 35.8888 59.5535 35.8003 59.5981C35.225 59.866 34.4727 60 33.5435 60C32.3044 60 31.3308 59.8214 30.7113 59.3302C30.0918 58.8391 29.8262 57.9467 29.8262 56.8751V53.0357C29.8262 52.0982 30.136 51.3393 30.7555 50.8482C31.3751 50.4018 32.3486 50.2232 33.632 50.2232C34.2957 50.2232 34.9595 50.3125 35.579 50.491C35.7118 50.5357 35.8888 50.5803 36.0216 50.6697C36.0216 50.1786 36.0216 49.7768 36.0216 49.4643V47.7679V47.4107H36.3756H37.6147H37.9687V47.3661ZM36.0216 52.8571C36.0216 52.634 35.9331 52.4553 35.6233 52.3215C35.3135 52.1429 34.7825 52.0536 34.0302 52.0536C33.5877 52.0536 33.1894 52.0536 32.9239 52.0982C32.6141 52.1429 32.4372 52.1875 32.3487 52.2322C32.2601 52.2768 32.1274 52.4107 32.1274 52.8571V57.1877C32.1274 57.5895 32.2601 57.8128 32.4371 57.9467C32.6584 58.0807 33.1452 58.214 33.8975 58.214C34.7383 58.214 35.3135 58.1246 35.6233 57.9467C35.8888 57.8128 36.0216 57.5895 36.0216 57.2323V52.8571ZM71.6889 54.5536C71.1579 54.1518 70.406 53.9732 69.4325 53.9732H69.078H68.4589C67.9717 53.9732 67.618 53.8839 67.4408 53.7947C67.3081 53.7054 67.2198 53.6161 67.2198 53.4375V52.6786C67.2198 52.4107 67.3081 52.2322 67.4853 52.1429C67.7063 52.0089 68.1934 51.9196 69.0343 51.9196C69.9189 51.9196 70.7597 52.0089 71.6451 52.1875L72.0433 52.2768V51.8304V50.6697V50.3125H71.6889C70.2288 50.2232 69.388 50.1786 69.078 50.1786C67.7952 50.1786 66.7772 50.3572 66.0691 50.7143C65.3165 51.1161 64.9183 51.7411 64.9183 52.5893V53.3929C64.9183 54.1518 65.1837 54.7768 65.7154 55.2232C66.2463 55.6697 67.0426 55.8929 67.9717 55.8929H68.9453C69.4762 55.8929 69.7862 55.9822 69.9634 56.0715C70.0961 56.1607 70.1844 56.2946 70.1844 56.5626V57.4556C70.1844 57.6342 70.1844 57.7235 70.0961 57.8128C70.0516 57.9021 70.0079 57.9467 69.8751 57.9914C69.5652 58.1246 69.1225 58.1693 68.4144 58.1693C67.8835 58.1693 66.9099 58.0807 65.4937 57.8128L65.0955 57.7235V58.1254V59.3749V59.6874L65.4054 59.7321C66.379 59.866 67.3964 59.9553 68.3699 59.9553C69.609 59.9553 70.5825 59.7767 71.2907 59.3749C72.0877 58.9284 72.4414 58.1247 72.4414 57.0984V56.3393C72.4859 55.625 72.2642 54.9554 71.6889 54.5536ZM61.2012 47.3661H60.8475V47.7232V59.4642V59.8214H61.2012H62.7946H63.1483V59.4642V47.7232V47.3661H62.7946H61.2012ZM56.776 50.3572H56.4223V50.7143V57.3216C56.4223 57.6788 56.2895 57.8128 56.1123 57.9021C55.8469 58.036 55.3157 58.1254 54.4306 58.1254C54.1209 58.1254 53.8554 58.0807 53.5456 58.036C53.3686 57.9914 53.2801 57.9467 53.1916 57.8128C53.1031 57.7235 53.0588 57.6342 53.0588 57.5002C53.0146 57.3663 53.0146 57.1877 53.0146 57.0537V50.7143V50.3572H52.6605H51.0674H50.7135V50.7143V57.143C50.7135 58.036 50.9347 58.7944 51.4658 59.2856C51.9968 59.8214 52.8819 60 54.0324 60C54.9175 60 55.6252 59.9107 56.1568 59.6428C56.2895 59.5981 56.3778 59.5535 56.466 59.4642V59.8214H56.8204H58.4132H58.7676V59.4642V50.7143V50.3572H58.4132H56.776ZM48.7221 48.8393C48.8991 49.1964 48.9876 49.6429 48.9876 50.0447V52.5C48.9876 53.6161 48.5451 54.4643 47.66 54.9554C46.8192 55.4018 45.6686 55.625 44.2525 55.625H42.8807V59.5088V59.866H42.5267H40.8009H40.4468V59.5088V47.7679V47.4107H40.8009H44.5181C45.0049 47.4107 45.4031 47.4107 45.7572 47.4553C46.1554 47.5 46.5094 47.5446 46.9077 47.6339C47.2617 47.7232 47.6158 47.8571 47.9255 48.0804C48.2796 48.2143 48.5451 48.5268 48.7221 48.8393ZM46.598 50.2232C46.598 50 46.5537 49.8214 46.421 49.6429C46.2882 49.4643 46.1112 49.375 45.9342 49.3303C45.7129 49.2411 45.4916 49.1964 45.2261 49.1964C45.0491 49.1964 44.7836 49.1518 44.4738 49.1518H42.925V53.7054H44.5181C45.1819 53.7054 45.6686 53.6161 46.067 53.3482C46.421 53.1696 46.598 52.8571 46.598 52.3215V50.2232ZM82 53.5268V55.4464V55.8036H81.6463H76.2913V56.7412C76.2913 57.277 76.4685 57.5449 76.7339 57.7235C77.0876 57.9467 77.6192 58.0807 78.4156 58.0807C79.212 58.0807 80.0973 57.9467 81.2036 57.6788L81.6463 57.5449V57.9914V59.2409V59.5088L81.3801 59.5535C80.3628 59.7767 79.2565 59.9107 78.2384 59.9107C76.9111 59.9107 75.8486 59.6874 75.0967 59.1963C74.3441 58.6605 73.9459 57.9021 73.9459 56.8751V53.4375C73.9459 52.3215 74.2559 51.3839 75.0078 50.8482C75.7159 50.3125 76.7339 50.0893 78.1057 50.0893C79.3892 50.0893 80.3628 50.3125 81.0264 50.8035C81.7345 51.4286 82 52.366 82 53.5268ZM79.6991 52.9911C79.6991 52.5447 79.5664 52.3214 79.3892 52.1875C79.1675 52.0536 78.7256 51.9643 77.973 51.9643C77.2648 51.9643 76.8222 52.0536 76.6012 52.1875C76.424 52.2768 76.2913 52.5 76.2913 52.9911V54.0179H79.6991V52.9911ZM58.2367 25.625C58.6786 25.4018 59.1213 25.1339 59.4757 24.7321C59.8294 24.375 60.0949 23.9286 60.2721 23.4375C60.4493 22.9464 60.4931 22.4107 60.4931 21.9197C60.4493 21.3839 60.3166 20.8928 60.0949 20.4464C59.8739 20 59.564 19.5982 59.1658 19.2411C58.7676 18.9286 58.3249 18.6607 57.8378 18.5268C57.3514 18.3929 56.8642 18.3482 56.3333 18.3929C56.2895 18.3929 56.245 18.3929 56.2006 18.3929C56.0678 18.3929 55.9351 18.4375 55.8024 18.4822H55.7579C55.6252 18.5268 55.4485 18.5714 55.3157 18.6607C55.2714 18.6607 55.2715 18.7053 55.2272 18.7053C55.0945 18.75 54.9617 18.8393 54.8731 18.9285C54.8731 18.9285 54.829 18.9286 54.829 18.9732C54.5634 19.1518 54.2979 19.375 54.0766 19.6429C53.8554 19.9107 53.6784 20.1786 53.5013 20.491H46.598L44.1198 0H40.5796L32.6142 30.9821L30.0475 19.9107H20.9315V23.2589H27.4366L30.8441 37.8125H34.2957L41.7301 9.33035L43.633 23.8393H53.4571C53.5898 24.1518 53.8112 24.4196 54.0324 24.6875C54.2537 24.9553 54.5192 25.1339 54.7847 25.3571C54.7847 25.3571 54.829 25.3571 54.829 25.4018C54.9617 25.4911 55.0945 25.5357 55.1829 25.625C55.2272 25.625 55.2272 25.6697 55.2715 25.6697C55.4042 25.7143 55.5812 25.8036 55.7141 25.8482H55.7579C55.8906 25.8929 56.0241 25.8929 56.1568 25.9375C56.2006 25.9375 56.245 25.9375 56.2895 25.9375C56.466 25.9822 56.5988 25.9822 56.776 25.9822C57.2631 25.9375 57.794 25.8036 58.2367 25.625Z" fill="white"></path></svg> 