<?xml version="1.0" encoding="UTF-8"?> <svg xmlns="http://www.w3.org/2000/svg" width="120" height="60" viewBox="0 0 120 60" fill="none"><path d="M94.0033 29.4473C91.4033 29.4463 90.7083 29.5023 89.8453 29.7843C88.9413 30.0793 88.3813 30.6142 88.1333 31.4212C87.7333 32.7612 87.8003 35.5013 88.2753 36.4513C88.6203 37.1512 89.3433 37.5792 90.4293 37.7532C91.2793 37.8892 98.2493 37.8872 98.8293 37.7512C100.052 37.4632 100.773 36.7232 100.945 35.5772C101.029 35.0202 101.075 35.0323 98.6903 35.0533L96.6203 35.0702L96.5473 35.3303C96.4939 35.5075 96.4058 35.6724 96.2882 35.8154C96.1707 35.9583 96.0259 36.0766 95.8623 36.1632C95.6503 36.2632 95.4343 36.2782 94.3843 36.2602C93.0403 36.2372 92.9703 36.2172 92.6343 35.7662C92.4423 35.5092 92.3873 34.5663 92.5543 34.4003C92.6543 34.3003 93.0623 34.2933 96.7703 34.3303L100.973 34.2553C101.108 34.0923 101.038 31.7553 100.885 31.3433C100.62 30.6103 100.022 30.0682 99.1933 29.8092C98.4273 29.5692 96.6813 29.4492 93.9933 29.4492L94.0033 29.4473ZM94.6193 31.1472C95.1053 31.1492 95.5793 31.1943 95.7553 31.2843C96.3953 31.6103 96.7583 32.2362 96.4723 32.5212C96.3793 32.6142 96.1123 32.6283 94.5953 32.6283C93.3113 32.6283 92.8033 32.6062 92.7453 32.5462C92.7003 32.5012 92.6633 32.3312 92.6633 32.1702C92.6633 31.7952 92.9473 31.4503 93.4033 31.2743C93.6333 31.1863 94.1333 31.1442 94.6193 31.1442V31.1472ZM60.0163 37.7073C58.8143 37.6373 58.3933 37.5713 57.8523 37.3673C57.2522 37.1199 56.7741 36.6455 56.5223 36.0473C56.3453 35.5733 56.2193 34.8173 56.2483 34.4073L56.2683 34.1072H61.3543L61.3943 34.5193C61.4593 35.1893 61.7343 35.5663 62.2743 35.7273C62.4303 35.7733 63.0883 35.7932 64.0403 35.7792C65.5543 35.7572 65.5583 35.7562 65.8363 35.5722C66.2293 35.3122 66.4063 34.9153 66.4063 34.2963C66.4063 33.7333 66.3333 33.4963 66.0763 33.2283C65.7493 32.8853 65.4503 32.8482 62.2463 32.7682L58.7763 32.5912C58.0593 32.4512 57.2963 32.0573 57.0093 31.6912C56.6263 31.1872 56.5563 30.8043 56.5953 29.4193C56.6323 28.0923 56.6783 27.8622 57.0083 27.3762C57.4213 26.7762 58.1603 26.4063 59.3033 26.2563C59.6093 26.2163 61.7433 26.1762 64.2403 26.1562L69.1773 26.2633C70.0973 26.4793 70.6703 26.7962 70.9743 27.2582C71.2523 27.6822 71.3983 29.3463 71.1773 29.5583C71.0833 29.6523 70.7693 29.6663 68.7803 29.6663C67.0303 29.6663 66.4753 29.6462 66.4223 29.5802C66.3843 29.5332 66.3403 29.2923 66.3253 29.0443C66.2803 28.2983 65.9653 28.0103 65.0453 27.8643C64.4133 27.7643 62.5633 27.8392 62.0823 27.9842C61.3423 28.2072 61.2253 28.3842 61.2623 29.2792C61.2893 29.9192 61.3843 30.1192 61.7923 30.3972C62.0503 30.5732 62.2693 30.5892 65.8583 30.6892L68.9163 30.8892C70.1423 31.1693 70.9963 31.7723 71.2513 32.5373C71.3933 32.9673 71.5063 34.2923 71.4513 34.9143C71.3083 36.5723 70.5633 37.4123 69.1013 37.5613C67.2013 37.7553 62.3353 37.8232 60.0133 37.6882L60.0163 37.7073ZM73.5193 37.7003C73.5013 37.6533 73.4943 35.0783 73.5043 31.9783L73.5223 26.3422L75.6103 26.3242L77.7923 26.3843C77.8673 26.4463 77.8863 26.8143 77.8863 28.2043V29.9473L78.0523 29.9893C78.1523 30.0143 78.4323 29.9573 78.7563 29.8463C79.7843 29.4943 82.6693 29.4712 83.9483 29.8062C85.0013 30.0802 85.7253 30.6092 85.9143 31.2412C86.0313 31.6412 86.0303 37.5872 85.9133 37.7042C85.8533 37.7642 85.3133 37.7862 83.8653 37.7862C82.4173 37.7862 81.8773 37.7642 81.8173 37.7042C81.7573 37.6442 81.7353 36.9542 81.7353 35.0292V32.4363L81.5313 32.2323C80.8713 31.5723 78.7743 31.6163 78.0313 32.3043L77.8763 32.4503V35.0362L77.7943 37.7042C77.6743 37.8242 73.5563 37.8223 73.5093 37.7013L73.5193 37.7003ZM103.113 37.6532C103.001 37.4532 103.015 26.5763 103.127 26.4233C103.205 26.3163 103.399 26.3072 105.309 26.3232L107.405 26.3412V37.7413L105.305 37.7592C103.275 37.7762 103.192 37.7723 103.123 37.6433L103.113 37.6532ZM109.877 37.7003C109.859 37.6533 109.852 35.0783 109.862 31.9783L109.88 26.3422L111.968 26.3242L114.15 26.3843C114.28 26.4923 114.292 37.5842 114.162 37.7042C114.042 37.8242 109.924 37.8213 109.877 37.7003Z" fill="white"></path><path d="M27.6069 48.7639C27.1029 48.6859 26.6049 48.4389 26.1129 48.0239L25.8189 47.7739H20.6489C16.5559 47.7739 15.4739 47.7619 15.4569 47.7139C15.4449 47.6819 15.3829 47.1669 15.3169 46.5699L15.1529 45.1069L15.0329 44.0449L14.8899 42.7709L14.7259 41.2849L14.6039 40.2589C14.5819 40.1509 14.0519 39.7549 11.4319 37.8889L8.15588 35.5399C8.03288 35.4399 8.02088 35.3929 7.93288 34.6799C7.21688 28.8839 8.55288 23.8259 12.0529 19.0839C12.9159 17.9139 13.6459 17.0839 14.4499 16.3589C16.7699 14.2659 19.3549 12.8359 22.3719 11.9759C24.9619 11.2359 27.7719 11.0259 30.4649 11.3729C34.3379 11.8689 37.9389 13.4559 40.9879 16.0109C41.7979 16.6909 42.9759 17.8939 43.4909 18.5709C47.0289 23.2229 48.5209 28.5649 47.9469 34.5159C47.9209 34.7889 47.8869 35.0759 47.8719 35.1529C47.8489 35.2729 47.6059 35.4729 46.1939 36.5229L41.3679 40.1199L41.3129 40.6199L40.9409 43.9999L40.5249 47.6629C40.5149 47.6729 38.2099 47.6929 35.3999 47.7109L30.2919 47.7429L29.9849 47.9929C29.2299 48.6129 28.3899 48.8829 27.6049 48.7629L27.6069 48.7639Z" fill="white"></path><path d="M28.7703 45.2739C28.9803 45.1709 29.2203 44.9909 29.4723 44.7489L29.8553 44.3809L33.6853 44.3469L37.5373 44.2369C37.5493 44.1969 37.5723 44.0129 37.5873 43.8319L37.6833 42.8649L38.0873 38.9469L38.1453 38.3549L44.3853 33.7749C44.5023 33.6869 44.6453 32.7729 44.6853 31.9169C44.7173 31.0199 44.6603 30.3799 44.4853 29.6669C44.3473 29.1049 44.0413 28.3069 43.9653 28.3069C43.9353 28.3069 42.1103 30.1309 39.9073 32.3599L34.7993 37.5269L33.6743 38.5549C33.6443 38.4389 33.7443 38.2989 34.7643 37.0129L38.6183 32.1579L43.6043 25.8219C43.6293 25.7259 43.4163 24.9689 43.2543 24.5799C43.0723 24.1429 42.6943 23.5049 42.3143 22.9969C41.9743 22.5389 41.0943 21.5849 41.0543 21.6299C41.0443 21.6429 40.7083 22.2269 40.3113 22.9279L32.9853 35.8339L32.0783 37.3839C32.0403 37.4219 31.9763 37.4339 31.9163 37.4159C31.7183 37.3529 31.7923 37.1359 32.5993 35.4089L38.1453 23.5069L39.7453 19.9899C39.7453 19.8499 39.4023 19.3719 39.0323 18.9969C38.6073 18.5669 37.9173 18.0409 37.3123 17.6849C36.7793 17.3719 35.7363 16.8449 35.7073 16.8749C35.6873 16.8949 35.6073 17.2099 34.9073 19.6479L30.3733 35.6929C30.1673 36.4329 30.1403 36.4949 30.0293 36.4949C29.8853 36.4949 29.8753 36.3769 29.9753 35.8649L30.2853 34.2529L30.4693 33.2859L33.7243 15.9659L33.6143 15.8839C32.8783 15.3399 31.9803 15.0469 30.6763 14.9259C30.1313 14.8759 28.9243 14.8789 28.8763 14.9309C28.8663 14.9429 28.8323 15.6849 28.8023 16.5809L28.2773 31.8469L28.1643 34.9489C28.1023 36.6989 28.0863 36.8259 27.9213 36.8259C27.8333 36.8259 27.8183 36.6839 27.7613 35.2459L27.5013 29.1579L27.4063 26.9159L27.2413 23.1639L27.1693 21.4639L27.0993 19.9069L26.8973 15.1869L26.8873 14.8569L26.5093 14.8189C25.5306 14.7433 24.5464 14.8546 23.6093 15.1469C23.1933 15.2919 22.5413 15.6219 22.2373 15.8439L22.0233 15.9999L24.8773 30.2549L26.1093 36.5549C26.1093 36.7349 25.9913 36.7849 25.8673 36.6599C25.7833 36.5759 25.0243 33.9839 23.2803 27.8199L22.8063 26.1679L21.4343 21.3699L20.1643 16.9699C20.0943 16.8579 18.7923 17.4379 18.1243 17.8769C17.3783 18.3669 16.6703 19.0569 16.1683 19.7769L15.9743 20.0569L23.8373 36.4749C24.0223 36.8619 24.1793 37.2429 24.1853 37.3229C24.2003 37.5209 24.0653 37.5429 23.9053 37.3679C23.8393 37.2949 23.2653 36.3429 22.6273 35.2519L14.7343 21.7639C14.6613 21.6839 13.7463 22.7569 13.2873 23.4609C12.7843 24.2309 12.4273 25.1409 12.3523 25.8389L12.3193 26.1469L15.7063 30.2989L20.7623 36.4969L22.4163 38.6209C22.4163 38.6209 22.3493 38.7039 22.2843 38.7109C22.1523 38.7269 21.7673 38.3459 16.9983 33.4829L11.7883 28.2509C11.6903 28.3489 11.3543 29.5359 11.2153 30.2739C11.0853 30.9599 11.0983 32.4839 11.2373 33.1539C11.3113 33.5099 11.3703 33.6789 11.4453 33.7539C11.5413 33.8479 12.3513 34.4679 16.4153 37.5609L17.7893 38.6059L17.8443 39.0779L17.9713 40.1879L18.1093 41.3679L18.2993 43.0429L18.4443 44.2829L18.4643 44.3889H26.2143L26.4903 44.6889C27.0023 45.2489 27.5003 45.4869 28.0983 45.4589C28.3923 45.4449 28.5213 45.4119 28.7783 45.2849L28.7703 45.2739Z" fill="#151515"></path></svg> 