<?xml version="1.0" encoding="UTF-8"?> <svg xmlns="http://www.w3.org/2000/svg" width="86" height="20" viewBox="0 0 86 20" fill="none"><g id="AJOUR_logo_bw"><path id="Shape" fill-rule="evenodd" clip-rule="evenodd" d="M31.0742 9.99593C31.0742 4.00822 34.5631 0.00195312 39.6374 0.00195312C44.7117 0.00339839 48.202 4.00822 48.2006 9.99593C48.2006 15.9851 44.7117 19.9899 39.6374 19.9899C34.5631 19.9899 31.0742 15.9851 31.0742 9.99593ZM39.6377 18.1821C41.5628 18.1821 43.2017 17.4508 44.3796 16.0677C45.6341 14.595 46.2975 12.495 46.2975 9.99619C46.2975 7.50022 45.6341 5.40026 44.3796 3.92609C43.2017 2.54298 41.5628 1.81168 39.6377 1.81168C37.7112 1.81168 36.0723 2.54298 34.8958 3.92609C33.6413 5.40026 32.978 7.49878 32.978 9.99619C32.978 12.495 33.6413 14.5936 34.8958 16.0677C36.0723 17.4508 37.7126 18.1821 39.6377 18.1821Z" fill="white"></path><path id="Shape_2" fill-rule="evenodd" clip-rule="evenodd" d="M86 19.5155H83.676L78.3445 11.899H74.1026V19.514H72.1992V0.478516H72.6444H74.1026H78.3849C81.5399 0.478516 84.0966 3.03518 84.0966 6.18874C84.0966 8.62978 82.5646 10.7124 80.4097 11.5304L86 19.5155ZM78.3852 2.28652H74.1029V10.0909H78.3852C80.488 10.0909 82.192 8.3436 82.192 6.18872C82.192 4.03384 80.488 2.28652 78.3852 2.28652Z" fill="white"></path><path id="Shape_3" fill-rule="evenodd" clip-rule="evenodd" d="M18.1958 19.511H16.0959L13.4337 13.8037H4.76213L2.09996 19.511H0L8.04576 2.25172L9.09647 0L10.1472 2.25172L18.1958 19.511ZM9.09839 4.50329L5.60519 11.9955H12.5916L9.09839 4.50329Z" fill="white"></path><path id="Path" d="M24.5249 0.478516V15.2317C24.5249 16.8085 23.2473 18.0876 21.6705 18.0876C21.2384 18.0876 20.8294 17.9907 20.4637 17.8202L19.6602 19.5458C20.2715 19.8306 20.9522 19.991 21.672 19.991C24.2994 19.991 26.4298 17.8607 26.4298 15.2317V0.478516H24.5249Z" fill="white"></path><path id="Path_2" d="M52.8457 13.0899C52.8457 16.901 55.9357 19.9895 59.7468 19.9895C63.558 19.9895 66.6465 16.8996 66.6465 13.0899V0.478516H64.7431V13.0899C64.7431 15.9023 62.5058 18.1815 59.7468 18.1815C56.9878 18.1815 54.7506 15.9023 54.7506 13.0899V0.478516H52.8471V13.0899H52.8457Z" fill="white"></path></g></svg> 